<svg id="constellations_dataObjects" xmlns="http://www.w3.org/2000/svg" viewBox="0 0 1364.2 688.01"><defs><style>.constellationData-1{fill:#0b5f63;}</style></defs><title>constellation_triangles</title>
<g id="constellationDataObj">
<path id="_01" data-name="01" class="constellationData-1" points="110.32 0 0 56.16 90.89 67.04 110.32 0"/>
<path id="_02" data-name="02" class="constellationData-1" points="117.7 445.68 51.61 476.04 100.22 539.59 117.7 445.68"/>
<path id="_03" data-name="03" class="constellationData-1" points="195.81 349.3 117.61 385.04 117.7 445.68 195.81 349.3"/>
<path id="_04" data-name="04" class="constellationData-1" points="415.2 171.54 229.61 170.03 384.87 280.59 415.2 171.54"/>
<path id="_05" data-name="05" class="constellationData-1" points="385.32 532 243.32 639.55 364.65 688.01 385.32 532"/>
<path id="_06" data-name="06" class="constellationData-1" points="939.67 195.84 801.44 111.72 868.14 212.29 939.67 195.84"/>
<path id="_07" data-name="07" class="constellationData-1" points="1063.2 319.17 974.61 354.04 1076.37 479.1 1063.2 319.17"/>
<path id="_08" data-name="08" class="constellationData-1" points="1364.2 317 1255.36 276.3 1221.92 394.67 1364.2 317"/>
</g>
</svg>