<svg id="Constallations" xmlns="http://www.w3.org/2000/svg" xmlns:xlink="http://www.w3.org/1999/xlink" viewBox="0 0 1526.03 702.03"><defs>
	<style>
		.radial_gradient_02{fill:url(#radial-gradient);}
		.constellation1,.constellation2{fill:none;stroke-miterlimit:10;}
		.constellation1{stroke:#fff;}
		.constellation2{stroke:#f2f2f2;}
	</style>
<radialGradient id="radial-gradient" cx="12.55" cy="12.55" r="12.55" gradientUnits="userSpaceOnUse">
<stop offset="0" stop-color="#fff"/>
<stop offset="0.1" stop-color="#eee" stop-opacity="0.93"/>
<stop offset="0.3" stop-color="#c2c2c2" stop-opacity="0.76"/>
<stop offset="0.57" stop-color="#7a7a7a" stop-opacity="0.48"/>
<stop offset="0.91" stop-color="#191919" stop-opacity="0.1"/>
<stop offset="1" stop-opacity="0"/>
</radialGradient><symbol id="star_02" data-name="star_02" viewBox="0 0 25.09 25.09">
<circle class="radial_gradient_02" cx="12.55" cy="12.55" r="12.55"/>
</symbol>
</defs>
<title>constallations</title>
<g id="Perseus">
	<g id="perseus_paths">
		<polyline class="constellation1" points="13.46 111.56 37.44 81.03 74.32 96.3 118.58 125.92 194.19 138.49 207.09 90.01 170.21 12.8"/>
	<polyline class="constellation1" points="194.19 138.49 207.09 201.34 223.69 239.05 110.28 332.42"/>
</g>
<use width="25.09" height="25.09" transform="translate(99.8 323.7) scale(0.79)" xlink:href="#constellationSymbol"/>
<use width="25.09" height="25.09" transform="translate(214.28 230.78) scale(0.79)" xlink:href="#constellationSymbol"/>
<use width="25.09" height="25.09" transform="translate(184.81 130.47) scale(0.79)" xlink:href="#constellationSymbol"/>
<use width="25.09" height="25.09" transform="translate(200.61 78.11) scale(0.79)" xlink:href="#constellationSymbol"/>
<use width="25.09" height="25.09" transform="translate(162.43 0) scale(0.79)" xlink:href="#constellationSymbol"/>
<use width="25.09" height="25.09" transform="translate(109.83 116.78) scale(0.79)" xlink:href="#constellationSymbol"/>
<use width="25.09" height="25.09" transform="translate(65.63 85.51) scale(0.79)" xlink:href="#constellationSymbol"/>
<use width="25.09" height="25.09" transform="translate(26.8 68.01) scale(0.79)" xlink:href="#constellationSymbol"/>
<use width="25.09" height="25.09" transform="translate(0 104.84) scale(0.79)" xlink:href="#constellationSymbol"/>
</g>
<g id="camelopardalis">
	<polyline id="camelo_path" class="constellation1" points="475.58 169.35 597.29 255.54 621.26 169.35 606.51 86.75 556.72 14.92"/>
<use width="25.09" height="25.09" transform="translate(464.37 159.52) scale(0.79 0.79)" xlink:href="#constellationSymbol"/>
<use width="25.09" height="25.09" transform="translate(587.73 248.43) scale(0.79 0.79)" xlink:href="#constellationSymbol"/>
<use width="25.09" height="25.09" transform="translate(611.06 159.24) scale(0.79 0.79)" xlink:href="#constellationSymbol"/>
<use width="25.09" height="25.09" transform="translate(598.71 75.2) scale(0.79 0.79)" xlink:href="#constellationSymbol"/>
<use width="25.09" height="25.09" transform="translate(546.73 2.87) scale(0.79 0.79)" xlink:href="#constellationSymbol"/></g>
<g id="cassiopeia">
	<polyline id="cassiopeia_path" class="constellation1" points="285.21 513.72 250.64 465.83 298.74 439.49 298.74 395.2 356.52 365.27"/>
<use width="25.09" height="25.09" transform="translate(276.15 506.28) scale(0.79 0.79)" xlink:href="#constellationSymbol"/>
<use width="25.09" height="25.09" transform="translate(237.94 456.24) scale(0.79 0.79)" xlink:href="#constellationSymbol"/>
<use width="25.09" height="25.09" transform="translate(289.39 428.67) scale(0.79 0.79)" xlink:href="#constellationSymbol"/>
<use width="25.09" height="25.09" transform="translate(288.67 382.8) scale(0.79 0.79)" xlink:href="#constellationSymbol"/>
<use width="25.09" height="25.09" transform="translate(348.97 351.75) scale(0.79 0.79)" xlink:href="#constellationSymbol"/></g>
<g id="cepheus">
	<g id="cepheus_path"><path class="constellation1" d="M648.46,582.17v25.14l16-6,89.75,20.35s38.11,35.91,36.88,39.5,27,0,27,0" transform="translate(-216.37 -124.45)"/><path class="constellation1" d="M761.56,622.47c3.69-3.19,51.63-77.41,51.63-77.41l17.21-126.89-113.1,88.59-52.86,94.57" transform="translate(-216.37 -124.45)"/></g>
<use width="25.09" height="25.09" transform="translate(418.41 443.03) scale(0.79 0.79)" xlink:href="#constellationSymbol"/>
<use width="25.09" height="25.09" transform="translate(416.38 476.72) scale(0.79 0.79)" xlink:href="#constellationSymbol"/>
<use width="25.09" height="25.09" transform="translate(440.19 466.97) scale(0.79 0.79)" xlink:href="#constellationSymbol"/>
<use width="25.09" height="25.09" transform="translate(490.53 369.18) scale(0.79 0.79)" xlink:href="#constellationSymbol"/>
<use width="25.09" height="25.09" transform="translate(605.12 282.01) scale(0.79 0.79)" xlink:href="#constellationSymbol"/>
<use width="25.09" height="25.09" transform="translate(589.9 409.2) scale(0.79 0.79)" xlink:href="#constellationSymbol"/>
<use width="25.09" height="25.09" transform="translate(534.14 488.06) scale(0.79 0.79)" xlink:href="#constellationSymbol"/>
<use width="25.09" height="25.09" transform="translate(564.56 530.65) scale(0.79 0.79)" xlink:href="#constellationSymbol"/>
<use width="25.09" height="25.09" transform="translate(598.53 529.17) scale(0.79 0.79)" xlink:href="#constellationSymbol"/></g>
<g id="lacerta"><path id="lacerta_path" class="constellation1" d="M495.39,802.9c3.69-1.2,27-9.58,27-9.58l12-58.59,54.44-7.25V702.34H611V683.19h29.51" transform="translate(-216.37 -124.45)"/>
<use width="25.09" height="25.09" transform="translate(265 670.73) scale(0.79 0.79)" xlink:href="#constellationSymbol"/>
<use width="25.09" height="25.09" transform="translate(295.95 660.83) scale(0.79 0.79)" xlink:href="#constellationSymbol"/>
<use width="25.09" height="25.09" transform="translate(304.91 600.21) scale(0.79 0.79)" xlink:href="#constellationSymbol"/>
<use width="25.09" height="25.09" transform="translate(363.04 597.18) scale(0.79 0.79)" xlink:href="#constellationSymbol"/>
<use width="25.09" height="25.09" transform="translate(357.33 566.56) scale(0.79 0.79)" xlink:href="#constellationSymbol"/>
<use width="25.09" height="25.09" transform="translate(388.61 568.76) scale(0.79 0.79)" xlink:href="#constellationSymbol"/>
<use width="25.09" height="25.09" transform="translate(384.11 541.03) scale(0.79 0.79)" xlink:href="#constellationSymbol"/>
<use width="25.09" height="25.09" transform="translate(425.28 541.38) scale(0.79 0.79)" xlink:href="#constellationSymbol"/></g>
<g id="draco"><path id="draco_path" class="constellation1" d="M1218.17,317.53v65.81L1254.74,501l-15.11,123.1-44.53,44.13-45.32-13.16-76.33-20.9L1018.6,573l-35-3.1-44.52-10.84-38.16,27.1,28.62,35.61,106.54,129.29,2.39,62.71s49.3-15.48,48.5-17.81-9.14-33.29-9.14-33.29l-36.18-11.61" transform="translate(-216.37 -124.45)"/>
<use width="25.09" height="25.09" transform="translate(992.12 179.67) scale(0.79 0.79)" xlink:href="#constellationSymbol"/>
<use width="25.09" height="25.09" transform="translate(992.24 246.51) scale(0.79 0.79)" xlink:href="#constellationSymbol"/>
<use width="25.09" height="25.09" transform="translate(1030.3 362.98) scale(0.79 0.79)" xlink:href="#constellationSymbol"/>
<use width="25.09" height="25.09" transform="translate(1017.28 488.26) scale(0.79 0.79)" xlink:href="#constellationSymbol"/>
<use width="25.09" height="25.09" transform="translate(970 535.29) scale(0.79 0.79)" xlink:href="#constellationSymbol"/>
<use width="25.09" height="25.09" transform="translate(847.76 498.25) scale(0.79 0.79)" xlink:href="#constellationSymbol"/>
<use width="25.09" height="25.09" transform="translate(793.2 435.89) scale(0.79 0.79)" xlink:href="#constellationSymbol"/>
<use width="25.09" height="25.09" transform="translate(711.64 421.91) scale(0.79 0.79)" xlink:href="#constellationSymbol"/>
<use width="25.09" height="25.09" transform="translate(671.1 451.92) scale(0.79 0.79)" xlink:href="#constellationSymbol"/>
<use width="25.09" height="25.09" transform="translate(807.03 616.66) scale(0.79 0.79)" xlink:href="#constellationSymbol"/>
<use width="25.09" height="25.09" transform="translate(809.78 682.19) scale(0.79 0.79)" xlink:href="#constellationSymbol"/>
<use width="25.09" height="25.09" transform="translate(862.21 664.11) scale(0.79 0.79)" xlink:href="#constellationSymbol"/>
<use width="25.09" height="25.09" transform="translate(850.9 627.25) scale(0.79 0.79)" xlink:href="#constellationSymbol"/></g>
<g id="ursa_minor">
	<g id="ursa_pathElements">
		<polyline class="constellation2" points="1190.35 201.12 1242.09 119.6 1225.15 25.27 1242.09 25.27"/><path class="constellation2" d="M1545.94,506c-2.82-2.75-50.8-90.54-50.8-90.54l-96.89-97-104.42-61.65s55.5,81.52,53.62,81.52,85.13,105.34,85.13,105.34l73.84,99.84,8.47,67.78,1.88,56.79,50.8,62.29" transform="translate(-216.37 -124.45)"/>
	<polyline class="constellation2" points="1411.41 352.26 1435.87 265.89 1431.16 132.42 1404.83 132.42"/><path class="constellation2" d="M1728.43,420.83c-7.78,4.58-107.24,62.29-107.24,62.29l-80,27.48-30.1,36.64" transform="translate(-216.37 -124.45)"/><path class="constellation2" d="M1496.08,425.41c-3.76-.92-63.5,18.32-63.5,18.32" transform="translate(-216.37 -124.45)"/></g>
<g id="ursa_group">
<use width="25.09" height="25.09" transform="translate(1343.96 598.48) scale(0.79 0.79)" xlink:href="#constellationSymbol"/>
<use width="25.09" height="25.09" transform="translate(1288.93 535.73) scale(0.79 0.79)" xlink:href="#constellationSymbol"/>
<use width="25.09" height="25.09" transform="translate(1280.94 413.45) scale(0.79 0.79)" xlink:href="#constellationSymbol"/>
<use width="25.09" height="25.09" transform="translate(1321.26 371.94) scale(0.79 0.79)" xlink:href="#constellationSymbol"/>
<use width="25.09" height="25.09" transform="translate(1404.38 343.33) scale(0.79 0.79)" xlink:href="#constellationSymbol"/>
<use width="25.09" height="25.09" transform="translate(1506.19 287.34) scale(0.79 0.79)" xlink:href="#constellationSymbol"/>
<use width="25.09" height="25.09" transform="translate(1428.24 255.62) scale(0.79 0.79)" xlink:href="#constellationSymbol"/>
<use width="25.09" height="25.09" transform="translate(1425.23 119.04) scale(0.79 0.79)" xlink:href="#constellationSymbol"/>
<use width="25.09" height="25.09" transform="translate(1395.4 119.05) scale(0.79 0.79)" xlink:href="#constellationSymbol"/>
<use width="25.09" height="25.09" transform="translate(1272.81 285.38) scale(0.79 0.79)" xlink:href="#constellationSymbol"/>
<use width="25.09" height="25.09" transform="translate(1203.18 310.84) scale(0.79 0.79)" xlink:href="#constellationSymbol"/>
<use width="25.09" height="25.09" transform="translate(1118.62 203.98) scale(0.79 0.79)" xlink:href="#constellationSymbol"/>
<use width="25.09" height="25.09" transform="translate(1061.93 118.46) scale(0.79 0.79)" xlink:href="#constellationSymbol"/>
<use width="25.09" height="25.09" transform="translate(1178.71 191.15) scale(0.79 0.79)" xlink:href="#constellationSymbol"/>
<use width="25.09" height="25.09" transform="translate(1232.67 107.84) scale(0.79 0.79)" xlink:href="#constellationSymbol"/>
<use width="25.09" height="25.09" transform="translate(1209.89 13.44) scale(0.79 0.79)" xlink:href="#constellationSymbol"/>
<use width="25.09" height="25.09" transform="translate(1236.1 10.6) scale(0.79 0.79)" xlink:href="#constellationSymbol"/></g></g>
<g id="dipper">
	<polyline id="dipper_path" class="constellation2" points="726.14 131.21 743.63 174.8 775.43 218.69 827.11 241.92 886.75 241.92 886.75 279.85 824.73 273.66 827.11 245.79"/>
<use width="25.09" height="25.09" transform="translate(714.4 118.5) scale(0.79)" xlink:href="#constellationSymbol"/>
<use width="25.09" height="25.09" transform="translate(731.19 164.19) scale(0.79)" xlink:href="#constellationSymbol"/>
<use width="25.09" height="25.09" transform="translate(763.66 208.87) scale(0.79)" xlink:href="#constellationSymbol"/>
<use width="25.09" height="25.09" transform="translate(818.43 231.98) scale(0.79)" xlink:href="#constellationSymbol"/>
<use width="25.09" height="25.09" transform="translate(880.24 230.38) scale(0.79)" xlink:href="#constellationSymbol"/>
<use width="25.09" height="25.09" transform="translate(880.42 273.58) scale(0.79)" xlink:href="#constellationSymbol"/>
<use width="25.09" height="25.09" transform="translate(814.87 269.45) scale(0.79)" xlink:href="#constellationSymbol"/>
</g>
</svg>