<svg id="data_1st_building" xmlns="http://www.w3.org/2000/svg" viewBox="0 0 1819.73 518.54"><defs>
</defs>
<title>data01</title>
<g id="_1st_building_count" data-name="1st_building_count">
	<line class="cls-001" x1="788.86" y1="433.15" x2="788.86" y2="28.15"/>
	<path class="cls-002" d="M1586,1133l-12,77s-72,2-78.75,0a2.94,2.94,0,0,1-.53-0.23c-7.3-4-28.22-47.77-28.22-47.77l57.5-95,21,43,0.16,0.09Z" transform="translate(-50.14 -692.85)"/>
	<path class="cls-003" d="M1586,1133l-12,77s-72,2-78.75,0a2.94,2.94,0,0,1-.53-0.23c14.95-29.63,38.33-75.94,50.44-99.68Z" transform="translate(-50.14 -692.85)"/>
	<g id="_01" data-name="01">
		<line class="cls-004" x1="24.86" y1="433.15" x2="24.86" y2="329.06"/>
		<text class="cls-005" transform="translate(0 308.06)">40 m</text>
	</g>
	<g id="_02" data-name="02">
		<line class="cls-004" x1="170.86" y1="433.15" x2="170.86" y2="308.06"/>
		<text class="cls-005" transform="translate(140.4 287.7)">55 m</text>
	</g>
	<g id="_03" data-name="03">
		<line class="cls-004" x1="409.86" y1="433.15" x2="409.86" y2="306.15"/>
		<text class="cls-005" transform="translate(381.88 290.71)">54 m</text>
	</g>
	<g id="_04" data-name="04">
		<line class="cls-004" x1="556.36" y1="433.15" x2="556.36" y2="271.15"/>
		<text class="cls-005" transform="translate(531.5 259.15)">72 m</text>
	</g>
	<g id="_05" data-name="05">
		<line class="cls-004" x1="681.36" y1="433.15" x2="681.36" y2="234.15"/>
		<text class="cls-005" transform="translate(656.5 223.37)">88 m</text>
	</g>
	<g id="_06" data-name="06">
		<line class="cls-004" x1="735.36" y1="433.15" x2="735.36" y2="279.15"/>
		<text class="cls-005" transform="translate(712.27 269.02)">80 m</text>
	</g>
	<g id="_07" data-name="07">
		<line class="cls-004" x1="844.36" y1="433.15" x2="844.36" y2="252.15"/>
		<text class="cls-005" transform="translate(823.4 241.4)">85 m</text>
	</g>
	<g id="_08" data-name="08">
		<line class="cls-004" x1="950.86" y1="433.15" x2="950.86" y2="199.15"/>
		<text class="cls-005" transform="translate(926 189.2)">98 m</text>
	</g>
	<g id="_09" data-name="09">
		<line class="cls-004" x1="1036.46" y1="433.15" x2="1036.46" y2="252.15"/>
		<text class="cls-005" transform="translate(1008 241.4)">85 m</text>
	</g>
	<g id="_10" data-name="10">
		<line class="cls-004" x1="1135.86" y1="433.15" x2="1135.86" y2="279.15"/>
		<text class="cls-005" transform="translate(1108.01 269.02)">80 m</text>
	</g>
	<g id="_11" data-name="11">
		<line class="cls-004" x1="1416.36" y1="433.15" x2="1416.36" y2="323.15"/>
		<text class="cls-005" transform="translate(1391.5 313.65)">49 m</text>
	</g>
	<g id="_12" data-name="12">
		<line class="cls-004" x1="1516.36" y1="433.15" x2="1516.36" y2="276.15"/>
		<text class="cls-005" transform="translate(1491.5 261.15)">80 m</text>
	</g>
	<g id="_13" data-name="13">
		<line class="cls-004" x1="1643.86" y1="433.15" x2="1643.86" y2="264.15"/>
		<text class="cls-005" transform="translate(1619 252.15)">84 m</text>
	</g>
	<g id="_14" data-name="14">
		<line class="cls-004" x1="1794.86" y1="433.15" x2="1794.86" y2="294.15"/>
		<text class="cls-005" transform="translate(1770 279.15)">78 m</text>	
	</g>
</g>
<g id="data_downtown01">
	<g id="_01-2" data-name="01">
		<path class="cls-002" d="M791,1129.68c-0.13,1.58,0-262.68,0-262.68" transform="translate(-50.14 -692.85)"/>
		<text class="cls-006" transform="translate(705.12 167.93)">320,450</text>
	</g>
	<g id="_02-2" data-name="02">
		<line class="cls-007" x1="765.69" y1="433.15" x2="765.69" y2="138.93"/>
		<text class="cls-006" transform="translate(724.65 131.83)">398,657</text>
	</g>
	<g id="_03-2" data-name="03">
		<line class="cls-007" x1="785.36" y1="433.15" x2="785.36" y2="28.15"/>
		<text class="cls-006" transform="translate(757.33 24.14)">2,563,562</text>
	</g>
	<g id="_04-2" data-name="04">
		<line class="cls-007" x1="823.86" y1="433.15" x2="823.86" y2="103.15"/>
		<text class="cls-006" transform="translate(804.97 96.92)">402,582</text>
	</g>
	<g id="_05-2" data-name="05">
		<line class="cls-007" x1="863.86" y1="433.15" x2="863.86" y2="18.15"/>
		<text class="cls-006" transform="translate(835.83 11.72)">2,952,462</text>
	</g>
	<g id="_06-2" data-name="06">
		<line class="cls-007" x1="882.36" y1="433.15" x2="882.36" y2="72.15"/>
		<text class="cls-006" transform="translate(876.87 67.06)">408,258</text>
	</g>
	<g id="_07-2" data-name="07">
		<line class="cls-007" x1="895.86" y1="433.15" x2="895.86" y2="209.15"/>
		<text class="cls-006" transform="translate(894.87 131.83)">398,258</text>
	</g>
	<g id="_09-2" data-name="09">
		<line class="cls-007" x1="925.53" y1="433.15" x2="925.53" y2="300.15"/>
		<text class="cls-008" transform="translate(910.91 295.14)">152,484</text>
		<g id="_10-2" data-name="10">
			<line class="cls-007" x1="946.86" y1="433.15" x2="947.53" y2="151.15"/>
			<g id="_08-2" data-name="08">
				<line class="cls-007" x1="909.86" y1="433.15" x2="909.86" y2="136.15"/>
				<text class="cls-009" transform="translate(916.01 146.03)">382,446</text>
			</g>
		</g>
	</g>
	<g id="_12-2" data-name="12">
		<line class="cls-007" x1="994.36" y1="433.15" x2="994.36" y2="72.15"/>
		<text class="cls-006" transform="translate(959.42 67.06)">411,890</text>
	</g>
	<g id="_13-2" data-name="13">
		<line class="cls-007" x1="1018.36" y1="433.15" x2="1018.36" y2="19.22"/>
		<text class="cls-006" transform="translate(990.33 11.72)">2,951,890</text>
	</g>
	<g id="_14-2" data-name="14">
		<line class="cls-007" x1="1040.86" y1="433.15" x2="1040.86" y2="160.15"/>
		<text class="cls-006" transform="translate(1026.42 156.57)">371,890</text>
	</g>
	<g id="_15" data-name="15">
		<line class="cls-007" x1="1078.84" y1="433.15" x2="1076.84" y2="89.15"/>
		<text class="cls-006" transform="translate(1053.82 84.56)">407,776</text>
	</g>
	<g id="_16" data-name="16">
		<line class="cls-007" x1="1101.12" y1="433.15" x2="1101.12" y2="214.15"/>
		<text class="cls-008" transform="translate(1084.7 209.15)">204,225</text>
	</g>
	<g id="_17" data-name="17">
		<line class="cls-007" x1="1123.86" y1="433.15" x2="1123.86" y2="114.49"/>
		<text class="cls-006" transform="translate(1100.87 108.15)">404,118</text>
	</g>
	<g id="_18" data-name="18">
		<line class="cls-007" x1="1180.86" y1="433.15" x2="1180.86" y2="240.15"/>
		<text class="cls-006" transform="translate(1154.61 236.15)">314,118</text>
	</g>
</g>
<g id="paths">
	<path class="cls-002" d="M791,1129.68c-0.13,1.58,0-262.68,0-262.68" transform="translate(-50.14 -692.85)"/>
	<line class="cls-002" x1="765.69" y1="433.15" x2="765.69" y2="138.93"/>
	<line class="cls-002" x1="785.36" y1="433.15" x2="785.36" y2="28.15"/>
	<line class="cls-002" x1="823.86" y1="433.15" x2="823.86" y2="103.15"/>
	<line class="cls-002" x1="863.86" y1="433.15" x2="863.86" y2="18.15"/>
	<line class="cls-002" x1="882.36" y1="433.15" x2="882.36" y2="72.15"/>
	<line class="cls-002" x1="895.86" y1="433.15" x2="895.86" y2="209.15"/>
	<line class="cls-002" x1="925.53" y1="433.15" x2="925.53" y2="300.15"/>
	<line class="cls-002" x1="946.86" y1="433.15" x2="947.53" y2="151.15"/>
	<line class="cls-002" x1="909.86" y1="433.15" x2="909.86" y2="136.15"/>
	<line class="cls-002" x1="994.36" y1="433.15" x2="994.36" y2="72.15"/>
	<line class="cls-002" x1="1018.36" y1="433.15" x2="1018.36" y2="19.22"/>
	<line class="cls-002" x1="1040.86" y1="433.15" x2="1040.86" y2="160.15"/>
	<line class="cls-002" x1="1078.84" y1="433.15" x2="1076.84" y2="89.15"/>
	<line class="cls-002" x1="1101.12" y1="433.15" x2="1101.12" y2="214.15"/>
	<line class="cls-002" x1="1123.86" y1="433.15" x2="1123.86" y2="114.49"/>
	<line class="cls-002" x1="1180.86" y1="433.15" x2="1180.86" y2="240.15"/>
	<line class="cls-002" x1="963.36" y1="433.15" x2="963.36" y2="108.15"/>
</g>
<g id="paths-2" data-name="paths">
	<path class="cls-007" d="M795,1129.68c-0.13,1.58,0-262.68,0-262.68" transform="translate(-50.14 -692.85)"/>
	<line class="cls-007" x1="769.69" y1="433.15" x2="769.69" y2="138.93"/>
	<line class="cls-007" x1="789.36" y1="433.15" x2="789.36" y2="28.15"/>
	<line class="cls-007" x1="827.86" y1="433.15" x2="827.86" y2="103.15"/>
	<line class="cls-007" x1="867.86" y1="433.15" x2="867.86" y2="18.15"/>
	<line class="cls-007" x1="886.36" y1="433.15" x2="886.36" y2="72.15"/>
	<line class="cls-007" x1="899.86" y1="433.15" x2="899.86" y2="209.15"/>
	<line class="cls-007" x1="929.53" y1="433.15" x2="929.53" y2="300.15"/>
	<line class="cls-007" x1="950.86" y1="433.15" x2="951.53" y2="151.15"/>
	<line class="cls-007" x1="913.86" y1="433.15" x2="913.86" y2="136.15"/>
	<line class="cls-007" x1="998.36" y1="433.15" x2="998.36" y2="72.15"/>
	<line class="cls-007" x1="1022.36" y1="433.15" x2="1022.36" y2="19.22"/>
	<line class="cls-007" x1="1044.86" y1="433.15" x2="1044.86" y2="160.15"/>
	<line class="cls-007" x1="1082.84" y1="433.15" x2="1080.84" y2="89.15"/>
	<line class="cls-007" x1="1105.12" y1="433.15" x2="1105.12" y2="214.15"/>
	<line class="cls-007" x1="1127.86" y1="433.15" x2="1127.86" y2="114.49"/>
	<line class="cls-007" x1="1184.86" y1="433.15" x2="1184.86" y2="240.15"/>
	<line class="cls-002" x1="967.36" y1="433.15" x2="967.36" y2="108.15"/>
</g>
<g id="_03-3" data-name="03">
	<g id="paths-3" data-name="paths">
		<path class="cls-0010" d="M793,1129.68c-0.13,1.58,0-262.68,0-262.68" transform="translate(-50.14 -692.85)"/>
		<line class="cls-0010" x1="767.69" y1="433.15" x2="767.69" y2="138.93"/>
		<line class="cls-0010" x1="787.36" y1="433.15" x2="787.36" y2="28.15"/>
		<line class="cls-0010" x1="825.86" y1="433.15" x2="825.86" y2="103.15"/>
		<line class="cls-0010" x1="865.86" y1="433.15" x2="865.86" y2="18.15"/>
		<line class="cls-0010" x1="884.36" y1="433.15" x2="884.36" y2="72.15"/>
		<line class="cls-0010" x1="897.86" y1="433.15" x2="897.86" y2="209.15"/>
		<line class="cls-0010" x1="927.53" y1="433.15" x2="927.53" y2="300.15"/>
		<line class="cls-0010" x1="948.86" y1="433.15" x2="949.53" y2="151.15"/>
		<line class="cls-0010" x1="911.86" y1="433.15" x2="911.86" y2="136.15"/>
		<line class="cls-0010" x1="996.36" y1="433.15" x2="996.36" y2="72.15"/>
		<line class="cls-0010" x1="1020.36" y1="433.15" x2="1020.36" y2="19.22"/>
		<line class="cls-0010" x1="1042.86" y1="433.15" x2="1042.86" y2="160.15"/>
		<line class="cls-0010" x1="1080.84" y1="433.15" x2="1078.84" y2="89.15"/>
		<line class="cls-0010" x1="1103.12" y1="433.15" x2="1103.12" y2="214.15"/>
		<line class="cls-0010" x1="1125.86" y1="433.15" x2="1125.86" y2="114.49"/>
		<line class="cls-0010" x1="1182.86" y1="433.15" x2="1182.86" y2="240.15"/>
		<line class="cls-0010" x1="965.36" y1="433.15" x2="965.36" y2="108.15"/>
	</g>
	<g id="numbers">
		<text class="cls-006" transform="translate(708.12 167.93)">320,450</text>
		<text class="cls-006" transform="translate(727.65 131.83)">398,657</text>
		<text class="cls-006" transform="translate(760.33 24.14)">2,563,562</text>
		<text class="cls-006" transform="translate(807.97 96.92)">402,582</text>
		<text class="cls-006" transform="translate(838.83 11.72)">2,952,462</text>
		<text class="cls-006" transform="translate(879.87 67.06)">408,258</text>
		<text class="cls-006" transform="translate(897.87 131.83)">398,258</text>
		<text class="cls-008" transform="translate(913.91 295.14)">152,484</text>
		<text class="cls-009" transform="translate(919.01 146.03)">382,446</text>
		<text class="cls-006" transform="translate(962.42 67.06)">411,890</text>
		<text class="cls-006" transform="translate(993.33 11.72)">2,951,890</text>
		<text class="cls-006" transform="translate(1029.42 156.57)">371,890</text>
		<text class="cls-006" transform="translate(1056.82 84.56)">407,776</text>
		<text class="cls-008" transform="translate(1087.7 209.15)">204,225</text>
		<text class="cls-006" transform="translate(1103.87 108.15)">404,118</text>
		<text class="cls-006" transform="translate(1157.61 236.15)">314,118</text>
		<text class="cls-009" transform="translate(937.72 103.15)">402,211</text>
	</g>
</g>
<g id="paths-4" data-name="paths">
	<path class="cls-002" d="M785,1129.68c-0.13,1.58,0-262.68,0-262.68" transform="translate(-50.14 -692.85)"/>
	<line class="cls-002" x1="759.69" y1="433.15" x2="759.69" y2="138.93"/>
	<line class="cls-002" x1="779.36" y1="433.15" x2="779.36" y2="28.15"/>
	<line class="cls-002" x1="817.86" y1="433.15" x2="817.86" y2="103.15"/>
	<line class="cls-002" x1="857.86" y1="433.15" x2="857.86" y2="18.15"/>
	<line class="cls-002" x1="876.36" y1="433.15" x2="876.36" y2="72.15"/>
	<line class="cls-002" x1="889.86" y1="433.15" x2="889.86" y2="209.15"/>
	<line class="cls-002" x1="919.53" y1="433.15" x2="919.53" y2="300.15"/>
	<line class="cls-002" x1="940.86" y1="433.15" x2="941.53" y2="151.15"/>
	<line class="cls-002" x1="903.86" y1="433.15" x2="903.86" y2="136.15"/>
	<line class="cls-002" x1="988.36" y1="433.15" x2="988.36" y2="72.15"/>
	<line class="cls-002" x1="1012.36" y1="433.15" x2="1012.36" y2="19.22"/>
	<line class="cls-002" x1="1034.86" y1="433.15" x2="1034.86" y2="160.15"/>
	<line class="cls-002" x1="1072.84" y1="433.15" x2="1070.84" y2="89.15"/>
	<line class="cls-002" x1="1095.12" y1="433.15" x2="1095.12" y2="214.15"/>
	<line class="cls-002" x1="1117.86" y1="433.15" x2="1117.86" y2="114.49"/>
	<line class="cls-002" x1="1174.86" y1="433.15" x2="1174.86" y2="240.15"/>
	<line class="cls-002" x1="957.36" y1="433.15" x2="957.36" y2="108.15"/>
</g>
<g id="paths-5" data-name="paths">
	<path class="cls-007" d="M789,1129.68c-0.13,1.58,0-262.68,0-262.68" transform="translate(-50.14 -692.85)"/>
	<line class="cls-007" x1="763.69" y1="433.15" x2="763.69" y2="138.93"/>
	<line class="cls-007" x1="783.36" y1="433.15" x2="783.36" y2="28.15"/>
	<line class="cls-007" x1="821.86" y1="433.15" x2="821.86" y2="103.15"/>
	<line class="cls-007" x1="861.86" y1="433.15" x2="861.86" y2="18.15"/>
	<line class="cls-007" x1="880.36" y1="433.15" x2="880.36" y2="72.15"/>
	<line class="cls-007" x1="893.86" y1="433.15" x2="893.86" y2="209.15"/>
	<line class="cls-007" x1="923.53" y1="433.15" x2="923.53" y2="300.15"/>
	<line class="cls-007" x1="944.86" y1="433.15" x2="945.53" y2="151.15"/>
	<line class="cls-007" x1="907.86" y1="433.15" x2="907.86" y2="136.15"/>
	<line class="cls-007" x1="992.36" y1="433.15" x2="992.36" y2="72.15"/>
	<line class="cls-007" x1="1016.36" y1="433.15" x2="1016.36" y2="19.22"/>
	<line class="cls-007" x1="1038.86" y1="433.15" x2="1038.86" y2="160.15"/>
	<line class="cls-007" x1="1076.84" y1="433.15" x2="1074.84" y2="89.15"/>
	<line class="cls-007" x1="1099.13" y1="433.15" x2="1099.13" y2="214.15"/>
	<line class="cls-007" x1="1121.86" y1="433.15" x2="1121.86" y2="114.49"/>
	<line class="cls-007" x1="1178.86" y1="433.15" x2="1178.86" y2="240.15"/>
	<line class="cls-002" x1="961.36" y1="433.15" x2="961.36" y2="108.15"/>
</g>
<g id="paths-6" data-name="paths">
	<path class="cls-0010" d="M787,1129.68c-0.13,1.58,0-262.68,0-262.68" transform="translate(-50.14 -692.85)"/>
	<line class="cls-0010" x1="761.69" y1="433.15" x2="761.69" y2="138.93"/>
	<line class="cls-0010" x1="781.36" y1="433.15" x2="781.36" y2="28.15"/>
	<line class="cls-0010" x1="819.86" y1="433.15" x2="819.86" y2="103.15"/>
	<line class="cls-0010" x1="859.86" y1="433.15" x2="859.86" y2="18.15"/>
	<line class="cls-0010" x1="878.36" y1="433.15" x2="878.36" y2="72.15"/>
	<line class="cls-0010" x1="891.86" y1="433.15" x2="891.86" y2="209.15"/>
	<line class="cls-0010" x1="921.53" y1="433.15" x2="921.53" y2="300.15"/>
	<line class="cls-0010" x1="942.86" y1="433.15" x2="943.53" y2="151.15"/>
	<line class="cls-0010" x1="905.86" y1="433.15" x2="905.86" y2="136.15"/>
	<line class="cls-0010" x1="990.36" y1="433.15" x2="990.36" y2="72.15"/>
	<line class="cls-0010" x1="1014.36" y1="433.15" x2="1014.36" y2="19.22"/>
	<line class="cls-0010" x1="1036.86" y1="433.15" x2="1036.86" y2="160.15"/>
	<line class="cls-0010" x1="1074.84" y1="433.15" x2="1072.84" y2="89.15"/>
	<line class="cls-0010" x1="1097.12" y1="433.15" x2="1097.12" y2="214.15"/>
	<line class="cls-0010" x1="1119.86" y1="433.15" x2="1119.86" y2="114.49"/>
	<line class="cls-0010" x1="1176.86" y1="433.15" x2="1176.86" y2="240.15"/>
	<line class="cls-0010" x1="959.36" y1="433.15" x2="959.36" y2="108.15"/>
</g>
</svg>