<?xml version="1.0" encoding="utf-8"?>
<!-- Generator: Adobe Illustrator 19.2.0, SVG Export Plug-In . SVG Version: 6.00 Build 0)  -->
<svg version="1.1" xmlns="http://www.w3.org/2000/svg" xmlns:xlink="http://www.w3.org/1999/xlink" x="0px" y="0px"
	 viewBox="0 0 1900 1267" style="enable-background:new 0 0 1900 1267;" xml:space="preserve">
<style type="text/css">
	.radial_gradient_02{fill:url(#SVGID_1_);}
	.radial_gradient_03{fill:url(#SVGID_2_);}
	.radial_gradient_04{fill:url(#SVGID_3_);}
	.st0{fill:none;stroke:#0000FF;stroke-width:2;stroke-miterlimit:10;}
	.st1{fill:#0000FF;}
	.st2{font-family:'MyriadPro-Regular';}
	.st3{font-size:18px;}
	.st4{display:none;}
	.st5{display:inline;}
	.st6{fill:#00FFFF;}
	.st7{font-size:3px;}
	.st8{font-size:4px;}
	.st9{font-size:8px;}
	.st10{font-size:12px;}
	.st11{font-size:16px;}
	.st12{font-size:24px;}
	.st13{fill:none;stroke:#00FFFF;stroke-width:2;stroke-miterlimit:10;}
	.st14{font-size:10px;}
	.st15{font-size:7px;}
	.st16{font-size:6px;}
	.st17{fill:none;stroke:#0000FF;stroke-miterlimit:10;}
	.st18{letter-spacing:26;}
	.st19{font-size:2px;}
	.st20{letter-spacing:31;}
	.st21{letter-spacing:35;}
</style>
<radialGradient id="SVGID_1_" cx="0" cy="0" r="1" gradientUnits="userSpaceOnUse">
	<stop  offset="0" style="stop-color:#FFFFFF"/>
	<stop  offset="9.961105e-02" style="stop-color:#EEEEEE;stop-opacity:0.9004"/>
	<stop  offset="0.2969" style="stop-color:#C2C2C2;stop-opacity:0.7031"/>
	<stop  offset="0.5733" style="stop-color:#7A7A7A;stop-opacity:0.4267"/>
	<stop  offset="0.9149" style="stop-color:#191919;stop-opacity:8.505917e-02"/>
	<stop  offset="1" style="stop-color:#000000;stop-opacity:0"/>
</radialGradient>
<radialGradient id="SVGID_2_" cx="0" cy="0" r="1" gradientUnits="userSpaceOnUse">
	<stop  offset="0" style="stop-color:#FFFFFF"/>
	<stop  offset="1.007408e-02" style="stop-color:#FBFBFB;stop-opacity:0.9899"/>
	<stop  offset="0.1748" style="stop-color:#B9B9B9;stop-opacity:0.8252"/>
	<stop  offset="0.337" style="stop-color:#818181;stop-opacity:0.663"/>
	<stop  offset="0.4925" style="stop-color:#535353;stop-opacity:0.5075"/>
	<stop  offset="0.64" style="stop-color:#2F2F2F;stop-opacity:0.36"/>
	<stop  offset="0.7776" style="stop-color:#151515;stop-opacity:0.2224"/>
	<stop  offset="0.9016" style="stop-color:#050505;stop-opacity:9.843576e-02"/>
	<stop  offset="1" style="stop-color:#000000;stop-opacity:0"/>
</radialGradient>
<radialGradient id="SVGID_3_" cx="0" cy="0" r="1" gradientUnits="userSpaceOnUse">
	<stop  offset="0" style="stop-color:#FFFFFF"/>
	<stop  offset="8.506228e-02" style="stop-color:#F6F6F6;stop-opacity:0.9149"/>
	<stop  offset="0.2214" style="stop-color:#DFDFDF;stop-opacity:0.7786"/>
	<stop  offset="0.3919" style="stop-color:#B9B9B9;stop-opacity:0.6081"/>
	<stop  offset="0.59" style="stop-color:#848484;stop-opacity:0.41"/>
	<stop  offset="0.8083" style="stop-color:#414141;stop-opacity:0.1917"/>
	<stop  offset="1" style="stop-color:#000000;stop-opacity:0"/>
</radialGradient>
<g id="treeData_x5F_1st_x5F_row">
	<polyline class="st0" points="3,1000 76,1000 230,1068 467,1068 555,1067.7 694,1045 1077,1048 1165,1067.7 1304,1034.6 1544,1055 
		1644,1048 1822,1055 1900,1045 	"/>
	<text transform="matrix(1 0 0 1 48.0376 960.6838)"><tspan x="0" y="0" class="st1 st2 st3">Juniper</tspan><tspan x="14.1" y="21.6" class="st1 st2 st3">456</tspan></text>
	<text transform="matrix(1 0 0 1 214.5007 1034.0002)"><tspan x="0" y="0" class="st1 st2 st3">Picea</tspan><tspan x="10.5" y="21.6" class="st1 st2 st3">78</tspan></text>
	<text transform="matrix(1 0 0 1 1284.2273 999.9807)"><tspan x="0" y="0" class="st1 st2 st3">Picea</tspan><tspan x="10.5" y="21.6" class="st1 st2 st3">78</tspan></text>
	<text transform="matrix(1 0 0 1 444.9147 1034.0004)"><tspan x="0" y="0" class="st1 st2 st3">Cedar</tspan><tspan x="12.9" y="21.6" class="st1 st2 st3">28</tspan></text>
	<text transform="matrix(1 0 0 1 532.9147 1034.6309)"><tspan x="0" y="0" class="st1 st2 st3">Cedar</tspan><tspan x="12.9" y="21.6" class="st1 st2 st3">56</tspan></text>
	<text transform="matrix(1 0 0 1 1142.9148 1034)"><tspan x="0" y="0" class="st1 st2 st3">Cedar</tspan><tspan x="12.9" y="21.6" class="st1 st2 st3">78</tspan></text>
	<text transform="matrix(1 0 0 1 666.0378 1007.9809)"><tspan x="0" y="0" class="st1 st2 st3">Juniper</tspan><tspan x="14.1" y="21.6" class="st1 st2 st3">490</tspan></text>
	<text transform="matrix(1 0 0 1 1047.8406 1016.3239)"><tspan x="0" y="0" class="st1 st2 st3">Cypress</tspan><tspan x="19.9" y="21.6" class="st1 st2 st3">26</tspan></text>
	<text transform="matrix(1 0 0 1 1514.8406 1023.4996)"><tspan x="0" y="0" class="st1 st2 st3">Cypress</tspan><tspan x="19.9" y="21.6" class="st1 st2 st3">52</tspan></text>
	<text transform="matrix(1 0 0 1 1627.5939 1018.4996)"><tspan x="0" y="0" class="st1 st2 st3">Cedar</tspan><tspan x="12.9" y="21.6" class="st1 st2 st3">90</tspan></text>
	<text transform="matrix(1 0 0 1 1794.0372 1018.4996)"><tspan x="0" y="0" class="st1 st2 st3">Juniper</tspan><tspan x="14.1" y="21.6" class="st1 st2 st3">490</tspan></text>
</g>
<g id="data_x5F_hydroPoles">
	<g id="hydroData_objects" class="st4">
		<g id="hydroObject_x5F_left" class="st5">
			<path class="st1" d="M230,906.8L89,875.6l-6.6-1.5c0,0-20.6-136.9-24.5-143.5l141.6,28.5l1.2,5.7L230,906.8z"/>
			<polygon class="st6" points="230,906.8 85.1,874.2 199.8,758.6 			"/>
		</g>
		<g id="hydroObject_x5F_right" class="st5">
			<polygon class="st6" points="1743.3,804.9 1743.8,804.3 1677.4,713 1767,713 1850.5,781.5 1851.3,782.1 1871.6,832.6 
				1657.8,906.9 			"/>
			<polygon class="st1" points="1871.6,832.6 1657.8,906.9 1743.3,804.9 1850.5,781.5 1851.3,782.1 			"/>
		</g>
	</g>
	<g id="poleCount">
		<g id="_x30_1">
			<g>
				<line class="st0" x1="943" y1="1144" x2="943" y2="926"/>
				<line class="st0" x1="1000" y1="1144" x2="1000" y2="926"/>
			</g>
			<g id="numbers_1_">
				<text transform="matrix(1 0 0 1 946.375 926.875)" class="st1 st2 st7">206</text>
				<text transform="matrix(1 0 0 1 994 926.875)" class="st1 st2 st7">207</text>
			</g>
		</g>
		<g id="_x30_2">
			<g>
				<line class="st0" x1="902" y1="1172" x2="902" y2="914"/>
				<line class="st0" x1="1037" y1="1172" x2="1037" y2="914"/>
			</g>
			<g id="numbers_2_">
				<text transform="matrix(1 0 0 1 907 914.8047)" class="st1 st2 st8">208</text>
				<text transform="matrix(1 0 0 1 1027.9087 914.8047)" class="st1 st2 st8">209</text>
			</g>
		</g>
		<g id="_x30_3">
			<g>
				<line class="st0" x1="840" y1="1227" x2="840" y2="897"/>
				<line class="st0" x1="1101" y1="1227" x2="1101" y2="897"/>
			</g>
			<g id="numbers_3_">
				<text transform="matrix(1 0 0 1 847.189 901.1129)" class="st1 st2 st9">210</text>
				<text transform="matrix(1 0 0 1 1083.7759 901.1129)" class="st1 st2 st9">211</text>
			</g>
		</g>
		<g id="_x30_4">
			<g>
				<line class="st0" x1="739" y1="1295" x2="739" y2="869"/>
				<line class="st0" x1="1202" y1="1295" x2="1202" y2="869"/>
			</g>
			<g id="numbers_4_">
				<text transform="matrix(1 0 0 1 750.2422 874.0803)" class="st1 st2 st10">212</text>
				<text transform="matrix(1 0 0 1 1173.8016 874.0806)" class="st1 st2 st10">213</text>
			</g>
		</g>
		<g id="_x30_5">
			<g>
				<line class="st0" x1="541" y1="1447" x2="541" y2="814"/>
				<line class="st0" x1="1400" y1="1447" x2="1400" y2="814"/>
			</g>
			<g id="numbers_5_">
				<text transform="matrix(1 0 0 1 570.9771 823)" class="st1 st2 st11">214</text>
				<text transform="matrix(1 0 0 1 1348.5453 827)" class="st1 st2 st11">215</text>
			</g>
		</g>
		<g id="_x30_6">
			<g>
				<line class="st0" x1="-23" y1="1873" x2="-23" y2="651"/>
				<line class="st0" x1="1954" y1="1873" x2="1954" y2="651"/>
			</g>
			<g id="numbers_6_">
				<text transform="matrix(1 0 0 1 57.8818 677.8181)" class="st1 st2 st12">2016</text>
				<text transform="matrix(1 0 0 1 1822 677.8181)" class="st1 st2 st12">2017</text>
			</g>
		</g>
	</g>
	<g id="hydroWires">
		<g id="wire_x5F_left">
			<g id="_x30_5_3_">
				<text transform="matrix(1 0 0 1 279.1768 1012.0986)" class="st6 st2 st12">784,949,233</text>
				<path id="_x30_5_1_" class="st13" d="M546.9,899.4c0,0-322.6,240.2-544-106.3"/>
			</g>
			<g id="_x30_4_3_">
				<path id="_x30_4_1_" class="st13" d="M741.8,933.6c0,0-117.5,95.4-194.9-34.2"/>
				<text transform="matrix(1 0 0 1 639.9829 988.6045)" class="st6 st2 st3">299,948,59</text>
			</g>
			<g id="_x30_3_3_">
				<path id="_x30_3_1_" class="st13" d="M840.4,948.7c0,0-42.3,86.5-98.5-15.1"/>
				<text transform="matrix(1 0 0 1 798.3408 994.2871)" class="st6 st2 st14">104,966</text>
			</g>
			<g id="_x30_2_3_">
				<text transform="matrix(1 0 0 1 886.7891 988.8594)" class="st6 st2 st15">63, 968</text>
				<path id="_x30_2_1_" class="st13" d="M903.4,958.5c0,0-29.4,60.6-63-9.8"/>
			</g>
			<g id="_x30_1_3_">
				<text transform="matrix(1 0 0 1 935.6431 985.3467)" class="st6 st2 st16">47, 868</text>
				<path id="_x30_1_1_" class="st13" d="M941.5,961.3c-6.5,6.5-15,36.8-38.1-2.8"/>
			</g>
		</g>
		<g id="wire_x5F_right">
			<g id="_x30_5_4_">
				<text transform="matrix(1 0 0 1 1546.4688 1013.7246)" class="st6 st2 st12">678,340,991</text>
				<path id="_x30_5_2_" class="st13" d="M1398.5,898.4c0,0,322.6,240.2,544-106.3"/>
			</g>
			<g id="_x30_4_4_">
				<path id="_x30_4_2_" class="st13" d="M1203.6,932.6c0,0,117.5,95.4,194.9-34.2"/>
				<text transform="matrix(1 0 0 1 1273.3291 988.8594)" class="st6 st2 st3">74,124</text>
			</g>
			<g id="_x30_3_4_">
				<path id="_x30_3_2_" class="st13" d="M1105.1,947.7c0,0,42.3,86.5,98.5-15.1"/>
				<text transform="matrix(1 0 0 1 1136.8154 993.8291)" class="st6 st2 st14">10,456</text>
			</g>
			<g id="_x30_2_4_">
				<path id="_x30_2_2_" class="st13" d="M1042.1,957.5c0,0,29.4,60.6,63-9.8"/>
				<text transform="matrix(1 0 0 1 1059.2363 991.0446)" class="st6 st2 st15">82,953</text>
			</g>
			<g id="_x30_1_4_">
				<path id="_x30_1_2_" class="st13" d="M1004,960.3c6.5,6.5,15,36.8,38.1-2.8"/>
				<text transform="matrix(1 0 0 1 1006.8477 985.3467)" class="st6 st2 st16">38,553</text>
			</g>
		</g>
	</g>
</g>
<g id="data_x5F_roadStrip" class="st4">
	<g id="data_record" class="st5">
		<g id="strip">
			<line class="st0" x1="969" y1="1136.1" x2="974.1" y2="1925.5"/>
		</g>
		<g id="markers">
			<line class="st0" x1="972" y1="1519" x2="1005" y2="1519"/>
			<line class="st0" x1="972" y1="1780" x2="1038" y2="1780"/>
			<line class="st17" x1="970" y1="1294.5" x2="989" y2="1294.5"/>
			<line class="st17" x1="970" y1="1228.5" x2="979" y2="1228.5"/>
			<line class="st17" x1="969" y1="1196.5" x2="976" y2="1196.5"/>
			<line class="st17" x1="969" y1="1176.5" x2="974" y2="1176.5"/>
			<line class="st17" x1="969" y1="1165.5" x2="973" y2="1165.5"/>
			<line class="st17" x1="969" y1="1155.5" x2="972" y2="1155.5"/>
			<line class="st17" x1="969" y1="1148.5" x2="972" y2="1148.5"/>
			<line class="st17" x1="969" y1="1143.5" x2="972" y2="1143.5"/>
			<line class="st17" x1="969" y1="1139.5" x2="972" y2="1139.5"/>
		</g>
		<g id="numbers">
			<text transform="matrix(1 0 0 1 1049.8438 1779.0391)" class="st1 st2 st12">3070 </text>
			<text transform="matrix(1 0 0 1 1011.7866 1522.7266)" class="st1 st2" style="font-size:20px;">3069 </text>
			<text transform="matrix(1 0 0 1 988.9995 1302.162)" class="st1 st2 st11">3068 </text>
			<text transform="matrix(1 0 0 1 978.9995 1233.6309)" class="st1 st2 st10">3067 </text>
			<text transform="matrix(1 0 0 1 976.949 1199.7036)" class="st1 st2 st9">3066 </text>
			<text transform="matrix(1 0 0 1 975.1323 1177.9397)"><tspan x="0" y="0" class="st1 st2 st8">3065</tspan><tspan x="8.2" y="0" class="st1 st2 st9 st18">	</tspan><tspan x="36" y="0" class="st1 st2 st9"> </tspan></text>
			<text transform="matrix(1 0 0 1 974.0004 1166.4279)"><tspan x="0" y="0" class="st1 st2 st19">3064</tspan><tspan x="4.1" y="0" class="st1 st2 st19 st20">	</tspan><tspan x="36" y="0" class="st1 st2 st19"> </tspan></text>
			<text transform="matrix(1 0 0 1 972.9657 1155.9807)"><tspan x="0" y="0" class="st1 st2 st19">3063</tspan><tspan x="4.1" y="0" class="st1 st2 st19 st20">	</tspan><tspan x="36" y="0" class="st1 st2 st19"> </tspan></text>
			<text transform="matrix(1 0 0 1 972.3711 1149.2443)"><tspan x="0" y="0" class="st1 st2 st19">3062</tspan><tspan x="4.1" y="0" class="st1 st2 st19 st20">	</tspan><tspan x="36" y="0" class="st1 st2 st19"> </tspan></text>
			<text transform="matrix(1 0 0 1 972.3711 1144.1633)"><tspan x="0" y="0" class="st1 st2 st19">3061</tspan><tspan x="4.1" y="0" class="st1 st2 st19 st20">	</tspan><tspan x="36" y="0" class="st1 st2 st19 st21">	</tspan><tspan x="72" y="0" class="st1 st2 st19"> </tspan></text>
			<text transform="matrix(1 0 0 1 972.371 1140.0002)"><tspan x="0" y="0" class="st1 st2 st19">3060</tspan><tspan x="4.1" y="0" class="st1 st2 st19 st20">	</tspan><tspan x="36" y="0" class="st1 st2 st19 st21">		</tspan><tspan x="108" y="0" class="st1 st2 st19"> </tspan></text>
		</g>
	</g>
	<g id="data_object" class="st5">
		<g>
			<path class="st1" d="M1146,1724.6l-46.9,96.1c18,23.2,39.3,44,59.7,65.6L1146,1724.6z"/>
			<path class="st6" d="M1099.1,1820.7l-0.4,0.9c0,0-76.2,32.3-83.5,35.2l143.8,30.9l-0.1-1.4
				C1138.4,1864.7,1117.1,1843.9,1099.1,1820.7z"/>
		</g>
	</g>
</g>
</svg>
