<svg id="newPhonePoles" xmlns="http://www.w3.org/2000/svg" xmlns:xlink="http://www.w3.org/1999/xlink" viewBox="0 0 2471.87 1746.01">
<g id="poles_wires">
	<defs>
		<style>
			.polesWires1{fill:#ccc;}
			.polesWires2{fill:#999;}
			.polesWires3{fill:#4d4d4d;}
			.polesWires4{fill:#666;}
			.polesWires5{fill:#333;}
			.polesWires6{fill:gray;}
			.polesWires7{fill:none;stroke:#000;stroke-miterlimit:10;stroke-width:2px;}
		</style>
			<symbol id="wirePoleSymbol1" data-name="wire_pole_right" viewBox="0 0 157 16.95">
				<polygon class="polesWires3" points="157 6.59 157 12.27 1.15 16.88 1.07 10.3 0.92 0 157 6.59"/>
				<polygon class="polesWires5" points="157 10.44 157 12.27 1.15 16.95 1.08 10.44 157 10.44"/>
			</symbol>
			<symbol id="wirePoleSymbol2" data-name="wirePoleSymbol2" viewBox="0 0 181 18.65">
				<polygon class="polesWires3" points="180.44 0 180.32 11.35 180.39 18.65 0 13.12 0 6.93 180.44 0"/>
				<polygon class="polesWires5" points="180.25 11.32 180.35 18.64 0 13.12 0 11.32 180.25 11.32"/>
			</symbol>
			<symbol id="wirePoleSymbol3" data-name="New Symbol 8" viewBox="0 0 250.59 1123">
				<g id="poles_right">
					<g id="wire_pole_right">
						<use width="157" height="16.95" transform="translate(145.12 357.3) scale(0.67)" xlink:href="#wirePoleSymbol1"/>
						<use width="157" height="16.95" transform="translate(141.08 222.94) scale(0.67)" xlink:href="#wirePoleSymbol1"/>
						<use width="157" height="16.95" transform="translate(137.05 90.59) scale(0.67 0.61)" xlink:href="#wirePoleSymbol1"/>
						<use width="157" height="16.95" transform="translate(135.41 2.02) scale(0.29 0.34)" xlink:href="#wirePoleSymbol1"/>
					</g>
				</g>
				<g id="pole">
					<polygon class="polesWires1" points="163.52 1123 107.84 1123 120.47 0 135.78 0 163.52 1123"/>
					<polygon class="polesWires2" points="163.52 1123 119.67 1123 126.94 0 135.78 0 163.52 1123"/>
					<polygon class="polesWires3" points="167.84 1123 163.52 1123 135.78 0 135.85 0 167.84 1123"/>
					<polygon class="polesWires4" points="163.52 1123 140.33 1123 131.36 0 135.78 0 163.52 1123"/>
				</g>
				<g id="poles_left">
					<use width="181" height="18.65" transform="translate(0 356.71) scale(0.67)" xlink:href="#wirePoleSymbol2"/>
					<use width="181" height="18.65" transform="translate(0.67 223.06) scale(0.67 0.6)" xlink:href="#wirePoleSymbol2"/>
					<use width="181" height="18.65" transform="translate(2.69 90.37) scale(0.67 0.54)" xlink:href="#wirePoleSymbol2"/>
					<polygon class="polesWires3" points="123.01 1.78 122.97 5.44 122.99 7.79 63.15 6.01 63.15 4.02 123.01 1.78"/>
					<polygon class="polesWires5" points="122.94 5.43 122.98 7.79 63.15 6.01 63.15 5.43 122.94 5.43"/>
				</g>
				<g id="shadows">
					<polygon class="polesWires4" points="121.23 384.4 115.96 385.59 116.32 368.95 121.23 369.06 121.23 384.4"/>
					<polygon class="polesWires4" points="121.93 244.68 117.73 245.49 118.02 234.19 121.93 234.27 121.93 244.68"/>
					<polygon class="polesWires4" points="123.84 108.93 119.22 109.58 119.34 100.33 123.87 100.47 123.84 108.93"/>
					<polygon class="polesWires4" points="122.98 13.62 120.24 14.09 120.43 7.56 122.98 7.6 122.98 13.62"/>
				</g>
				<g id="chains">
					
					<line class="polesWires2" x1="27.55" y1="367" x2="27.55" y2="432.17"/>
					<path class="polesWires3" d="M26.62,369.24h1.86a20.17,20.17,0,0,0-.74,5.75,22.51,22.51,0,0,0,.74,5.75H26.62a25.77,25.77,0,0,0,.64-5.78A22.21,22.21,0,0,0,26.62,369.24Z"/>
					<path class="polesWires3" d="M27.66,367a3.09,3.09,0,0,1,3.1,2.32,0.33,0.33,0,0,1,0,.1c0,1-1.33,2.3-3.11,2.3s-3.33-1.29-3.33-2.3a1.92,1.92,0,0,1,.62-1.24A3.83,3.83,0,0,1,27.66,367Z"/>
					<path class="polesWires2" d="M27.66,367a3.09,3.09,0,0,1,3.1,2.32,3.56,3.56,0,0,1-2.5,1c-1.69,0-3.18-1.18-3.31-2.15A3.83,3.83,0,0,1,27.66,367Z"/>
					<path class="polesWires3" d="M27.66,372.8a3.09,3.09,0,0,1,3.1,2.32,0.33,0.33,0,0,1,0,.1c0,1-1.33,2.3-3.11,2.3s-3.33-1.29-3.33-2.3a1.92,1.92,0,0,1,.62-1.24A3.83,3.83,0,0,1,27.66,372.8Z"/>
					<path class="polesWires2" d="M27.66,372.8a3.09,3.09,0,0,1,3.1,2.32,3.56,3.56,0,0,1-2.5,1c-1.69,0-3.18-1.18-3.31-2.15A3.83,3.83,0,0,1,27.66,372.8Z"/>
					<path class="polesWires3" d="M27.66,378.59a3.09,3.09,0,0,1,3.1,2.32,0.33,0.33,0,0,1,0,.1c0,1-1.33,2.3-3.11,2.3S24.32,382,24.32,381a1.92,1.92,0,0,1,.62-1.24A3.83,3.83,0,0,1,27.66,378.59Z"/>
					<path class="polesWires2" d="M27.66,378.59a3.09,3.09,0,0,1,3.1,2.32,3.56,3.56,0,0,1-2.5,1c-1.69,0-3.18-1.18-3.31-2.15A3.83,3.83,0,0,1,27.66,378.59Z"/>
					<path class="polesWires3" d="M26.62,385.53h1.86a20.17,20.17,0,0,0-.74,5.75,22.51,22.51,0,0,0,.74,5.75H26.62a25.77,25.77,0,0,0,.64-5.78A22.21,22.21,0,0,0,26.62,385.53Z"/>
					<path class="polesWires3" d="M27.66,383.3a3.09,3.09,0,0,1,3.1,2.32,0.33,0.33,0,0,1,0,.1c0,1-1.33,2.3-3.11,2.3s-3.33-1.29-3.33-2.3a1.92,1.92,0,0,1,.62-1.24A3.83,3.83,0,0,1,27.66,383.3Z"/>
					<path class="polesWires2" d="M27.66,383.3a3.09,3.09,0,0,1,3.1,2.32,3.56,3.56,0,0,1-2.5,1c-1.69,0-3.18-1.18-3.31-2.15A3.83,3.83,0,0,1,27.66,383.3Z"/>
					<path class="polesWires3" d="M27.66,389.09a3.09,3.09,0,0,1,3.1,2.32,0.33,0.33,0,0,1,0,.1c0,1-1.33,2.3-3.11,2.3s-3.33-1.29-3.33-2.3a1.92,1.92,0,0,1,.62-1.24A3.83,3.83,0,0,1,27.66,389.09Z"/>
					<path class="polesWires2" d="M27.66,389.09a3.09,3.09,0,0,1,3.1,2.32,3.56,3.56,0,0,1-2.5,1c-1.69,0-3.18-1.18-3.31-2.15A3.83,3.83,0,0,1,27.66,389.09Z"/>
					<path class="polesWires3" d="M27.66,394.88a3.09,3.09,0,0,1,3.1,2.32,0.32,0.32,0,0,1,0,.1c0,1-1.33,2.3-3.11,2.3s-3.33-1.29-3.33-2.3a1.92,1.92,0,0,1,.62-1.24A3.83,3.83,0,0,1,27.66,394.88Z"/>
					<path class="polesWires2" d="M27.66,394.88a3.09,3.09,0,0,1,3.1,2.32,3.56,3.56,0,0,1-2.5,1c-1.69,0-3.18-1.18-3.31-2.15A3.83,3.83,0,0,1,27.66,394.88Z"/>
					<path class="polesWires3" d="M26.62,401.82h1.86a20.17,20.17,0,0,0-.74,5.75,22.51,22.51,0,0,0,.74,5.75H26.62a25.76,25.76,0,0,0,.64-5.78A22.21,22.21,0,0,0,26.62,401.82Z"/>
					<path class="polesWires3" d="M27.66,399.59a3.09,3.09,0,0,1,3.1,2.32,0.33,0.33,0,0,1,0,.1c0,1-1.33,2.3-3.11,2.3S24.32,403,24.32,402a1.92,1.92,0,0,1,.62-1.24A3.83,3.83,0,0,1,27.66,399.59Z"/>
					<path class="polesWires2" d="M27.66,399.59a3.09,3.09,0,0,1,3.1,2.32,3.56,3.56,0,0,1-2.5,1c-1.69,0-3.18-1.18-3.31-2.15A3.83,3.83,0,0,1,27.66,399.59Z"/>
					<path class="polesWires3" d="M27.66,405.38a3.09,3.09,0,0,1,3.1,2.32,0.32,0.32,0,0,1,0,.1c0,1-1.33,2.3-3.11,2.3s-3.33-1.29-3.33-2.3a1.92,1.92,0,0,1,.62-1.24A3.83,3.83,0,0,1,27.66,405.38Z"/>
					<path class="polesWires2" d="M27.66,405.38a3.09,3.09,0,0,1,3.1,2.32,3.56,3.56,0,0,1-2.5,1c-1.69,0-3.18-1.18-3.31-2.15A3.83,3.83,0,0,1,27.66,405.38Z"/>
					<path class="polesWires3" d="M27.66,411.17a3.09,3.09,0,0,1,3.1,2.32,0.32,0.32,0,0,1,0,.1c0,1-1.33,2.3-3.11,2.3s-3.33-1.29-3.33-2.3a1.92,1.92,0,0,1,.62-1.24A3.83,3.83,0,0,1,27.66,411.17Z"/>
					<path class="polesWires2" d="M27.66,411.17a3.09,3.09,0,0,1,3.1,2.32,3.56,3.56,0,0,1-2.5,1c-1.69,0-3.18-1.18-3.31-2.15A3.83,3.83,0,0,1,27.66,411.17Z"/>
					<path class="polesWires3" d="M26.62,418.11h1.86a20.17,20.17,0,0,0-.74,5.75,22.51,22.51,0,0,0,.74,5.75H26.62a25.76,25.76,0,0,0,.64-5.78A22.21,22.21,0,0,0,26.62,418.11Z"/>
					<path class="polesWires3" d="M27.66,415.88a3.09,3.09,0,0,1,3.1,2.32,0.32,0.32,0,0,1,0,.1c0,1-1.33,2.3-3.11,2.3s-3.33-1.29-3.33-2.3a1.92,1.92,0,0,1,.62-1.24A3.83,3.83,0,0,1,27.66,415.88Z"/>
					<path class="polesWires2" d="M27.66,415.88a3.09,3.09,0,0,1,3.1,2.32,3.56,3.56,0,0,1-2.5,1c-1.69,0-3.18-1.18-3.31-2.15A3.83,3.83,0,0,1,27.66,415.88Z"/>
					<path class="polesWires3" d="M27.66,421.67a3.09,3.09,0,0,1,3.1,2.32,0.32,0.32,0,0,1,0,.1c0,1-1.33,2.3-3.11,2.3s-3.33-1.29-3.33-2.3a1.92,1.92,0,0,1,.62-1.24A3.83,3.83,0,0,1,27.66,421.67Z"/>
					<path class="polesWires2" d="M27.66,421.67a3.09,3.09,0,0,1,3.1,2.32,3.56,3.56,0,0,1-2.5,1c-1.69,0-3.18-1.18-3.31-2.15A3.83,3.83,0,0,1,27.66,421.67Z"/>
					<path class="polesWires3" d="M27.66,427.46a3.09,3.09,0,0,1,3.1,2.32,0.32,0.32,0,0,1,0,.1c0,1-1.33,2.3-3.11,2.3s-3.33-1.29-3.33-2.3a1.92,1.92,0,0,1,.62-1.24A3.83,3.83,0,0,1,27.66,427.46Z"/>
					<path class="polesWires2" d="M27.66,427.46a3.09,3.09,0,0,1,3.1,2.32,3.56,3.56,0,0,1-2.5,1c-1.69,0-3.18-1.18-3.31-2.15A3.83,3.83,0,0,1,27.66,427.46Z"/>
					<line class="polesWires2" x1="29.56" y1="231.97" x2="29.56" y2="297.13"/>
					<path class="polesWires3" d="M28.63,234.2h1.86a20.17,20.17,0,0,0-.74,5.75,22.51,22.51,0,0,0,.74,5.75H28.63a25.74,25.74,0,0,0,.64-5.78A22.2,22.2,0,0,0,28.63,234.2Z"/>
					<path class="polesWires3" d="M29.67,232a3.09,3.09,0,0,1,3.1,2.32,0.33,0.33,0,0,1,0,.1c0,1-1.33,2.3-3.11,2.3s-3.33-1.29-3.33-2.3a1.92,1.92,0,0,1,.62-1.24A3.83,3.83,0,0,1,29.67,232Z"/>
					<path class="polesWires2" d="M29.67,232a3.09,3.09,0,0,1,3.1,2.32,3.57,3.57,0,0,1-2.5,1c-1.69,0-3.18-1.18-3.31-2.15A3.83,3.83,0,0,1,29.67,232Z"/>
					<path class="polesWires3" d="M29.67,237.76a3.09,3.09,0,0,1,3.1,2.32,0.32,0.32,0,0,1,0,.1c0,1-1.33,2.3-3.11,2.3s-3.33-1.29-3.33-2.3a1.92,1.92,0,0,1,.62-1.24A3.83,3.83,0,0,1,29.67,237.76Z"/>
					<path class="polesWires2" d="M29.67,237.76a3.09,3.09,0,0,1,3.1,2.32,3.57,3.57,0,0,1-2.5,1c-1.69,0-3.18-1.18-3.31-2.15A3.83,3.83,0,0,1,29.67,237.76Z"/>
					<path class="polesWires3" d="M29.67,243.55a3.09,3.09,0,0,1,3.1,2.32,0.32,0.32,0,0,1,0,.1c0,1-1.33,2.3-3.11,2.3S26.34,247,26.34,246a1.92,1.92,0,0,1,.62-1.24A3.83,3.83,0,0,1,29.67,243.55Z"/>
					<path class="polesWires2" d="M29.67,243.55a3.09,3.09,0,0,1,3.1,2.32,3.57,3.57,0,0,1-2.5,1c-1.69,0-3.18-1.18-3.31-2.15A3.83,3.83,0,0,1,29.67,243.55Z"/>
					<path class="polesWires3" d="M28.63,250.49h1.86a20.17,20.17,0,0,0-.74,5.75,22.51,22.51,0,0,0,.74,5.75H28.63a25.74,25.74,0,0,0,.64-5.78A22.2,22.2,0,0,0,28.63,250.49Z"/>
					<path class="polesWires3" d="M29.67,248.26a3.09,3.09,0,0,1,3.1,2.32,0.32,0.32,0,0,1,0,.1c0,1-1.33,2.3-3.11,2.3s-3.33-1.29-3.33-2.3a1.92,1.92,0,0,1,.62-1.24A3.83,3.83,0,0,1,29.67,248.26Z"/>
					<path class="polesWires2" d="M29.67,248.26a3.09,3.09,0,0,1,3.1,2.32,3.57,3.57,0,0,1-2.5,1c-1.69,0-3.18-1.18-3.31-2.15A3.83,3.83,0,0,1,29.67,248.26Z"/>
					<path class="polesWires3" d="M29.67,254a3.09,3.09,0,0,1,3.1,2.32,0.32,0.32,0,0,1,0,.1c0,1-1.33,2.3-3.11,2.3s-3.33-1.29-3.33-2.3a1.92,1.92,0,0,1,.62-1.24A3.83,3.83,0,0,1,29.67,254Z"/>
					<path class="polesWires2" d="M29.67,254a3.09,3.09,0,0,1,3.1,2.32,3.57,3.57,0,0,1-2.5,1c-1.69,0-3.18-1.18-3.31-2.15A3.83,3.83,0,0,1,29.67,254Z"/>
					<path class="polesWires3" d="M29.67,259.84a3.09,3.09,0,0,1,3.1,2.32,0.32,0.32,0,0,1,0,.1c0,1-1.33,2.3-3.11,2.3s-3.33-1.29-3.33-2.3A1.92,1.92,0,0,1,27,261,3.83,3.83,0,0,1,29.67,259.84Z"/>
					<path class="polesWires2" d="M29.67,259.84a3.09,3.09,0,0,1,3.1,2.32,3.56,3.56,0,0,1-2.5,1c-1.69,0-3.18-1.18-3.31-2.15A3.83,3.83,0,0,1,29.67,259.84Z"/>
					<path class="polesWires3" d="M28.63,266.78h1.86a20.17,20.17,0,0,0-.74,5.75,22.51,22.51,0,0,0,.74,5.75H28.63a25.74,25.74,0,0,0,.64-5.78A22.2,22.2,0,0,0,28.63,266.78Z"/>
					<path class="polesWires3" d="M29.67,264.55a3.09,3.09,0,0,1,3.1,2.32,0.32,0.32,0,0,1,0,.1c0,1-1.33,2.3-3.11,2.3S26.34,268,26.34,267a1.92,1.92,0,0,1,.62-1.24A3.83,3.83,0,0,1,29.67,264.55Z"/>
					<path class="polesWires2" d="M29.67,264.55a3.09,3.09,0,0,1,3.1,2.32,3.56,3.56,0,0,1-2.5,1c-1.69,0-3.18-1.18-3.31-2.15A3.83,3.83,0,0,1,29.67,264.55Z"/>
					<path class="polesWires3" d="M29.67,270.34a3.09,3.09,0,0,1,3.1,2.32,0.32,0.32,0,0,1,0,.1c0,1-1.33,2.3-3.11,2.3s-3.33-1.29-3.33-2.3a1.92,1.92,0,0,1,.62-1.24A3.83,3.83,0,0,1,29.67,270.34Z"/>
					<path class="polesWires2" d="M29.67,270.34a3.09,3.09,0,0,1,3.1,2.32,3.56,3.56,0,0,1-2.5,1c-1.69,0-3.18-1.18-3.31-2.15A3.83,3.83,0,0,1,29.67,270.34Z"/>
					<path class="polesWires3" d="M29.67,276.13a3.09,3.09,0,0,1,3.1,2.32,0.32,0.32,0,0,1,0,.1c0,1-1.33,2.3-3.11,2.3s-3.33-1.29-3.33-2.3a1.92,1.92,0,0,1,.62-1.24A3.83,3.83,0,0,1,29.67,276.13Z"/>
					<path class="polesWires2" d="M29.67,276.13a3.09,3.09,0,0,1,3.1,2.32,3.56,3.56,0,0,1-2.5,1c-1.69,0-3.18-1.18-3.31-2.15A3.83,3.83,0,0,1,29.67,276.13Z"/>
					<path class="polesWires3" d="M28.63,283.08h1.86a20.17,20.17,0,0,0-.74,5.75,22.51,22.51,0,0,0,.74,5.75H28.63a25.74,25.74,0,0,0,.64-5.78A22.2,22.2,0,0,0,28.63,283.08Z"/>
					<path class="polesWires3" d="M29.67,280.84a3.09,3.09,0,0,1,3.1,2.32,0.32,0.32,0,0,1,0,.1c0,1-1.33,2.3-3.11,2.3s-3.33-1.29-3.33-2.3A1.92,1.92,0,0,1,27,282,3.83,3.83,0,0,1,29.67,280.84Z"/>
					<path class="polesWires2" d="M29.67,280.84a3.09,3.09,0,0,1,3.1,2.32,3.56,3.56,0,0,1-2.5,1c-1.69,0-3.18-1.18-3.31-2.15A3.83,3.83,0,0,1,29.67,280.84Z"/>
					<path class="polesWires3" d="M29.67,286.63a3.09,3.09,0,0,1,3.1,2.32,0.32,0.32,0,0,1,0,.1c0,1-1.33,2.3-3.11,2.3S26.34,290,26.34,289a1.92,1.92,0,0,1,.62-1.24A3.83,3.83,0,0,1,29.67,286.63Z"/>
					<path class="polesWires2" d="M29.67,286.63a3.09,3.09,0,0,1,3.1,2.32,3.56,3.56,0,0,1-2.5,1c-1.69,0-3.18-1.18-3.31-2.15A3.83,3.83,0,0,1,29.67,286.63Z"/>
					<path class="polesWires3" d="M29.67,292.42a3.09,3.09,0,0,1,3.1,2.32,0.32,0.32,0,0,1,0,.1c0,1-1.33,2.3-3.11,2.3s-3.33-1.29-3.33-2.3A1.92,1.92,0,0,1,27,293.6,3.83,3.83,0,0,1,29.67,292.42Z"/>
					<path class="polesWires2" d="M29.67,292.42a3.09,3.09,0,0,1,3.1,2.32,3.56,3.56,0,0,1-2.5,1c-1.69,0-3.18-1.18-3.31-2.15A3.83,3.83,0,0,1,29.67,292.42Z"/>
					<line class="polesWires2" x1="29.56" y1="98.27" x2="29.56" y2="163.44"/>
					<path class="polesWires3" d="M28.63,100.51h1.86a20.17,20.17,0,0,0-.74,5.75,22.51,22.51,0,0,0,.74,5.75H28.63a25.74,25.74,0,0,0,.64-5.78A22.2,22.2,0,0,0,28.63,100.51Z"/>
					<path class="polesWires3" d="M29.67,98.27a3.09,3.09,0,0,1,3.1,2.32,0.32,0.32,0,0,1,0,.1c0,1-1.33,2.3-3.11,2.3s-3.33-1.29-3.33-2.3A1.92,1.92,0,0,1,27,99.45,3.83,3.83,0,0,1,29.67,98.27Z"/>
					<path class="polesWires2" d="M29.67,98.27a3.09,3.09,0,0,1,3.1,2.32,3.56,3.56,0,0,1-2.5,1c-1.69,0-3.18-1.18-3.31-2.15A3.83,3.83,0,0,1,29.67,98.27Z"/>
					<path class="polesWires3" d="M29.67,104.06a3.09,3.09,0,0,1,3.1,2.32,0.32,0.32,0,0,1,0,.1c0,1-1.33,2.3-3.11,2.3s-3.33-1.29-3.33-2.3a1.92,1.92,0,0,1,.62-1.24A3.83,3.83,0,0,1,29.67,104.06Z"/>
					<path class="polesWires2" d="M29.67,104.06a3.09,3.09,0,0,1,3.1,2.32,3.56,3.56,0,0,1-2.5,1c-1.69,0-3.18-1.18-3.31-2.15A3.83,3.83,0,0,1,29.67,104.06Z"/>
					<path class="polesWires3" d="M29.67,109.85a3.09,3.09,0,0,1,3.1,2.32,0.32,0.32,0,0,1,0,.1c0,1-1.33,2.3-3.11,2.3s-3.33-1.29-3.33-2.3A1.92,1.92,0,0,1,27,111,3.83,3.83,0,0,1,29.67,109.85Z"/>
					<path class="polesWires2" d="M29.67,109.85a3.09,3.09,0,0,1,3.1,2.32,3.56,3.56,0,0,1-2.5,1c-1.69,0-3.18-1.18-3.31-2.15A3.83,3.83,0,0,1,29.67,109.85Z"/>
					<path class="polesWires3" d="M28.63,116.8h1.86a20.17,20.17,0,0,0-.74,5.75,22.51,22.51,0,0,0,.74,5.75H28.63a25.74,25.74,0,0,0,.64-5.78A22.2,22.2,0,0,0,28.63,116.8Z"/>
					<path class="polesWires3" d="M29.67,114.56a3.09,3.09,0,0,1,3.1,2.32,0.32,0.32,0,0,1,0,.1c0,1-1.33,2.3-3.11,2.3S26.34,118,26.34,117a1.92,1.92,0,0,1,.62-1.24A3.83,3.83,0,0,1,29.67,114.56Z"/>
					<path class="polesWires2" d="M29.67,114.56a3.09,3.09,0,0,1,3.1,2.32,3.56,3.56,0,0,1-2.5,1c-1.69,0-3.18-1.18-3.31-2.15A3.83,3.83,0,0,1,29.67,114.56Z"/>
					<path class="polesWires3" d="M29.67,120.35a3.09,3.09,0,0,1,3.1,2.32,0.33,0.33,0,0,1,0,.1c0,1-1.33,2.3-3.11,2.3s-3.33-1.29-3.33-2.3a1.92,1.92,0,0,1,.62-1.24A3.83,3.83,0,0,1,29.67,120.35Z"/>
					<path class="polesWires2" d="M29.67,120.35a3.09,3.09,0,0,1,3.1,2.32,3.56,3.56,0,0,1-2.5,1c-1.69,0-3.18-1.18-3.31-2.15A3.83,3.83,0,0,1,29.67,120.35Z"/>
					<path class="polesWires3" d="M29.67,126.15a3.09,3.09,0,0,1,3.1,2.32,0.33,0.33,0,0,1,0,.1c0,1-1.33,2.3-3.11,2.3s-3.33-1.29-3.33-2.3a1.92,1.92,0,0,1,.62-1.24A3.83,3.83,0,0,1,29.67,126.15Z"/>
					<path class="polesWires2" d="M29.67,126.15a3.09,3.09,0,0,1,3.1,2.32,3.56,3.56,0,0,1-2.5,1c-1.69,0-3.18-1.18-3.31-2.15A3.83,3.83,0,0,1,29.67,126.15Z"/>
					<path class="polesWires3" d="M28.63,133.09h1.86a20.17,20.17,0,0,0-.74,5.75,22.51,22.51,0,0,0,.74,5.75H28.63a25.75,25.75,0,0,0,.64-5.78A22.2,22.2,0,0,0,28.63,133.09Z"/>
					<path class="polesWires3" d="M29.67,130.86a3.09,3.09,0,0,1,3.1,2.32,0.33,0.33,0,0,1,0,.1c0,1-1.33,2.3-3.11,2.3s-3.33-1.29-3.33-2.3A1.92,1.92,0,0,1,27,132,3.83,3.83,0,0,1,29.67,130.86Z"/>
					<path class="polesWires2" d="M29.67,130.86a3.09,3.09,0,0,1,3.1,2.32,3.56,3.56,0,0,1-2.5,1c-1.69,0-3.18-1.18-3.31-2.15A3.83,3.83,0,0,1,29.67,130.86Z"/>
					<path class="polesWires3" d="M29.67,136.65a3.09,3.09,0,0,1,3.1,2.32,0.33,0.33,0,0,1,0,.1c0,1-1.33,2.3-3.11,2.3s-3.33-1.29-3.33-2.3a1.92,1.92,0,0,1,.62-1.24A3.83,3.83,0,0,1,29.67,136.65Z"/>
					<path class="polesWires2" d="M29.67,136.65a3.09,3.09,0,0,1,3.1,2.32,3.56,3.56,0,0,1-2.5,1c-1.69,0-3.18-1.18-3.31-2.15A3.83,3.83,0,0,1,29.67,136.65Z"/>
					<path class="polesWires3" d="M29.67,142.44a3.09,3.09,0,0,1,3.1,2.32,0.33,0.33,0,0,1,0,.1c0,1-1.33,2.3-3.11,2.3s-3.33-1.29-3.33-2.3a1.92,1.92,0,0,1,.62-1.24A3.83,3.83,0,0,1,29.67,142.44Z"/>
					<path class="polesWires2" d="M29.67,142.44a3.09,3.09,0,0,1,3.1,2.32,3.56,3.56,0,0,1-2.5,1c-1.69,0-3.18-1.18-3.31-2.15A3.83,3.83,0,0,1,29.67,142.44Z"/>
					<path class="polesWires3" d="M28.63,149.38h1.86a20.17,20.17,0,0,0-.74,5.75,22.51,22.51,0,0,0,.74,5.75H28.63a25.75,25.75,0,0,0,.64-5.78A22.2,22.2,0,0,0,28.63,149.38Z"/>
					<path class="polesWires3" d="M29.67,147.15a3.09,3.09,0,0,1,3.1,2.32,0.33,0.33,0,0,1,0,.1c0,1-1.33,2.3-3.11,2.3s-3.33-1.29-3.33-2.3a1.92,1.92,0,0,1,.62-1.24A3.83,3.83,0,0,1,29.67,147.15Z"/>
					<path class="polesWires2" d="M29.67,147.15a3.09,3.09,0,0,1,3.1,2.32,3.56,3.56,0,0,1-2.5,1c-1.69,0-3.18-1.18-3.31-2.15A3.83,3.83,0,0,1,29.67,147.15Z"/>
					<path class="polesWires3" d="M29.67,152.94a3.09,3.09,0,0,1,3.1,2.32,0.33,0.33,0,0,1,0,.1c0,1-1.33,2.3-3.11,2.3s-3.33-1.29-3.33-2.3a1.92,1.92,0,0,1,.62-1.24A3.83,3.83,0,0,1,29.67,152.94Z"/>
					<path class="polesWires2" d="M29.67,152.94a3.09,3.09,0,0,1,3.1,2.32,3.57,3.57,0,0,1-2.5,1c-1.69,0-3.18-1.18-3.31-2.15A3.83,3.83,0,0,1,29.67,152.94Z"/>
					<path class="polesWires3" d="M29.67,158.73a3.09,3.09,0,0,1,3.1,2.32,0.32,0.32,0,0,1,0,.1c0,1-1.33,2.3-3.11,2.3s-3.33-1.29-3.33-2.3a1.92,1.92,0,0,1,.62-1.24A3.83,3.83,0,0,1,29.67,158.73Z"/>
					<path class="polesWires2" d="M29.67,158.73a3.09,3.09,0,0,1,3.1,2.32,3.57,3.57,0,0,1-2.5,1c-1.69,0-3.18-1.18-3.31-2.15A3.83,3.83,0,0,1,29.67,158.73Z"/>
					<line class="polesWires2" x1="224.06" y1="98.94" x2="224.06" y2="163.44"/>
					<path class="polesWires3" d="M223.13,101.15H225a19.78,19.78,0,0,0-.74,5.69,22.07,22.07,0,0,0,.74,5.69h-1.86a25.25,25.25,0,0,0,.64-5.72A21.77,21.77,0,0,0,223.13,101.15Z"/>
					<path class="polesWires6" d="M223.95,103.6a3.08,3.08,0,0,1-3.1-2.29,0.3,0.3,0,0,1,0-.1c0-1,1.33-2.27,3.11-2.27s3.33,1.28,3.33,2.27a1.89,1.89,0,0,1-.62,1.22A3.85,3.85,0,0,1,223.95,103.6Z"/>
					<path class="polesWires3" d="M223.95,103.6a3.08,3.08,0,0,1-3.1-2.29,3.58,3.58,0,0,1,2.5-1c1.69,0,3.18,1.17,3.31,2.13A3.85,3.85,0,0,1,223.95,103.6Z"/>
					<path class="polesWires6" d="M223.95,109.34a3.08,3.08,0,0,1-3.1-2.29,0.3,0.3,0,0,1,0-.1c0-1,1.33-2.27,3.11-2.27s3.33,1.28,3.33,2.27a1.89,1.89,0,0,1-.62,1.22A3.85,3.85,0,0,1,223.95,109.34Z"/>
					<path class="polesWires3" d="M223.95,109.34a3.08,3.08,0,0,1-3.1-2.29,3.58,3.58,0,0,1,2.5-1c1.69,0,3.18,1.17,3.31,2.13A3.85,3.85,0,0,1,223.95,109.34Z"/>
					<path class="polesWires6" d="M223.95,115.07a3.08,3.08,0,0,1-3.1-2.29,0.3,0.3,0,0,1,0-.1c0-1,1.33-2.27,3.11-2.27s3.33,1.28,3.33,2.27a1.89,1.89,0,0,1-.62,1.22A3.85,3.85,0,0,1,223.95,115.07Z"/>
					<path class="polesWires3" d="M223.95,115.07a3.08,3.08,0,0,1-3.1-2.29,3.58,3.58,0,0,1,2.5-1c1.69,0,3.18,1.17,3.31,2.13A3.85,3.85,0,0,1,223.95,115.07Z"/>
					<path class="polesWires3" d="M223.13,117.28H225a19.77,19.77,0,0,0-.74,5.69,22.07,22.07,0,0,0,.74,5.69h-1.86a25.25,25.25,0,0,0,.64-5.72A21.77,21.77,0,0,0,223.13,117.28Z"/>
					<path class="polesWires6" d="M223.95,119.73a3.08,3.08,0,0,1-3.1-2.29,0.3,0.3,0,0,1,0-.1c0-1,1.33-2.27,3.11-2.27s3.33,1.28,3.33,2.27a1.89,1.89,0,0,1-.62,1.22A3.85,3.85,0,0,1,223.95,119.73Z"/>
					<path class="polesWires3" d="M223.95,119.73a3.08,3.08,0,0,1-3.1-2.29,3.58,3.58,0,0,1,2.5-1c1.69,0,3.18,1.17,3.31,2.13A3.85,3.85,0,0,1,223.95,119.73Z"/>
					<path class="polesWires6" d="M223.95,125.46a3.08,3.08,0,0,1-3.1-2.29,0.3,0.3,0,0,1,0-.1c0-1,1.33-2.27,3.11-2.27s3.33,1.28,3.33,2.27a1.89,1.89,0,0,1-.62,1.22A3.85,3.85,0,0,1,223.95,125.46Z"/>
					<path class="polesWires3" d="M223.95,125.46a3.08,3.08,0,0,1-3.1-2.29,3.58,3.58,0,0,1,2.5-1c1.69,0,3.18,1.17,3.31,2.13A3.85,3.85,0,0,1,223.95,125.46Z"/>
					<path class="polesWires6" d="M223.95,131.19a3.08,3.08,0,0,1-3.1-2.29,0.3,0.3,0,0,1,0-.1c0-1,1.33-2.27,3.11-2.27s3.33,1.28,3.33,2.27a1.89,1.89,0,0,1-.62,1.22A3.85,3.85,0,0,1,223.95,131.19Z"/>
					<path class="polesWires3" d="M223.95,131.19a3.08,3.08,0,0,1-3.1-2.29,3.58,3.58,0,0,1,2.5-1c1.69,0,3.18,1.17,3.31,2.13A3.85,3.85,0,0,1,223.95,131.19Z"/>
					<path class="polesWires3" d="M223.13,133.4H225a19.77,19.77,0,0,0-.74,5.69,22.07,22.07,0,0,0,.74,5.69h-1.86a25.25,25.25,0,0,0,.64-5.72A21.77,21.77,0,0,0,223.13,133.4Z"/>
					<path class="polesWires6" d="M223.95,135.85a3.08,3.08,0,0,1-3.1-2.29,0.3,0.3,0,0,1,0-.1c0-1,1.33-2.27,3.11-2.27s3.33,1.28,3.33,2.27a1.89,1.89,0,0,1-.62,1.22A3.85,3.85,0,0,1,223.95,135.85Z"/>
					<path class="polesWires3" d="M223.95,135.85a3.08,3.08,0,0,1-3.1-2.29,3.58,3.58,0,0,1,2.5-1c1.69,0,3.18,1.17,3.31,2.13A3.85,3.85,0,0,1,223.95,135.85Z"/>
					<path class="polesWires6" d="M223.95,141.58a3.08,3.08,0,0,1-3.1-2.29,0.3,0.3,0,0,1,0-.1c0-1,1.33-2.27,3.11-2.27s3.33,1.28,3.33,2.27a1.89,1.89,0,0,1-.62,1.22A3.85,3.85,0,0,1,223.95,141.58Z"/>
					<path class="polesWires3" d="M223.95,141.58a3.08,3.08,0,0,1-3.1-2.29,3.58,3.58,0,0,1,2.5-1c1.69,0,3.18,1.17,3.31,2.13A3.85,3.85,0,0,1,223.95,141.58Z"/>
					<path class="polesWires6" d="M223.95,147.32a3.08,3.08,0,0,1-3.1-2.29,0.3,0.3,0,0,1,0-.1c0-1,1.33-2.27,3.11-2.27s3.33,1.28,3.33,2.27a1.89,1.89,0,0,1-.62,1.22A3.85,3.85,0,0,1,223.95,147.32Z"/>
					<path class="polesWires3" d="M223.95,147.32a3.08,3.08,0,0,1-3.1-2.29,3.58,3.58,0,0,1,2.5-1c1.69,0,3.18,1.17,3.31,2.13A3.85,3.85,0,0,1,223.95,147.32Z"/>
					<path class="polesWires3" d="M223.13,149.53H225a19.77,19.77,0,0,0-.74,5.69,22.07,22.07,0,0,0,.74,5.69h-1.86a25.25,25.25,0,0,0,.64-5.72A21.77,21.77,0,0,0,223.13,149.53Z"/>
					<path class="polesWires6" d="M223.95,152a3.08,3.08,0,0,1-3.1-2.29,0.3,0.3,0,0,1,0-.1c0-1,1.33-2.27,3.11-2.27s3.33,1.28,3.33,2.27a1.89,1.89,0,0,1-.62,1.22A3.85,3.85,0,0,1,223.95,152Z"/>
					<path class="polesWires3" d="M223.95,152a3.08,3.08,0,0,1-3.1-2.29,3.58,3.58,0,0,1,2.5-1c1.69,0,3.18,1.17,3.31,2.13A3.85,3.85,0,0,1,223.95,152Z"/>
					<path class="polesWires6" d="M223.95,157.71a3.08,3.08,0,0,1-3.1-2.29,0.3,0.3,0,0,1,0-.1c0-1,1.33-2.27,3.11-2.27s3.33,1.28,3.33,2.27a1.89,1.89,0,0,1-.62,1.22A3.85,3.85,0,0,1,223.95,157.71Z"/>
					<path class="polesWires3" d="M223.95,157.71a3.08,3.08,0,0,1-3.1-2.29,3.58,3.58,0,0,1,2.5-1c1.69,0,3.18,1.17,3.31,2.13A3.85,3.85,0,0,1,223.95,157.71Z"/>
					<path class="polesWires6" d="M223.95,163.44a3.08,3.08,0,0,1-3.1-2.29,0.3,0.3,0,0,1,0-.1c0-1,1.33-2.27,3.11-2.27s3.33,1.28,3.33,2.27a1.89,1.89,0,0,1-.62,1.22A3.85,3.85,0,0,1,223.95,163.44Z"/>
					<path class="polesWires3" d="M223.95,163.44a3.08,3.08,0,0,1-3.1-2.29,3.58,3.58,0,0,1,2.5-1c1.69,0,3.18,1.17,3.31,2.13A3.85,3.85,0,0,1,223.95,163.44Z"/>
					<line class="polesWires2" x1="228.09" y1="231.97" x2="228.09" y2="296.3"/>
					<path class="polesWires3" d="M227.16,234.17H229a19.68,19.68,0,0,0-.74,5.68,22,22,0,0,0,.74,5.68h-1.86a25.1,25.1,0,0,0,.64-5.71A21.65,21.65,0,0,0,227.16,234.17Z"/>
					<path class="polesWires6" d="M228,236.62a3.08,3.08,0,0,1-3.1-2.29,0.32,0.32,0,0,1,0-.1c0-1,1.33-2.27,3.11-2.27s3.33,1.28,3.33,2.27a1.88,1.88,0,0,1-.62,1.22A3.85,3.85,0,0,1,228,236.62Z"/>
					<path class="polesWires3" d="M228,236.62a3.08,3.08,0,0,1-3.1-2.29,3.59,3.59,0,0,1,2.5-1c1.69,0,3.18,1.16,3.31,2.12A3.85,3.85,0,0,1,228,236.62Z"/>
					<path class="polesWires6" d="M228,242.33a3.08,3.08,0,0,1-3.1-2.29,0.32,0.32,0,0,1,0-.1c0-1,1.33-2.27,3.11-2.27s3.33,1.28,3.33,2.27a1.88,1.88,0,0,1-.62,1.22A3.85,3.85,0,0,1,228,242.33Z"/>
					<path class="polesWires3" d="M228,242.33a3.08,3.08,0,0,1-3.1-2.29,3.59,3.59,0,0,1,2.5-1c1.69,0,3.18,1.16,3.31,2.12A3.85,3.85,0,0,1,228,242.33Z"/>
					<path class="polesWires6" d="M228,248a3.08,3.08,0,0,1-3.1-2.29,0.32,0.32,0,0,1,0-.1c0-1,1.33-2.27,3.11-2.27s3.33,1.28,3.33,2.27a1.88,1.88,0,0,1-.62,1.22A3.85,3.85,0,0,1,228,248Z"/>
					<path class="polesWires3" d="M228,248a3.08,3.08,0,0,1-3.1-2.29,3.59,3.59,0,0,1,2.5-1c1.69,0,3.18,1.16,3.31,2.12A3.85,3.85,0,0,1,228,248Z"/>
					<path class="polesWires3" d="M227.16,250.26H229a19.67,19.67,0,0,0-.74,5.68,22,22,0,0,0,.74,5.68h-1.86a25.1,25.1,0,0,0,.64-5.71A21.65,21.65,0,0,0,227.16,250.26Z"/>
					<path class="polesWires6" d="M228,252.7a3.08,3.08,0,0,1-3.1-2.29,0.32,0.32,0,0,1,0-.1c0-1,1.33-2.27,3.11-2.27s3.33,1.28,3.33,2.27a1.89,1.89,0,0,1-.62,1.22A3.85,3.85,0,0,1,228,252.7Z"/>
					<path class="polesWires3" d="M228,252.7a3.08,3.08,0,0,1-3.1-2.29,3.59,3.59,0,0,1,2.5-1c1.69,0,3.18,1.16,3.31,2.13A3.85,3.85,0,0,1,228,252.7Z"/>
					<path class="polesWires6" d="M228,258.42a3.08,3.08,0,0,1-3.1-2.29,0.32,0.32,0,0,1,0-.1c0-1,1.33-2.27,3.11-2.27s3.33,1.28,3.33,2.27a1.89,1.89,0,0,1-.62,1.22A3.85,3.85,0,0,1,228,258.42Z"/>
					<path class="polesWires3" d="M228,258.42a3.08,3.08,0,0,1-3.1-2.29,3.59,3.59,0,0,1,2.5-1c1.69,0,3.18,1.16,3.31,2.13A3.85,3.85,0,0,1,228,258.42Z"/>
					<path class="polesWires6" d="M228,264.13a3.08,3.08,0,0,1-3.1-2.29,0.32,0.32,0,0,1,0-.1c0-1,1.33-2.27,3.11-2.27s3.33,1.28,3.33,2.27a1.89,1.89,0,0,1-.62,1.22A3.85,3.85,0,0,1,228,264.13Z"/>
					<path class="polesWires3" d="M228,264.13a3.08,3.08,0,0,1-3.1-2.29,3.59,3.59,0,0,1,2.5-1c1.69,0,3.18,1.16,3.31,2.13A3.85,3.85,0,0,1,228,264.13Z"/>
					<path class="polesWires3" d="M227.16,266.34H229a19.68,19.68,0,0,0-.74,5.68,22,22,0,0,0,.74,5.68h-1.86a25.1,25.1,0,0,0,.64-5.71A21.65,21.65,0,0,0,227.16,266.34Z"/>
					<path class="polesWires6" d="M228,268.78a3.08,3.08,0,0,1-3.1-2.29,0.31,0.31,0,0,1,0-.1c0-1,1.33-2.27,3.11-2.27s3.33,1.28,3.33,2.27a1.88,1.88,0,0,1-.62,1.22A3.85,3.85,0,0,1,228,268.78Z"/>
					<path class="polesWires3" d="M228,268.78a3.08,3.08,0,0,1-3.1-2.29,3.59,3.59,0,0,1,2.5-1c1.69,0,3.18,1.16,3.31,2.12A3.85,3.85,0,0,1,228,268.78Z"/>
					<path class="polesWires6" d="M228,274.5a3.08,3.08,0,0,1-3.1-2.29,0.31,0.31,0,0,1,0-.1c0-1,1.33-2.27,3.11-2.27s3.33,1.28,3.33,2.27a1.88,1.88,0,0,1-.62,1.22A3.85,3.85,0,0,1,228,274.5Z"/>
					<path class="polesWires3" d="M228,274.5a3.08,3.08,0,0,1-3.1-2.29,3.59,3.59,0,0,1,2.5-1c1.69,0,3.18,1.16,3.31,2.13A3.85,3.85,0,0,1,228,274.5Z"/>
					<path class="polesWires6" d="M228,280.22a3.08,3.08,0,0,1-3.1-2.29,0.31,0.31,0,0,1,0-.1c0-1,1.33-2.27,3.11-2.27s3.33,1.28,3.33,2.27a1.88,1.88,0,0,1-.62,1.22A3.85,3.85,0,0,1,228,280.22Z"/>
					<path class="polesWires3" d="M228,280.22a3.08,3.08,0,0,1-3.1-2.29,3.59,3.59,0,0,1,2.5-1c1.69,0,3.18,1.16,3.31,2.13A3.85,3.85,0,0,1,228,280.22Z"/>
					<path class="polesWires3" d="M227.16,282.42H229a19.67,19.67,0,0,0-.74,5.68,22,22,0,0,0,.74,5.68h-1.86a25.1,25.1,0,0,0,.64-5.71A21.65,21.65,0,0,0,227.16,282.42Z"/>
					<path class="polesWires6" d="M228,284.87a3.08,3.08,0,0,1-3.1-2.29,0.32,0.32,0,0,1,0-.1c0-1,1.33-2.27,3.11-2.27s3.33,1.28,3.33,2.27a1.88,1.88,0,0,1-.62,1.22A3.85,3.85,0,0,1,228,284.87Z"/>
					<path class="polesWires3" d="M228,284.87a3.08,3.08,0,0,1-3.1-2.29,3.59,3.59,0,0,1,2.5-1c1.69,0,3.18,1.16,3.31,2.12A3.85,3.85,0,0,1,228,284.87Z"/>
					<path class="polesWires6" d="M228,290.58a3.08,3.08,0,0,1-3.1-2.29,0.32,0.32,0,0,1,0-.1c0-1,1.33-2.27,3.11-2.27s3.33,1.28,3.33,2.27a1.88,1.88,0,0,1-.62,1.22A3.85,3.85,0,0,1,228,290.58Z"/>
					<path class="polesWires3" d="M228,290.58a3.08,3.08,0,0,1-3.1-2.29,3.59,3.59,0,0,1,2.5-1c1.69,0,3.18,1.16,3.31,2.12A3.85,3.85,0,0,1,228,290.58Z"/>
					<path class="polesWires6" d="M228,296.3a3.08,3.08,0,0,1-3.1-2.29,0.32,0.32,0,0,1,0-.1c0-1,1.33-2.27,3.11-2.27s3.33,1.28,3.33,2.27a1.88,1.88,0,0,1-.62,1.22A3.85,3.85,0,0,1,228,296.3Z"/>
					<path class="polesWires3" d="M228,296.3a3.08,3.08,0,0,1-3.1-2.29,3.59,3.59,0,0,1,2.5-1c1.69,0,3.18,1.16,3.31,2.12A3.85,3.85,0,0,1,228,296.3Z"/>
					<line class="polesWires2" x1="228.09" y1="366.33" x2="228.09" y2="427.72"/>
					<path class="polesWires3" d="M227.16,368.44H229a18,18,0,0,0-.74,5.42,20.07,20.07,0,0,0,.74,5.42h-1.86a22.93,22.93,0,0,0,.64-5.44A19.77,19.77,0,0,0,227.16,368.44Z"/>
					<path class="polesWires6" d="M228,370.77c-1.72,0-3-1.25-3.1-2.18a0.29,0.29,0,0,1,0-.09c0-.95,1.33-2.16,3.11-2.16s3.33,1.22,3.33,2.16a1.77,1.77,0,0,1-.62,1.16A3.94,3.94,0,0,1,228,370.77Z"/>
					<path class="polesWires3" d="M228,370.77c-1.72,0-3-1.25-3.1-2.18a3.68,3.68,0,0,1,2.5-1c1.69,0,3.18,1.11,3.31,2A3.94,3.94,0,0,1,228,370.77Z"/>
					<path class="polesWires6" d="M228,376.23c-1.72,0-3-1.25-3.1-2.18a0.29,0.29,0,0,1,0-.09c0-.95,1.33-2.16,3.11-2.16s3.33,1.22,3.33,2.16a1.77,1.77,0,0,1-.62,1.16A3.94,3.94,0,0,1,228,376.23Z"/>
					<path class="polesWires3" d="M228,376.23c-1.72,0-3-1.25-3.1-2.18a3.68,3.68,0,0,1,2.5-1c1.69,0,3.18,1.11,3.31,2A3.94,3.94,0,0,1,228,376.23Z"/>
					<path class="polesWires6" d="M228,381.68c-1.72,0-3-1.25-3.1-2.18a0.29,0.29,0,0,1,0-.09c0-.95,1.33-2.16,3.11-2.16s3.33,1.22,3.33,2.16a1.77,1.77,0,0,1-.62,1.16A3.94,3.94,0,0,1,228,381.68Z"/>
					<path class="polesWires3" d="M228,381.68c-1.72,0-3-1.25-3.1-2.18a3.68,3.68,0,0,1,2.5-1c1.69,0,3.18,1.11,3.31,2A3.94,3.94,0,0,1,228,381.68Z"/>
					<path class="polesWires3" d="M227.16,383.79H229a18,18,0,0,0-.74,5.42,20.07,20.07,0,0,0,.74,5.42h-1.86a22.92,22.92,0,0,0,.64-5.44A19.77,19.77,0,0,0,227.16,383.79Z"/>
					<path class="polesWires6" d="M228,386.12c-1.72,0-3-1.25-3.1-2.18a0.29,0.29,0,0,1,0-.09c0-.95,1.33-2.16,3.11-2.16s3.33,1.22,3.33,2.16a1.77,1.77,0,0,1-.62,1.16A3.94,3.94,0,0,1,228,386.12Z"/>
					<path class="polesWires3" d="M228,386.12c-1.72,0-3-1.25-3.1-2.18a3.68,3.68,0,0,1,2.5-1c1.69,0,3.18,1.11,3.31,2A3.94,3.94,0,0,1,228,386.12Z"/>
					<path class="polesWires6" d="M228,391.57c-1.72,0-3-1.25-3.1-2.18a0.29,0.29,0,0,1,0-.09c0-.95,1.33-2.16,3.11-2.16s3.33,1.22,3.33,2.16a1.77,1.77,0,0,1-.62,1.16A3.94,3.94,0,0,1,228,391.57Z"/>
					<path class="polesWires3" d="M228,391.57c-1.72,0-3-1.25-3.1-2.18a3.68,3.68,0,0,1,2.5-1c1.69,0,3.18,1.11,3.31,2A3.94,3.94,0,0,1,228,391.57Z"/>
					<path class="polesWires6" d="M228,397c-1.72,0-3-1.25-3.1-2.18a0.29,0.29,0,0,1,0-.09c0-.95,1.33-2.16,3.11-2.16s3.33,1.22,3.33,2.16a1.77,1.77,0,0,1-.62,1.16A3.94,3.94,0,0,1,228,397Z"/>
					<path class="polesWires3" d="M228,397c-1.72,0-3-1.25-3.1-2.18a3.68,3.68,0,0,1,2.5-1c1.69,0,3.18,1.11,3.31,2A3.94,3.94,0,0,1,228,397Z"/>
					<path class="polesWires3" d="M227.16,399.13H229a18,18,0,0,0-.74,5.42A20.07,20.07,0,0,0,229,410h-1.86a22.92,22.92,0,0,0,.64-5.44A19.78,19.78,0,0,0,227.16,399.13Z"/>
					<path class="polesWires6" d="M228,401.46c-1.72,0-3-1.25-3.1-2.18a0.29,0.29,0,0,1,0-.09c0-.95,1.33-2.16,3.11-2.16s3.33,1.22,3.33,2.16a1.77,1.77,0,0,1-.62,1.16A3.94,3.94,0,0,1,228,401.46Z"/>
					<path class="polesWires3" d="M228,401.46c-1.72,0-3-1.25-3.1-2.18a3.68,3.68,0,0,1,2.5-1c1.69,0,3.18,1.11,3.31,2A3.94,3.94,0,0,1,228,401.46Z"/>
					<path class="polesWires6" d="M228,406.92c-1.72,0-3-1.25-3.1-2.18a0.29,0.29,0,0,1,0-.09c0-.95,1.33-2.16,3.11-2.16s3.33,1.22,3.33,2.16a1.77,1.77,0,0,1-.62,1.16A3.94,3.94,0,0,1,228,406.92Z"/>
					<path class="polesWires3" d="M228,406.92c-1.72,0-3-1.25-3.1-2.18a3.68,3.68,0,0,1,2.5-1c1.69,0,3.18,1.11,3.31,2A3.94,3.94,0,0,1,228,406.92Z"/>
					<path class="polesWires6" d="M228,412.38c-1.72,0-3-1.25-3.1-2.18a0.29,0.29,0,0,1,0-.09c0-.95,1.33-2.16,3.11-2.16s3.33,1.22,3.33,2.16a1.77,1.77,0,0,1-.62,1.16A3.94,3.94,0,0,1,228,412.38Z"/>
					<path class="polesWires3" d="M228,412.38c-1.72,0-3-1.25-3.1-2.18a3.68,3.68,0,0,1,2.5-1c1.69,0,3.18,1.11,3.31,2A3.94,3.94,0,0,1,228,412.38Z"/>
					<path class="polesWires3" d="M227.16,414.48H229a18,18,0,0,0-.74,5.42,20.07,20.07,0,0,0,.74,5.42h-1.86a22.92,22.92,0,0,0,.64-5.44A19.77,19.77,0,0,0,227.16,414.48Z"/>
					<path class="polesWires6" d="M228,416.81c-1.72,0-3-1.25-3.1-2.18a0.29,0.29,0,0,1,0-.09c0-.95,1.33-2.16,3.11-2.16s3.33,1.22,3.33,2.16a1.77,1.77,0,0,1-.62,1.16A3.94,3.94,0,0,1,228,416.81Z"/>
					<path class="polesWires3" d="M228,416.81c-1.72,0-3-1.25-3.1-2.18a3.68,3.68,0,0,1,2.5-1c1.69,0,3.18,1.11,3.31,2A3.94,3.94,0,0,1,228,416.81Z"/>
					<path class="polesWires6" d="M228,422.27c-1.72,0-3-1.25-3.1-2.18a0.29,0.29,0,0,1,0-.09c0-.95,1.33-2.16,3.11-2.16s3.33,1.22,3.33,2.16a1.77,1.77,0,0,1-.62,1.16A3.94,3.94,0,0,1,228,422.27Z"/>
					<path class="polesWires3" d="M228,422.27c-1.72,0-3-1.25-3.1-2.18a3.68,3.68,0,0,1,2.5-1c1.69,0,3.18,1.11,3.31,2A3.94,3.94,0,0,1,228,422.27Z"/>
					<path class="polesWires6" d="M228,427.72c-1.72,0-3-1.25-3.1-2.18a0.29,0.29,0,0,1,0-.09c0-.95,1.33-2.16,3.11-2.16s3.33,1.22,3.33,2.16a1.77,1.77,0,0,1-.62,1.16A3.94,3.94,0,0,1,228,427.72Z"/>
					<path class="polesWires3" d="M228,427.72c-1.72,0-3-1.25-3.1-2.18a3.68,3.68,0,0,1,2.5-1c1.69,0,3.18,1.11,3.31,2A3.94,3.94,0,0,1,228,427.72Z"/>
				</g>
			</symbol>
	</defs>

	<title>newPhonePoles</title>
		<g id="wires-poles">
			<g id="new_wires">
				<g id="wires_left">
					<g id="wires_left-2" data-name="wires_left">
						<path class="polesWires7" d="M935,355.5c-2.71,7.5.63,35.35-17-7,0,0-22.46,58.39-40.63,2,0,0-37.4,73-68.39-11.9,0,0-63.78,107.82-123.08-30.95C685.9,307.65,542,485,459,255c0,0-519.44,183.15-638.41-291" transform="translate(266.57 490.25)"/>
						<path class="polesWires7" d="M915,326.46s-20,43.4-37.63,1c0,0-44.29,49.32-68.12-25,0,0-81.25,59.3-123.35-49,0,0-171.74,87.95-225.39-94.11,0,0-484.64,51.11-642.52-397.64" transform="translate(266.57 490.25)"/>
						<path class="polesWires7" d="M917.32,378s-18.58,53.37-40,2.55c0,0-32.8,60.77-68.12-2.55,0,0-75.64,92-123.35-20.3,0,0-157.31,145-225.39-15.4,0,0-326,196.35-639.92-166.29" transform="translate(266.57 490.25)"/>
					</g>
					<g id="wires_left-3" data-name="wires_left">
						<path class="polesWires7" d="M951.13,342c-2.71,7.5-16.18,52-33.81,9.67,0,0-26.77,59.94-50.61-14.38,0,0-56.44,75.51-98.55-32.79,0,0-114.94,85.6-174.24-53.17,0,0-297.87,86.27-470.6-286.83,0,0-179.5,270.32-389.73,235.51" transform="translate(266.57 490.25)"/>
						<path class="polesWires7" d="M950.44,319.2s-16.81,48.09-34.44,5.74c0,0-27.81,51.88-51.64-22.44,0,0-55.74,57.13-97.84-51.17,0,0-113.28,47.94-172.59-90.83,0,0-318.17,50-476.06-398.75" transform="translate(266.57 490.25)"/>
						<path class="polesWires7" d="M950.44,364c-1.34,12.5-13.16,53.8-33.12,12.5,0,0-23.92,72.87-51.86,0,0,0-50.87,87.35-98.95-18.44,0,0-105.64,119.93-172.59-15.32,0,0-275.5,185.65-468.77-177.24,0,0-57.86,228.93-391.57,246.51" transform="translate(266.57 490.25)"/>
					</g>
				</g>
				<g id="wires_right">
					<g id="wires_02">
						<path class="polesWires7" d="M1003.72,362.5c2.71,7.5-.63,35.35,17-7,0,0,22.46,58.39,40.63,2,0,0,37.4,73,68.39-11.9,0,0,63.78,107.82,123.08-30.95,0,0,143.92,177.35,226.9-52.65,0,0,519.44,183.15,638.41-291" transform="translate(266.57 490.25)"/>
						<path class="polesWires7" d="M1023.72,333.46s20,43.4,37.63,1c0,0,44.29,49.32,68.12-25,0,0,81.25,59.3,123.35-49,0,0,171.74,87.95,225.39-94.11,0,0,484.64,51.11,642.52-397.64" transform="translate(266.57 490.25)"/>
						<path class="polesWires7" d="M1017.68,377.26c1.34,12.5-16.24,49,3.72,7.74,0,0,18.58,53.37,40,2.55,0,0,32.8,60.77,68.12-2.55,0,0,75.64,92,123.35-20.3,0,0,157.31,145,225.39-15.4,0,0,326,196.35,639.92-166.29" transform="translate(266.57 490.25)"/>
					</g>
					<g id="wires_01">
						<path class="polesWires7" d="M987.59,349c2.71,7.5,16.18,52,33.81,9.67,0,0,26.77,59.94,50.61-14.38,0,0,56.44,75.51,98.55-32.79,0,0,114.94,85.6,174.24-53.17,0,0,297.87,86.27,470.6-286.83,0,0,179.5,270.32,389.73,235.51" transform="translate(266.57 490.25)"/>
						<path class="polesWires7" d="M988.28,326.2s16.81,48.09,34.44,5.74c0,0,27.81,51.88,51.64-22.44,0,0,55.74,57.13,97.84-51.17,0,0,113.28,47.94,172.59-90.83,0,0,318.17,50,476.06-398.75" transform="translate(266.57 490.25)"/>
						<path class="polesWires7" d="M988.28,371c1.34,12.5,13.16,53.8,33.12,12.5,0,0,23.92,72.87,51.86,0,0,0,50.87,87.35,98.95-18.44,0,0,105.64,119.93,172.59-15.32,0,0,275.5,185.65,468.77-177.24,0,0,57.86,228.93,391.57,246.51" transform="translate(266.57 490.25)"/>
					</g>
				</g>
			</g>
			<g id="newPoles_left">
				<use width="250.59" height="1123" transform="translate(38.98 0) scale(1.54)" xlink:href="#wirePoleSymbol3"/>
				<use width="250.59" height="1123" transform="translate(708.38 540.03) scale(0.68)" xlink:href="#wirePoleSymbol3"/>
				<use width="250.59" height="1123" transform="translate(941.17 673.4) scale(0.41)" xlink:href="#wirePoleSymbol3"/>
				<use width="250.59" height="1123" transform="translate(1069.57 747.48) scale(0.27)" xlink:href="#wirePoleSymbol3"/>
				<use width="250.59" height="1123" transform="translate(1137.99 782.3) scale(0.2)" xlink:href="#wirePoleSymbol3"/>
				<use width="250.59" height="1123" transform="translate(1178.34 792.24) scale(0.17)" xlink:href="#wirePoleSymbol3"/>
			</g>
			<g id="newPoles_right">
				<use width="250.59" height="1123" transform="matrix(-1.54, 0, 0, 1.54, 2431.78, 14.5)" xlink:href="#wirePoleSymbol3"/>
				<use width="250.59" height="1123" transform="matrix(-0.68, 0, 0, 0.68, 1762.38, 554.53)" xlink:href="#wirePoleSymbol3"/>
				<use width="250.59" height="1123" transform="matrix(-0.41, 0, 0, 0.41, 1529.59, 687.9)" xlink:href="#wirePoleSymbol3"/>
				<use width="250.59" height="1123" transform="matrix(-0.27, 0, 0, 0.27, 1401.18, 761.98)" xlink:href="#wirePoleSymbol3"/>
				<use width="250.59" height="1123" transform="matrix(-0.2, 0, 0, 0.2, 1332.76, 796.8)" xlink:href="#wirePoleSymbol3"/>
				<use width="250.59" height="1123" transform="matrix(-0.17, 0, 0, 0.17, 1292.18, 796.66)" xlink:href="#wirePoleSymbol3"/>
			</g>
		</g>
</g>	
</svg>