<svg id="sky" xmlns="http://www.w3.org/2000/svg" xmlns:xlink="http://www.w3.org/1999/xlink" viewBox="0 0 2912.7 2486.04">
		<defs>
			<radialGradient id="radial-gradient" cx="12.55" cy="12.55" r="12.55" gradientUnits="userSpaceOnUse">
				<stop offset="0" stop-color="#fff"/>
				<stop offset="1" stop-opacity="0"/>
			</radialGradient>
			<symbol id="New_Symbol_2" data-name="New Symbol 2" viewBox="0 0 25.09 25.09">
				<circle class="cls-1" cx="12.55" cy="12.55" r="12.55"/>
			</symbol>
		</defs>

			<rect class="cls-2" x="417.97" width="2025.78" height="1400.32"/>
		<g id="star_group">
			<use width="25.09" height="25.09" transform="translate(763.67 514.5)" xlink:href="#New_Symbol_2"/>
			<use width="25.09" height="25.09" transform="translate(940.67 473.5)" xlink:href="#New_Symbol_2"/>
			<use width="25.09" height="25.09" transform="translate(1117.67 609.5)" xlink:href="#New_Symbol_2"/>
			<use width="25.09" height="25.09" transform="translate(1366.67 508.5)" xlink:href="#New_Symbol_2"/>
			<use width="25.09" height="25.09" transform="translate(1480.67 415.5)" xlink:href="#New_Symbol_2"/>
			<use width="25.09" height="25.09" transform="translate(1718.67 473.5)" xlink:href="#New_Symbol_2"/>
			<use width="25.09" height="25.09" transform="translate(1820.67 568.5)" xlink:href="#New_Symbol_2"/>
			<use width="25.09" height="25.09" transform="translate(1889.67 330.5)" xlink:href="#New_Symbol_2"/>
			<use width="25.09" height="25.09" transform="translate(1583.67 186.5)" xlink:href="#New_Symbol_2"/>
			<use width="25.09" height="25.09" transform="translate(1344.67 209.5)" xlink:href="#New_Symbol_2"/>
			<use width="25.09" height="25.09" transform="translate(1178.67 161.5)" xlink:href="#New_Symbol_2"/>
			<use width="25.09" height="25.09" transform="translate(937.67 200.5)" xlink:href="#New_Symbol_2"/>
			<use width="25.09" height="25.09" transform="translate(749.67 182.5)" xlink:href="#New_Symbol_2"/>
			<use width="25.09" height="25.09" transform="translate(532.67 397.5)" xlink:href="#New_Symbol_2"/>
			<use width="25.09" height="25.09" transform="translate(707.67 624.5)" xlink:href="#New_Symbol_2"/>
			<use width="25.09" height="25.09" transform="translate(657.67 782.5)" xlink:href="#New_Symbol_2"/>
			<use width="25.09" height="25.09" transform="translate(889.67 758.5)" xlink:href="#New_Symbol_2"/>
			<use width="25.09" height="25.09" transform="translate(1064.67 622.5)" xlink:href="#New_Symbol_2"/>
			<use width="25.09" height="25.09" transform="translate(1122.67 724.5)" xlink:href="#New_Symbol_2"/>
			<use width="25.09" height="25.09" transform="translate(1197.67 795.5)" xlink:href="#New_Symbol_2"/>
			<use width="25.09" height="25.09" transform="translate(1351.67 585.5)" xlink:href="#New_Symbol_2"/>
			<use width="25.09" height="25.09" transform="translate(1258.67 425.5)" xlink:href="#New_Symbol_2"/>
			<use width="25.09" height="25.09" transform="translate(1397.67 341.5)" xlink:href="#New_Symbol_2"/>
			<use width="25.09" height="25.09" transform="translate(1558.67 405.5)" xlink:href="#New_Symbol_2"/>
			<use width="25.09" height="25.09" transform="translate(1665.67 658.5)" xlink:href="#New_Symbol_2"/>
			<use width="25.09" height="25.09" transform="translate(1800.67 876.5)" xlink:href="#New_Symbol_2"/>
			<use width="25.09" height="25.09" transform="translate(2094.67 766.5)" xlink:href="#New_Symbol_2"/>
			<use width="25.09" height="25.09" transform="translate(2094.67 589.5)" xlink:href="#New_Symbol_2"/>
			<use width="25.09" height="25.09" transform="translate(1772.67 546.5)" xlink:href="#New_Symbol_2"/>
			<use width="25.09" height="25.09" transform="translate(1561.67 682.5)" xlink:href="#New_Symbol_2"/>
			<use width="25.09" height="25.09" transform="translate(1472.67 681.5)" xlink:href="#New_Symbol_2"/>
			<use width="25.09" height="25.09" transform="translate(1625.67 517.5)" xlink:href="#New_Symbol_2"/>
			<use width="25.09" height="25.09" transform="translate(1756.67 267.5)" xlink:href="#New_Symbol_2"/>
			<use width="25.09" height="25.09" transform="translate(1943.67 164.5)" xlink:href="#New_Symbol_2"/>
			<use width="25.09" height="25.09" transform="translate(2210.67 219.5)" xlink:href="#New_Symbol_2"/>
			<use width="25.09" height="25.09" transform="translate(2273.67 354.5)" xlink:href="#New_Symbol_2"/>
			<use width="25.09" height="25.09" transform="translate(2107.67 554.5)" xlink:href="#New_Symbol_2"/>
			<use width="25.09" height="25.09" transform="translate(2076.67 834.5)" xlink:href="#New_Symbol_2"/>
			<use width="25.09" height="25.09" transform="translate(2150.67 915.5)" xlink:href="#New_Symbol_2"/>
			<use width="25.09" height="25.09" transform="translate(2329.67 767.5)" xlink:href="#New_Symbol_2"/>
			<use width="25.09" height="25.09" transform="translate(2171.67 615.5)" xlink:href="#New_Symbol_2"/>
			<use width="25.09" height="25.09" transform="translate(1862.67 715.5)" xlink:href="#New_Symbol_2"/>
			<use width="25.09" height="25.09" transform="translate(1588.67 761.5)" xlink:href="#New_Symbol_2"/>
			<use width="25.09" height="25.09" transform="translate(1336.67 811.5)" xlink:href="#New_Symbol_2"/>
			<use width="25.09" height="25.09" transform="translate(1094.67 889.5)" xlink:href="#New_Symbol_2"/>
			<use width="25.09" height="25.09" transform="translate(838.67 923.5)" xlink:href="#New_Symbol_2"/>
			<use width="25.09" height="25.09" transform="translate(750.67 1016.5)" xlink:href="#New_Symbol_2"/>
			<use width="25.09" height="25.09" transform="translate(630.67 884.5)" xlink:href="#New_Symbol_2"/>
			<use width="25.09" height="25.09" transform="translate(597.67 660.5)" xlink:href="#New_Symbol_2"/>
			<use width="25.09" height="25.09" transform="translate(563.67 469.5)" xlink:href="#New_Symbol_2"/>
			<use width="25.09" height="25.09" transform="translate(641.67 264.5)" xlink:href="#New_Symbol_2"/>
			<use width="25.09" height="25.09" transform="translate(668.67 109.5)" xlink:href="#New_Symbol_2"/>
			<use width="25.09" height="25.09" transform="translate(785.67 107.5)" xlink:href="#New_Symbol_2"/>
			<use width="25.09" height="25.09" transform="translate(734.67 262.5)" xlink:href="#New_Symbol_2"/>
			<use width="25.09" height="25.09" transform="translate(934.67 354.5)" xlink:href="#New_Symbol_2"/>
			<use width="25.09" height="25.09" transform="translate(1076.67 270.5)" xlink:href="#New_Symbol_2"/>
			<use width="25.09" height="25.09" transform="translate(1158.67 312.5)" xlink:href="#New_Symbol_2"/>
			<use width="25.09" height="25.09" transform="translate(908.67 494.5)" xlink:href="#New_Symbol_2"/>
			<use width="25.09" height="25.09" transform="translate(889.67 668.5)" xlink:href="#New_Symbol_2"/>
			<use width="25.09" height="25.09" transform="translate(1288.67 602.5)" xlink:href="#New_Symbol_2"/>
			<use width="25.09" height="25.09" transform="translate(1523.67 458.5)" xlink:href="#New_Symbol_2"/>
			<use width="25.09" height="25.09" transform="translate(1311.67 244.5)" xlink:href="#New_Symbol_2"/>
			<use width="25.09" height="25.09" transform="translate(1158.67 117.5)" xlink:href="#New_Symbol_2"/>
			<use width="25.09" height="25.09" transform="translate(1462.67 103.5)" xlink:href="#New_Symbol_2"/>
			<use width="25.09" height="25.09" transform="translate(1756.67 91.5)" xlink:href="#New_Symbol_2"/>
			<use width="25.09" height="25.09" transform="translate(1994.67 98.5)" xlink:href="#New_Symbol_2"/>
			<use width="25.09" height="25.09" transform="translate(1916.67 215.5)" xlink:href="#New_Symbol_2"/>
			<use width="25.09" height="25.09" transform="translate(1725.67 412.5)" xlink:href="#New_Symbol_2"/>
			<use width="25.09" height="25.09" transform="translate(2026.67 469.5)" xlink:href="#New_Symbol_2"/>
			<use width="25.09" height="25.09" transform="translate(2115.67 626.5)" xlink:href="#New_Symbol_2"/>
			<use width="25.09" height="25.09" transform="translate(1935.67 806.5)" xlink:href="#New_Symbol_2"/>
			<use width="25.09" height="25.09" transform="translate(1808.67 952.5)" xlink:href="#New_Symbol_2"/>
			<use width="25.09" height="25.09" transform="translate(1856.67 1032.5)" xlink:href="#New_Symbol_2"/>
			<use width="25.09" height="25.09" transform="translate(1527.67 891.5)" xlink:href="#New_Symbol_2"/>
			<use width="25.09" height="25.09" transform="translate(1372.67 770.5)" xlink:href="#New_Symbol_2"/>
			<use width="25.09" height="25.09" transform="translate(1102.67 812.5)" xlink:href="#New_Symbol_2"/>
			<use width="25.09" height="25.09" transform="translate(1045.67 899.5)" xlink:href="#New_Symbol_2"/>
			<use width="25.09" height="25.09" transform="translate(1161.67 973.5)" xlink:href="#New_Symbol_2"/>
			<use width="25.09" height="25.09" transform="translate(1479.67 931.5)" xlink:href="#New_Symbol_2"/>
			<use width="25.09" height="25.09" transform="translate(1657.67 887.5)" xlink:href="#New_Symbol_2"/>
			<use width="25.09" height="25.09" transform="translate(1819.67 969.5)" xlink:href="#New_Symbol_2"/>
			<use width="25.09" height="25.09" transform="translate(1958.67 931.5)" xlink:href="#New_Symbol_2"/>
			<use width="25.09" height="25.09" transform="translate(2055.67 699.5)" xlink:href="#New_Symbol_2"/>
			<use width="25.09" height="25.09" transform="translate(1999.67 472.5)" xlink:href="#New_Symbol_2"/>
			<use width="25.09" height="25.09" transform="translate(2189.67 200.5)" xlink:href="#New_Symbol_2"/>
			<use width="25.09" height="25.09" transform="translate(2367.67 174.5)" xlink:href="#New_Symbol_2"/>
			<use width="25.09" height="25.09" transform="translate(2348.67 429.5)" xlink:href="#New_Symbol_2"/>
			<use width="25.09" height="25.09" transform="translate(2364.67 738.5)" xlink:href="#New_Symbol_2"/>
			<use width="25.09" height="25.09" transform="translate(2233.67 802.5)" xlink:href="#New_Symbol_2"/>
			<use width="25.09" height="25.09" transform="translate(2147.67 520.5)" xlink:href="#New_Symbol_2"/>
			<use width="25.09" height="25.09" transform="translate(1684.67 316.5)" xlink:href="#New_Symbol_2"/>
			<use width="25.09" height="25.09" transform="translate(1104.67 223.5)" xlink:href="#New_Symbol_2"/>
			<use width="25.09" height="25.09" transform="translate(853.67 188.5)" xlink:href="#New_Symbol_2"/>
			<use width="25.09" height="25.09" transform="translate(721.67 112.5)" xlink:href="#New_Symbol_2"/>
			<use width="25.09" height="25.09" transform="translate(603.67 131.5)" xlink:href="#New_Symbol_2"/>
			<use width="25.09" height="25.09" transform="translate(514.67 135.5)" xlink:href="#New_Symbol_2"/>
			<use width="25.09" height="25.09" transform="translate(472.67 274.5)" xlink:href="#New_Symbol_2"/>
			<use width="25.09" height="25.09" transform="translate(491.67 542.5)" xlink:href="#New_Symbol_2"/>
			<use width="25.09" height="25.09" transform="translate(445.67 759.5)" xlink:href="#New_Symbol_2"/>
			<use width="25.09" height="25.09" transform="translate(491.67 946.5)" xlink:href="#New_Symbol_2"/>
			<use width="25.09" height="25.09" transform="translate(535.67 1096.5)" xlink:href="#New_Symbol_2"/>
			<use width="25.09" height="25.09" transform="translate(753.67 929.5)" xlink:href="#New_Symbol_2"/>
			<use width="25.09" height="25.09" transform="translate(911.67 903.5)" xlink:href="#New_Symbol_2"/>
			<use width="25.09" height="25.09" transform="translate(897.67 1057.5)" xlink:href="#New_Symbol_2"/>
			<use width="25.09" height="25.09" transform="translate(979.67 1115.5)" xlink:href="#New_Symbol_2"/>
			<use width="25.09" height="25.09" transform="translate(860.67 895.5)" xlink:href="#New_Symbol_2"/>
			<use width="25.09" height="25.09" transform="translate(527.67 776.5)" xlink:href="#New_Symbol_2"/>
			<use width="25.09" height="25.09" transform="translate(541.67 655.5)" xlink:href="#New_Symbol_2"/>
			<use width="25.09" height="25.09" transform="translate(720.67 550.5)" xlink:href="#New_Symbol_2"/>
			<use width="25.09" height="25.09" transform="translate(1026.67 619.5)" xlink:href="#New_Symbol_2"/>
			<use width="25.09" height="25.09" transform="translate(1297.67 574.5)" xlink:href="#New_Symbol_2"/>
			<use width="25.09" height="25.09" transform="translate(1331.67 465.5)" xlink:href="#New_Symbol_2"/>
			<use width="25.09" height="25.09" transform="translate(1303.67 348.5)" xlink:href="#New_Symbol_2"/>
			<use width="25.09" height="25.09" transform="translate(1572.67 364.5)" xlink:href="#New_Symbol_2"/>
			<use width="25.09" height="25.09" transform="translate(1712.67 506.5)" xlink:href="#New_Symbol_2"/>
			<use width="25.09" height="25.09" transform="translate(2055.67 556.5)" xlink:href="#New_Symbol_2"/>
			<use width="25.09" height="25.09" transform="translate(766.67 363.5)" xlink:href="#New_Symbol_2"/>
			<use width="25.09" height="25.09" transform="translate(1169.67 440.5)" xlink:href="#New_Symbol_2"/>
			<use width="25.09" height="25.09" transform="translate(1447.67 376.5)" xlink:href="#New_Symbol_2"/>
			<use width="25.09" height="25.09" transform="translate(1753.67 362.5)" xlink:href="#New_Symbol_2"/>
			<use width="25.09" height="25.09" transform="translate(2050.67 390.5)" xlink:href="#New_Symbol_2"/>
			<use width="25.09" height="25.09" transform="translate(2165.67 422.5)" xlink:href="#New_Symbol_2"/>
			<use width="25.09" height="25.09" transform="translate(2220.67 353.5)" xlink:href="#New_Symbol_2"/>
		
		</g>
		<g id="skyscrapers">
			<g id="skyscrapers_back">
				<rect class="cls-3" x="1343.7" y="881.16" width="31.07" height="336.97"/>
				<rect class="cls-3" x="1286.87" y="914.04" width="38.74" height="316"/>
				<rect class="cls-3" x="1395.09" y="938.44" width="26.13" height="291.6"/>
				<rect class="cls-3" x="1475.22" y="928.65" width="21.79" height="306.4"/>
				<rect class="cls-3" x="1513.92" y="849.73" width="31.74" height="373.47"/>
				<rect class="cls-3" x="1562.22" y="938.44" width="27.66" height="311.6"/>
				<rect class="cls-3" x="1443.54" y="1078.21" width="25.23" height="147.83"/>
				<rect class="cls-3" x="1421.22" y="987.03" width="16" height="243.01"/>
		</g>
		<g id="skyscrapers_middle">
			<rect class="cls-4" x="1612.17" y="991.79" width="38.05" height="245.75"/>
			<rect class="cls-4" x="1605.23" y="867.16" width="17.99" height="369.64"/>
			<rect class="cls-4" x="1389.76" y="796.04" width="18.39" height="457.65"/>
			<rect class="cls-4" x="1545.66" y="796.04" width="16.56" height="435.5"/>
			<rect class="cls-4" x="1408.15" y="849.73" width="19.21" height="403.96"/>
			<rect class="cls-4" x="1306.24" y="806.04" width="28.66" height="440.5"/>
			<rect class="cls-4" x="1650.22" y="889.16" width="17.6" height="338.88"/>
	</g>
		<g id="skyscrapers_front">
			<rect class="cls-5" x="1437.22" y="914.04" width="16.13" height="339"/>
			<rect class="cls-5" x="1250.22" y="987.03" width="20.09" height="259.51"/>
			<rect class="cls-5" x="1703.24" y="1018.17" width="25.98" height="228.37"/>
			<rect class="cls-5" x="811.22" y="1430.04" width="25.98" height="228.37"/>
			<rect class="cls-5" x="1486.81" y="886.16" width="27.11" height="366.88"/>
			<rect class="cls-5" x="1255.62" y="952" width="41.81" height="284.8"/>
	</g>
	</g>
		<g id="base-2" data-name="base">
			<g id="road">
				<rect class="cls-6" x="488.21" y="1210.84" width="1900" height="810.5"/>
			</g>
			<g id="skyline">
				<g id="buildings1">
					<rect class="cls-3" x="526.39" y="1117.27" width="60.57" height="104.17"/>
					<rect class="cls-3" x="672.52" y="1094.39" width="60.57" height="127.05"/>
					<rect class="cls-3" x="911.37" y="1095.94" width="60.57" height="125.49"/>
					<rect class="cls-3" x="1236.86" y="1067.02" width="60.57" height="154.41"/>
					<rect class="cls-3" x="1637.54" y="1067.02" width="60.57" height="154.41"/>
					<rect class="cls-3" x="1917.94" y="1112.81" width="60.57" height="110.39"/>
					<rect class="cls-3" x="2017.94" y="1063.72" width="60.57" height="154.41"/>
				</g>
				<g id="buildings2">
					<rect class="cls-6" x="1193.99" y="1018.62" width="38.22" height="204.58"/>
					<rect class="cls-6" x="1069.02" y="1048.9" width="38.22" height="174.3"/>
					<rect class="cls-6" x="1463.5" y="983.67" width="38.22" height="239.53"/>
					<rect class="cls-6" x="1356.87" y="1037.02" width="38.22" height="186.19"/>
					<rect class="cls-6" x="1545.66" y="1037.02" width="38.22" height="186.19"/>
					<rect class="cls-6" x="2143.49" y="1048.43" width="64.91" height="174.77"/>
					<rect class="cls-6" x="2294.16" y="1079.08" width="64.91" height="144.12"/>
				</g>
			</g>
		<g id="road-2" data-name="road">
			<path id="road-3" data-name="road" class="cls-7" d="M19,1925c9.09-10,950-788.9,950-788.9L1919,1926Z" transform="translate(485.22 85.04)"/>
		<g id="trees">
			<g id="_3rd_row" data-name="3rd row">
				<path class="cls-4" d="M-60.25,1135.42c1.33-2.71,138.92-213.82,138.92-213.82l138.92,214.09Z" transform="translate(485.22 85.04)"/>
			<path class="cls-4" d="M166.07,1135.56c0.67-1.36,69.62-107.16,69.62-107.16l69.62,107.3Z" transform="translate(485.22 85.04)"/>
			<path class="cls-4" d="M407.71,1135.56c0.67-1.36,69.62-107.16,69.62-107.16l69.62,107.3Z" transform="translate(485.22 85.04)"/>
			<path class="cls-4" d="M497.43,1135.56c0.67-1.36,69.62-107.16,69.62-107.16l69.62,107.3Z" transform="translate(485.22 85.04)"/>
			<path class="cls-4" d="M615.9,1135.51c0.89-1.81,92.88-143,92.88-143l92.88,143.14Z" transform="translate(485.22 85.04)"/>
			<path class="cls-4" d="M1009.55,1135.52c0.86-1.75,89.72-138.1,89.72-138.1L1189,1135.69Z" transform="translate(485.22 85.04)"/>
			<path class="cls-4" d="M1119.38,1135.56C1120,1134.2,1189,1028.4,1189,1028.4l69.62,107.3Z" transform="translate(485.22 85.04)"/>
			<path class="cls-4" d="M1227.28,1135.49c1-2,103.45-159.23,103.45-159.23l103.45,159.43Z" transform="translate(485.22 85.04)"/>
			<path class="cls-4" d="M1492.85,1135.53c0.79-1.61,82.58-127.1,82.58-127.1L1658,1135.69Z" transform="translate(485.22 85.04)"/>
			<path class="cls-4" d="M1594.81,1135.53c0.79-1.61,82.58-127.1,82.58-127.1L1760,1135.69Z" transform="translate(485.22 85.04)"/>
			<path class="cls-4" d="M1776.29,1135.53c0.79-1.61,82.58-127.1,82.58-127.1l82.58,127.27Z" transform="translate(485.22 85.04)"/>
		</g>
		<g id="_2nd_row" data-name="2nd row">
			<path class="cls-8" d="M1941.45,1135.39c-1.33-3-138.92-239.45-138.92-239.45l-138.92,239.75Z" transform="translate(485.22 85.04)"/>
		<path class="cls-8" d="M1715.14,1135.54c-0.67-1.52-69.62-120-69.62-120l-69.62,120.16Z" transform="translate(485.22 85.04)"/>
		<path class="cls-8" d="M1473.49,1135.54c-0.67-1.52-69.62-120-69.62-120l-69.62,120.16Z" transform="translate(485.22 85.04)"/>
		<path class="cls-8" d="M1383.77,1135.54c-0.67-1.52-69.62-120-69.62-120l-69.62,120.16Z" transform="translate(485.22 85.04)"/>
		<path class="cls-8" d="M1265.3,1135.49c-0.89-2-92.88-160.09-92.88-160.09l-92.88,160.29Z" transform="translate(485.22 85.04)"/>
		<path class="cls-8" d="M871.65,1135.5c-0.86-2-89.72-154.66-89.72-154.66L692.2,1135.69Z" transform="translate(485.22 85.04)"/>
		<path class="cls-8" d="M761.82,1135.54c-0.67-1.52-69.62-120-69.62-120l-69.62,120.16Z" transform="translate(485.22 85.04)"/>
		<path class="cls-8" d="M653.92,1135.47c-1-2.26-103.45-178.31-103.45-178.31L447,1135.69Z" transform="translate(485.22 85.04)"/>
		<path class="cls-8" d="M388.35,1135.51c-0.79-1.8-82.58-142.34-82.58-142.34L223.2,1135.69Z" transform="translate(485.22 85.04)"/>
		<path class="cls-8" d="M286.39,1135.51c-0.79-1.8-82.58-142.34-82.58-142.34l-82.58,142.52Z" transform="translate(485.22 85.04)"/>
		<path class="cls-8" d="M104.91,1135.51c-0.79-1.8-82.58-142.34-82.58-142.34l-82.58,142.52Z" transform="translate(485.22 85.04)"/>
	</g>
		<g id="_1st_row" data-name="1st row">
			<path class="cls-7" d="M-60.25,1135.52C-58.94,1133.8,76,1000,76,1000l136.25,135.71Z" transform="translate(485.22 85.04)"/>
		<path class="cls-7" d="M161.72,1135.61c0.65-.86,68.28-67.93,68.28-67.93l68.28,68Z" transform="translate(485.22 85.04)"/>
		<path class="cls-7" d="M398.72,1135.61c0.65-.86,68.28-67.93,68.28-67.93l68.28,68Z" transform="translate(485.22 85.04)"/>
		<path class="cls-7" d="M486.72,1135.61c0.65-.86,68.28-67.93,68.28-67.93l68.28,68Z" transform="translate(485.22 85.04)"/>
		<path class="cls-7" d="M602.91,1135.58C603.78,1134.43,694,1045,694,1045l91.09,90.73Z" transform="translate(485.22 85.04)"/>
		<path class="cls-7" d="M989,1135.58c0.84-1.11,88-87.54,88-87.54l88,87.65Z" transform="translate(485.22 85.04)"/>
		<path class="cls-7" d="M1096.72,1135.61c0.65-.86,68.28-67.93,68.28-67.93l68.28,68Z" transform="translate(485.22 85.04)"/>
		<path class="cls-7" d="M1202.54,1135.56c1-1.28,101.46-100.93,101.46-100.93l101.46,101.06Z" transform="translate(485.22 85.04)"/>
		<path class="cls-7" d="M1463,1135.59c0.78-1,81-80.57,81-80.57l81,80.67Z" transform="translate(485.22 85.04)"/>
		<path class="cls-7" d="M1563,1135.59c0.78-1,81-80.57,81-80.57l81,80.67Z" transform="translate(485.22 85.04)"/>
		<path class="cls-7" d="M1741,1135.59c0.78-1,81-80.57,81-80.57l81,80.67Z" transform="translate(485.22 85.04)"/>
	</g>
	</g>
	</g>
		<g id="lane_paint" data-name="lane paint">
			<path id="lane_paint_path" data-name="lane paint path" class="cls-9" d="M1011.79,2401h-79l18-621H991.9Zm-28.23-882H958.32l5-183h14.21Zm-7.43-225H964.49l1.45-50h8.58Zm-2-66h-7.59l0.64-24h6.16ZM973,1196h-5.62l0.4-14h4.8Zm-0.59-20h-4.46l0.22-8h3.93ZM972,1165h-3.71l0.16-7h3.32Zm-0.26-10h-3.17l0.08-5h2.89Zm-0.26-7h-2.76l0.09-3h2.55Zm-0.2-5h-2.45l0.14-2h2.28Zm-0.06-3H969v-3h2.06Z" transform="translate(485.22 85.04)"/>
	</g>
	</g>
		<g id="Hydro_Lines" data-name="Hydro Lines">
			<g id="hydro_poles" data-name="hydro poles">
			<g id="left_side">
				<polygon class="cls-3" points="527.98 1886.48 402.45 2035.37 395.91 719.02 523.95 743.79 527.98 1886.48"/>
				<polygon class="cls-3" points="683.6 928.64 0.13 774.96 0 762.86 683.59 922.64 683.6 928.64"/>
				<polygon class="cls-3" points="647.53 947.13 141.82 852.1 141.78 847.73 647.53 944.58 647.53 947.13"/>
				<polygon class="cls-3" points="387.96 1107.81 273.93 1111.01 272.92 956.99 387.26 970.01 387.96 1107.81"/>
				<polygon class="cls-3" points="660.04 1024.79 52.04 976.13 51.99 971.28 660.04 1022.2 660.04 1024.79"/>
				<polygon class="cls-3" points="584.7 1042.55 198.18 1023.56 198.24 1032.07 584.72 1048.23 584.7 1042.55"/>
				<polygon class="cls-3" points="1043.6 1507.76 1009.23 1561.83 1009.23 893.03 1043.69 896.66 1043.6 1507.76"/>
				<polygon class="cls-3" points="1092.13 989.79 921.9 941.72 921.9 936.44 1092.13 986.36 1092.13 989.79"/>
				<polygon class="cls-3" points="1081.22 1001.62 950.22 970.46 950.22 968.46 1081.22 1000.19 1081.22 1001.62"/>
				<polygon class="cls-3" points="1006.22 1089.83 978.7 1090.52 978.57 1016.17 1006.22 1020.27 1006.22 1089.83"/>
				<polygon class="cls-3" points="1085.22 1045.25 931.22 1028.73 931.22 1026.57 1085.22 1043.78 1085.22 1045.25"/>
				<polygon class="cls-3" points="1061.22 1055.59 962.22 1048.83 962.22 1052.82 1061.22 1058.69 1061.22 1055.59"/>
				<polygon class="cls-3" points="1232.24 1369.28 1216.49 1400.15 1216.78 952 1232.52 952.27 1232.24 1369.28"/>
				<polygon class="cls-3" points="1255.62 1014.31 1179.32 988.41 1179.32 985.03 1255.62 1011.91 1255.62 1014.31"/>
				<polygon class="cls-3" points="1250.22 1022.81 1191.22 1005.92 1191.22 1004.62 1250.22 1021.81 1250.22 1022.81"/>
				<polygon class="cls-3" points="1215.57 1083.74 1203.33 1084.04 1203.36 1035.01 1215.6 1037.21 1215.57 1083.74"/>
				<polygon class="cls-3" points="1251.22 1053.08 1183.22 1044.09 1183.22 1042.7 1251.22 1052.06 1251.22 1053.08"/>
				<polygon class="cls-3" points="1240.63 1060.59 1196.02 1056.73 1196.02 1059.35 1240.63 1062.73 1240.63 1060.59"/>
				<polygon class="cls-3" points="1329.98 1297.55 1320.99 1318.67 1321.25 981.71 1330.22 981.08 1329.98 1297.55"/>
				<polygon class="cls-3" points="1343.7 1027.55 1300.53 1010.42 1300.53 1007.94 1343.7 1025.7 1343.7 1027.55"/>
				<polygon class="cls-3" points="1341.22 1034.26 1307.33 1023 1307.55 1022.05 1341.22 1033.5 1341.22 1034.26"/>
				<polygon class="cls-3" points="1320.53 1080.75 1313.67 1080.9 1313.7 1044.33 1320.56 1045.79 1320.53 1080.75"/>
				<polygon class="cls-3" points="1342.22 1057.53 1303.03 1051.4 1303.22 1050.4 1342.22 1056.74 1342.22 1057.53"/>
				<polygon class="cls-3" points="1334.9 1063.23 1309.63 1060.58 1309.63 1062.52 1334.9 1064.87 1334.9 1063.23"/>
				<polygon class="cls-3" points="1389.76 1253.69 1383.95 1269.59 1384.16 999.61 1389.96 998.7 1389.76 1253.69"/>
				<polygon class="cls-3" points="1398.78 1035.84 1371.03 1023.25 1371.03 1021.28 1398.78 1034.34 1398.78 1035.84"/>
				<polygon class="cls-3" points="1396.22 1041.44 1374.86 1033.09 1374.77 1032.35 1396.22 1040.82 1396.22 1041.44"/>
				<polygon class="cls-3" points="1383.69 1078.96 1379.31 1079.06 1379.33 1049.89 1383.71 1050.97 1383.69 1078.96"/>
				<polygon class="cls-3" points="1397.22 1060.13 1372.31 1055.59 1372.29 1054.78 1397.22 1059.5 1397.22 1060.13"/>
				<polygon class="cls-3" points="1393.22 1064.87 1376.87 1062.87 1376.92 1064.41 1393.22 1066.19 1393.22 1064.87"/>
				<polygon class="cls-3" points="1430.1 1224.11 1426.04 1236.8 1426.21 1011.59 1430.26 1010.59 1430.1 1224.11"/>
				<polygon class="cls-3" points="1437.22 1041.52 1417.52 1031.65 1417.7 1030.02 1437.22 1040.25 1437.22 1041.52"/>
				<polygon class="cls-3" points="1435.22 1046.16 1420.22 1039.48 1420.22 1038.84 1435.22 1045.63 1435.22 1046.16"/>
				<polygon class="cls-3" points="1425.87 1077.78 1422.84 1077.84 1422.85 1053.59 1425.89 1054.43 1425.87 1077.78"/>
				<polygon class="cls-3" points="1436.22 1061.98 1417.22 1058.34 1417.22 1057.66 1436.22 1061.45 1436.22 1061.98"/>
				<polygon class="cls-3" points="1432.22 1066 1421.22 1064.39 1421.22 1065.67 1432.22 1067.1 1432.22 1066"/>
		</g>
		<g id="right_side">
			<polygon class="cls-3" points="2384.72 1888.48 2510.25 2037.37 2516.79 721.02 2388.75 745.79 2384.72 1888.48"/>
			<polygon class="cls-3" points="2229.1 930.64 2912.56 776.96 2912.7 764.86 2229.11 924.64 2229.1 930.64"/>
			<polygon class="cls-3" points="2265.16 949.13 2770.88 854.1 2770.91 849.73 2265.17 946.58 2265.16 949.13"/>
			<polygon class="cls-3" points="2524.73 1109.81 2638.76 1113.01 2639.78 958.99 2525.43 972.01 2524.73 1109.81"/>
			<polygon class="cls-3" points="2252.66 1026.79 2860.66 978.13 2860.71 973.28 2252.66 1024.2 2252.66 1026.79"/>
			<polygon class="cls-3" points="2328 1044.55 2714.52 1025.56 2714.45 1034.07 2327.98 1050.23 2328 1044.55"/>
			<polygon class="cls-3" points="1869.1 1509.76 1903.47 1563.83 1903.46 895.03 1869.01 898.66 1869.1 1509.76"/>
			<polygon class="cls-3" points="1820.56 991.79 1990.79 943.72 1990.8 938.44 1820.56 988.36 1820.56 991.79"/>
			<polygon class="cls-3" points="1831.22 1003.62 1962.22 972.46 1962.22 970.46 1831.22 1002.19 1831.22 1003.62"/>
			<polygon class="cls-3" points="1906.22 1091.83 1933.87 1092.52 1933.94 1018.17 1906.22 1022.27 1906.22 1091.83"/>
			<polygon class="cls-3" points="1827.22 1047.25 1981.22 1030.73 1981.22 1028.57 1827.22 1045.78 1827.22 1047.25"/>
			<polygon class="cls-3" points="1851.22 1057.59 1950.22 1050.83 1950.22 1054.82 1851.22 1060.69 1851.22 1057.59"/>
			<polygon class="cls-3" points="1680.46 1371.28 1696.2 1402.15 1695.91 954 1680.18 954.27 1680.46 1371.28"/>
			<polygon class="cls-3" points="1657.08 1016.31 1733.38 990.41 1733.37 987.03 1657.08 1013.91 1657.08 1016.31"/>
			<polygon class="cls-3" points="1662.22 1024.81 1721.22 1007.92 1721.22 1006.62 1662.22 1023.81 1662.22 1024.81"/>
			<polygon class="cls-3" points="1697.13 1085.74 1709.37 1086.04 1709.34 1037.01 1697.1 1039.21 1697.13 1085.74"/>
			<polygon class="cls-3" points="1661.22 1055.08 1729.22 1046.09 1729.22 1044.7 1661.22 1054.06 1661.22 1055.08"/>
			<polygon class="cls-3" points="1672.07 1062.59 1716.67 1058.73 1716.68 1061.35 1672.07 1064.73 1672.07 1062.59"/>
			<polygon class="cls-3" points="1582.72 1299.55 1591.71 1320.67 1591.45 983.71 1582.47 983.08 1582.72 1299.55"/>
			<polygon class="cls-3" points="1569 1029.55 1612.17 1012.42 1612.17 1009.94 1568.99 1027.7 1569 1029.55"/>
			<polygon class="cls-3" points="1571.22 1036.26 1605.23 1025 1604.95 1024.05 1571.22 1035.5 1571.22 1036.26"/>
			<polygon class="cls-3" points="1592.16 1082.75 1599.02 1082.9 1599 1046.33 1592.14 1047.79 1592.16 1082.75"/>
			<polygon class="cls-3" points="1570.22 1059.53 1609.54 1053.4 1609.28 1052.4 1570.22 1058.74 1570.22 1059.53"/>
			<polygon class="cls-3" points="1577.8 1065.23 1603.06 1062.58 1603.07 1064.52 1577.8 1066.87 1577.8 1065.23"/>
			<polygon class="cls-3" points="1522.94 1255.69 1528.74 1271.59 1528.53 1001.61 1522.74 1000.7 1522.94 1255.69"/>
			<polygon class="cls-3" points="1513.92 1037.84 1541.67 1025.25 1541.67 1023.28 1513.92 1036.34 1513.92 1037.84"/>
			<polygon class="cls-3" points="1516.22 1043.44 1537.71 1035.09 1537.73 1034.35 1516.22 1042.82 1516.22 1043.44"/>
			<polygon class="cls-3" points="1529 1080.96 1533.39 1081.06 1533.36 1051.89 1528.98 1052.97 1529 1080.96"/>
			<polygon class="cls-3" points="1515.22 1062.13 1540.25 1057.59 1540.21 1056.78 1515.22 1061.5 1515.22 1062.13"/>
			<polygon class="cls-3" points="1519.22 1066.87 1535.7 1064.87 1535.58 1066.41 1519.22 1068.19 1519.22 1066.87"/>
			<polygon class="cls-3" points="1482.6 1226.11 1486.66 1238.8 1486.49 1013.59 1482.44 1012.59 1482.6 1226.11"/>
			<polygon class="cls-3" points="1475.22 1043.52 1495.05 1033.65 1494.8 1032.02 1475.22 1042.25 1475.22 1043.52"/>
			<polygon class="cls-3" points="1477.22 1048.16 1492.22 1041.48 1492.22 1040.84 1477.22 1047.63 1477.22 1048.16"/>
			<polygon class="cls-3" points="1486.82 1079.78 1489.86 1079.84 1489.84 1055.59 1486.81 1056.43 1486.82 1079.78"/>
			<polygon class="cls-3" points="1476.22 1063.98 1495.22 1060.34 1495.22 1059.66 1476.22 1063.45 1476.22 1063.98"/>
			<polygon class="cls-3" points="1480.22 1068 1491.22 1066.39 1491.22 1067.67 1480.22 1069.1 1480.22 1068"/>
	</g>
	</g>
		<g id="wires">
			<g id="wires_left">
				<path class="cls-10" d="M941.5,947.31c-6.5,6.49-15,36.79-38.12-2.8,0,0-29.39,60.63-63-9.81,0,0-42.25,86.53-98.54-15.12,0,0-117.47,95.37-194.9-34.16,0,0-322.62,240.18-544-106.3" transform="translate(485.22 85.04)"/>
			<path class="cls-10" d="M941.5,969.31c-6.5,6.49-15,36.79-38.12-2.8,0,0-29.39,60.63-63-9.81,0,0-42.25,86.53-98.54-15.12,0,0-117.47,95.37-194.9-34.16,0,0-322.62,240.18-544-106.3" transform="translate(485.22 85.04)"/>
			<path class="cls-10" d="M941.5,961.31c-6.5,6.49-15,36.79-38.12-2.8,0,0-29.39,60.63-63-9.81,0,0-42.25,86.53-98.54-15.12,0,0-117.47,95.37-194.9-34.16,0,0-322.62,240.18-544-106.3" transform="translate(485.22 85.04)"/>
		</g>
		<g id="wires_right">
			<path class="cls-10" d="M1008,950.31c6.5,6.49,15,36.79,38.12-2.8,0,0,29.39,60.63,63-9.81,0,0,42.25,86.53,98.54-15.12,0,0,117.47,95.37,194.9-34.16,0,0,322.62,240.18,544-106.3" transform="translate(485.22 85.04)"/>
		<path class="cls-10" d="M1008,972.31c6.5,6.49,15,36.79,38.12-2.8,0,0,29.39,60.63,63-9.81,0,0,42.25,86.53,98.54-15.12,0,0,117.47,95.37,194.9-34.16,0,0,322.62,240.18,544-106.3" transform="translate(485.22 85.04)"/>
		<path class="cls-10" d="M1008,964.31c6.5,6.49,15,36.79,38.12-2.8,0,0,29.39,60.63,63-9.81,0,0,42.25,86.53,98.54-15.12,0,0,117.47,95.37,194.9-34.16,0,0,322.62,240.18,544-106.3" transform="translate(485.22 85.04)"/>
	</g>
	</g>
	</g>
</svg>