<svg id="Layer_12" data-name="Layer 12" xmlns="http://www.w3.org/2000/svg" viewBox="0 0 2912.7 1767.02">
<defs>
<style>.cls-1{fill:#333;}.cls-2{fill:#666;}.cls-3{fill:#999;}.cls-4{fill:#4d4d4d;}.cls-5{fill:#b3b3b3;}.cls-6{fill:gray;}.cls-7{fill:#fff;}.cls-8{fill:none;stroke:#333;stroke-miterlimit:10;stroke-width:2px;}</style>
</defs>
<title>base_road03</title>

<g id="skyscrapers">

	<g id="skyscrapers_back">

		<rect class="cls-1" x="1343.7" y="162.14" width="31.07" height="336.97"/>
		<rect class="cls-1" x="1286.87" y="195.02" width="38.74" height="316"/>
		<rect class="cls-1" x="1395.09" y="219.42" width="26.13" height="291.6"/>
		<rect class="cls-1" x="1475.22" y="209.63" width="21.79" height="306.4"/>
		<rect class="cls-1" x="1513.92" y="130.71" width="31.74" height="373.47"/>
		<rect class="cls-1" x="1562.22" y="219.42" width="27.66" height="311.6"/>
		<rect class="cls-1" x="1443.54" y="359.19" width="25.23" height="147.83"/>
		<rect class="cls-1" x="1421.22" y="268.01" width="16" height="243.01"/>
	</g>
	<g id="skyscrapers_middle">
		<rect class="cls-2" x="1612.17" y="272.77" width="38.05" height="245.75"/>
		<rect class="cls-2" x="1605.23" y="148.14" width="17.99" height="369.64"/>
		<rect class="cls-2" x="1389.76" y="77.02" width="18.39" height="457.65"/>
		<rect class="cls-2" x="1545.66" y="77.02" width="16.56" height="435.5"/>
		<rect class="cls-2" x="1408.15" y="130.71" width="19.21" height="403.96"/>
		<rect class="cls-2" x="1306.24" y="87.02" width="28.66" height="440.5"/>
		<rect class="cls-2" x="1650.22" y="170.14" width="17.6" height="338.88"/>
	</g>
	<g id="skyscrapers_front">
		<rect class="cls-3" x="1437.22" y="195.02" width="16.13" height="339"/>
		<rect class="cls-3" x="1250.22" y="268.01" width="20.09" height="259.51"/>
		<rect class="cls-3" x="1703.24" y="299.15" width="25.98" height="228.37"/>
		<rect class="cls-3" x="811.22" y="711.02" width="25.98" height="228.37"/>
		<rect class="cls-3" x="1486.81" y="167.14" width="27.11" height="366.88"/>
		<rect class="cls-3" x="1255.62" y="232.98" width="41.81" height="284.8"/>
	</g>
</g>

<g id="base">
	<g id="road">
		<rect class="cls-4" x="488.21" y="491.82" width="1900" height="810.5"/>
	</g>
	<g id="skyline">
		<g id="buildings1">
			<rect class="cls-1" x="526.39" y="398.25" width="60.57" height="104.17"/>
			<rect class="cls-1" x="672.52" y="375.37" width="60.57" height="127.05"/>
			<rect class="cls-1" x="911.37" y="376.93" width="60.57" height="125.49"/>
			<rect class="cls-1" x="1236.86" y="348" width="60.57" height="154.41"/>
			<rect class="cls-1" x="1637.54" y="348" width="60.57" height="154.41"/>
			<rect class="cls-1" x="1917.94" y="393.79" width="60.57" height="110.39"/>
			<rect class="cls-1" x="2017.94" y="344.7" width="60.57" height="154.41"/>
		</g>
		<g id="buildings2">
			<rect class="cls-4" x="1193.99" y="299.6" width="38.22" height="204.58"/>
			<rect class="cls-4" x="1069.02" y="329.88" width="38.22" height="174.3"/>
			<rect class="cls-4" x="1463.5" y="264.65" width="38.22" height="239.53"/>
			<rect class="cls-4" x="1356.87" y="318" width="38.22" height="186.19"/>
			<rect class="cls-4" x="1545.66" y="318" width="38.22" height="186.19"/>
			<rect class="cls-4" x="2143.49" y="329.41" width="64.91" height="174.77"/>
			<rect class="cls-4" x="2294.16" y="360.06" width="64.91" height="144.12"/>
		</g>
	</g>
	<g id="road-2" data-name="road">
		<path id="road-3" data-name="road" class="cls-5" d="M16,1266c9.09-10,950-788.9,950-788.9L1916,1267Z" transform="translate(488.22 25.02)"/>
		<g id="trees">
			<g id="_3rd_row" data-name="3rd row">
				<path class="cls-2" d="M-63.25,476.42C-61.92,473.71,75.67,262.6,75.67,262.6L214.59,476.69Z" transform="translate(488.22 25.02)"/>
				<path class="cls-2" d="M163.07,476.56c0.67-1.36,69.62-107.16,69.62-107.16l69.62,107.3Z" transform="translate(488.22 25.02)"/>
				<path class="cls-2" d="M404.71,476.56c0.67-1.36,69.62-107.16,69.62-107.16l69.62,107.3Z" transform="translate(488.22 25.02)"/>
				<path class="cls-2" d="M494.43,476.56c0.67-1.36,69.62-107.16,69.62-107.16l69.62,107.3Z" transform="translate(488.22 25.02)"/>
				<path class="cls-2" d="M612.9,476.51c0.89-1.81,92.88-143,92.88-143l92.88,143.14Z" transform="translate(488.22 25.02)"/>
				<path class="cls-2" d="M1006.55,476.52c0.86-1.75,89.72-138.1,89.72-138.1L1186,476.69Z" transform="translate(488.22 25.02)"/>
				<path class="cls-2" d="M1116.38,476.56C1117,475.2,1186,369.4,1186,369.4l69.62,107.3Z" transform="translate(488.22 25.02)"/>
				<path class="cls-2" d="M1224.28,476.49c1-2,103.45-159.23,103.45-159.23l103.45,159.43Z" transform="translate(488.22 25.02)"/>
				<path class="cls-2" d="M1489.85,476.53c0.79-1.61,82.58-127.1,82.58-127.1L1655,476.69Z" transform="translate(488.22 25.02)"/>
				<path class="cls-2" d="M1591.81,476.53c0.79-1.61,82.58-127.1,82.58-127.1L1757,476.69Z" transform="translate(488.22 25.02)"/>
				<path class="cls-2" d="M1773.29,476.53c0.79-1.61,82.58-127.1,82.58-127.1l82.58,127.27Z" transform="translate(488.22 25.02)"/>
			</g>
			<g id="_2nd_row" data-name="2nd row">
				<path class="cls-6" d="M1938.45,476.39c-1.33-3-138.92-239.45-138.92-239.45L1660.62,476.69Z" transform="translate(488.22 25.02)"/>
				<path class="cls-6" d="M1712.14,476.54c-0.67-1.52-69.62-120-69.62-120l-69.62,120.16Z" transform="translate(488.22 25.02)"/>
				<path class="cls-6" d="M1470.49,476.54c-0.67-1.52-69.62-120-69.62-120l-69.62,120.16Z" transform="translate(488.22 25.02)"/>
				<path class="cls-6" d="M1380.77,476.54c-0.67-1.52-69.62-120-69.62-120l-69.62,120.16Z" transform="translate(488.22 25.02)"/>
				<path class="cls-6" d="M1262.3,476.49c-0.89-2-92.88-160.09-92.88-160.09l-92.88,160.29Z" transform="translate(488.22 25.02)"/>
				<path class="cls-6" d="M868.65,476.5c-0.86-2-89.72-154.66-89.72-154.66L689.2,476.69Z" transform="translate(488.22 25.02)"/>
				<path class="cls-6" d="M758.82,476.54c-0.67-1.52-69.62-120-69.62-120L619.58,476.69Z" transform="translate(488.22 25.02)"/>
				<path class="cls-6" d="M650.92,476.47c-1-2.26-103.45-178.31-103.45-178.31L444,476.69Z" transform="translate(488.22 25.02)"/>
				<path class="cls-6" d="M385.35,476.51c-0.79-1.8-82.58-142.34-82.58-142.34L220.2,476.69Z" transform="translate(488.22 25.02)"/>
				<path class="cls-6" d="M283.39,476.51c-0.79-1.8-82.58-142.34-82.58-142.34L118.24,476.69Z" transform="translate(488.22 25.02)"/>
				<path class="cls-6" d="M101.91,476.51c-0.79-1.8-82.58-142.34-82.58-142.34L-63.25,476.69Z" transform="translate(488.22 25.02)"/>
			</g>
			<g id="_1st_row" data-name="1st row">
				<path class="cls-5" d="M-63.25,476.52C-61.94,474.8,73,341,73,341L209.25,476.69Z" transform="translate(488.22 25.02)"/>
				<path class="cls-5" d="M158.72,476.61c0.65-.86,68.28-67.93,68.28-67.93l68.28,68Z" transform="translate(488.22 25.02)"/>
				<path class="cls-5" d="M395.72,476.61c0.65-.86,68.28-67.93,68.28-67.93l68.28,68Z" transform="translate(488.22 25.02)"/>
				<path class="cls-5" d="M483.72,476.61c0.65-.86,68.28-67.93,68.28-67.93l68.28,68Z" transform="translate(488.22 25.02)"/>
				<path class="cls-5" d="M599.91,476.58C600.78,475.43,691,386,691,386l91.09,90.73Z" transform="translate(488.22 25.02)"/>
				<path class="cls-5" d="M986,476.58c0.84-1.11,88-87.54,88-87.54l88,87.65Z" transform="translate(488.22 25.02)"/>
				<path class="cls-5" d="M1093.72,476.61c0.65-.86,68.28-67.93,68.28-67.93l68.28,68Z" transform="translate(488.22 25.02)"/>
				<path class="cls-5" d="M1199.54,476.56c1-1.28,101.46-100.93,101.46-100.93l101.46,101.06Z" transform="translate(488.22 25.02)"/>
				<path class="cls-5" d="M1460,476.59c0.78-1,81-80.57,81-80.57l81,80.67Z" transform="translate(488.22 25.02)"/>
				<path class="cls-5" d="M1560,476.59c0.78-1,81-80.57,81-80.57l81,80.67Z" transform="translate(488.22 25.02)"/>
				<path class="cls-5" d="M1738,476.59c0.78-1,81-80.57,81-80.57l81,80.67Z" transform="translate(488.22 25.02)"/>
			</g>
		</g>
	</g>
</g>
<g id="lane_paint" data-name="lane paint">
	<path id="lane_paint_path" data-name="lane paint path" class="cls-7" d="M1008.79,1742h-79l18-621H988.9ZM980.55,860H955.32l5-183h14.21Zm-7.43-225H961.49l1.45-50h8.58Zm-2-66h-7.59l0.64-24h6.16ZM970,537h-5.62l0.4-14h4.8Zm-0.59-20h-4.46l0.22-8h3.93ZM969,506h-3.71l0.16-7h3.32Zm-0.26-10h-3.17l0.08-5h2.89Zm-0.26-7h-2.76l0.09-3h2.55Zm-0.2-5h-2.45l0.14-2h2.28Zm-0.06-3H966v-3h2.06Z" transform="translate(488.22 25.02)"/>
</g>
<g id="Hydro_Lines" data-name="Hydro Lines">
	<g id="hydro_poles" data-name="hydro poles">
		<g id="left_side">
			<polygon class="cls-1" points="527.98 1167.46 402.45 1316.35 395.91 0 523.95 24.77 527.98 1167.46"/>
			<polygon class="cls-1" points="683.6 209.63 0.13 55.94 0 43.84 683.59 203.62 683.6 209.63"/>
			<polygon class="cls-1" points="647.53 228.11 141.82 133.08 141.78 128.71 647.53 225.56 647.53 228.11"/>
			<polygon class="cls-1" points="387.96 388.79 273.93 391.99 272.92 237.97 387.26 250.99 387.96 388.79"/>
			<polygon class="cls-1" points="660.04 305.77 52.04 257.11 51.99 252.26 660.04 303.18 660.04 305.77"/>
			<polygon class="cls-1" points="584.7 323.53 198.18 304.54 198.24 313.06 584.72 329.21 584.7 323.53"/>
			<polygon class="cls-1" points="1043.6 788.74 1009.23 842.81 1009.23 174.01 1043.69 177.65 1043.6 788.74"/>
			<polygon class="cls-1" points="1092.13 270.77 921.9 222.7 921.9 217.42 1092.13 267.34 1092.13 270.77"/>
			<polygon class="cls-1" points="1081.22 282.6 950.22 251.44 950.22 249.44 1081.22 281.17 1081.22 282.6"/>
			<polygon class="cls-1" points="1006.22 370.81 978.7 371.5 978.57 297.15 1006.22 301.25 1006.22 370.81"/>
			<polygon class="cls-1" points="1085.22 326.23 931.22 309.71 931.22 307.55 1085.22 324.76 1085.22 326.23"/>
			<polygon class="cls-1" points="1061.22 336.57 962.22 329.81 962.22 333.8 1061.22 339.67 1061.22 336.57"/>
			<polygon class="cls-1" points="1232.24 650.26 1216.49 681.13 1216.78 232.98 1232.52 233.25 1232.24 650.26"/>
			<polygon class="cls-1" points="1255.62 295.3 1179.32 269.39 1179.32 266.01 1255.62 292.89 1255.62 295.3"/>
			<polygon class="cls-1" points="1250.22 303.79 1191.22 286.9 1191.22 285.6 1250.22 302.8 1250.22 303.79"/>
			<polygon class="cls-1" points="1215.57 364.72 1203.33 365.02 1203.36 315.99 1215.6 318.19 1215.57 364.72"/>
			<polygon class="cls-1" points="1251.22 334.06 1183.22 325.07 1183.22 323.68 1251.22 333.04 1251.22 334.06"/>
			<polygon class="cls-1" points="1240.63 341.57 1196.02 337.72 1196.02 340.33 1240.63 343.71 1240.63 341.57"/>
			<polygon class="cls-1" points="1329.98 578.53 1320.99 599.65 1321.25 262.69 1330.22 262.06 1329.98 578.53"/>
			<polygon class="cls-1" points="1343.7 308.53 1300.53 291.41 1300.53 288.92 1343.7 306.68 1343.7 308.53"/>
			<polygon class="cls-1" points="1341.22 315.24 1307.33 303.99 1307.55 303.03 1341.22 314.48 1341.22 315.24"/>
			<polygon class="cls-1" points="1320.53 361.73 1313.67 361.89 1313.7 325.31 1320.56 326.77 1320.53 361.73"/>
			<polygon class="cls-1" points="1342.22 338.51 1303.03 332.38 1303.22 331.38 1342.22 337.73 1342.22 338.51"/>
			<polygon class="cls-1" points="1334.9 344.21 1309.63 341.56 1309.63 343.5 1334.9 345.85 1334.9 344.21"/>
			<polygon class="cls-1" points="1389.76 534.67 1383.95 550.57 1384.16 280.59 1389.96 279.68 1389.76 534.67"/>
			<polygon class="cls-1" points="1398.78 316.82 1371.03 304.23 1371.03 302.26 1398.78 315.32 1398.78 316.82"/>
			<polygon class="cls-1" points="1396.22 322.42 1374.86 314.07 1374.77 313.33 1396.22 321.8 1396.22 322.42"/>
			<polygon class="cls-1" points="1383.69 359.94 1379.31 360.04 1379.33 330.87 1383.71 331.95 1383.69 359.94"/>
			<polygon class="cls-1" points="1397.22 341.11 1372.31 336.57 1372.29 335.76 1397.22 340.48 1397.22 341.11"/>
			<polygon class="cls-1" points="1393.22 345.86 1376.87 343.85 1376.92 345.39 1393.22 347.18 1393.22 345.86"/>
			<polygon class="cls-1" points="1430.1 505.09 1426.04 517.78 1426.21 292.57 1430.26 291.57 1430.1 505.09"/>
			<polygon class="cls-1" points="1437.22 322.5 1417.52 312.63 1417.7 311 1437.22 321.23 1437.22 322.5"/>
			<polygon class="cls-1" points="1435.22 327.14 1420.22 320.46 1420.22 319.82 1435.22 326.62 1435.22 327.14"/>
			<polygon class="cls-1" points="1425.87 358.76 1422.84 358.82 1422.85 334.57 1425.89 335.41 1425.87 358.76"/>
			<polygon class="cls-1" points="1436.22 342.96 1417.22 339.32 1417.22 338.65 1436.22 342.43 1436.22 342.96"/>
			<polygon class="cls-1" points="1432.22 346.98 1421.22 345.37 1421.22 346.65 1432.22 348.08 1432.22 346.98"/>
		</g>
		<g id="right_side">
			<polygon class="cls-1" points="2384.72 1169.46 2510.25 1318.35 2516.79 2 2388.75 26.77 2384.72 1169.46"/>
			<polygon class="cls-1" points="2229.1 211.63 2912.56 57.94 2912.7 45.84 2229.11 205.62 2229.1 211.63"/>
			<polygon class="cls-1" points="2265.16 230.11 2770.88 135.08 2770.91 130.71 2265.17 227.56 2265.16 230.11"/>
			<polygon class="cls-1" points="2524.73 390.79 2638.76 393.99 2639.78 239.97 2525.43 252.99 2524.73 390.79"/>
			<polygon class="cls-1" points="2252.66 307.77 2860.66 259.11 2860.71 254.26 2252.66 305.18 2252.66 307.77"/>
			<polygon class="cls-1" points="2328 325.53 2714.52 306.54 2714.45 315.06 2327.98 331.21 2328 325.53"/>
			<polygon class="cls-1" points="1869.1 790.74 1903.47 844.81 1903.46 176.01 1869.01 179.65 1869.1 790.74"/>
			<polygon class="cls-1" points="1820.56 272.77 1990.79 224.7 1990.8 219.42 1820.56 269.34 1820.56 272.77"/>
			<polygon class="cls-1" points="1831.22 284.6 1962.22 253.44 1962.22 251.44 1831.22 283.17 1831.22 284.6"/>
			<polygon class="cls-1" points="1906.22 372.81 1933.87 373.5 1933.94 299.15 1906.22 303.25 1906.22 372.81"/>
			<polygon class="cls-1" points="1827.22 328.23 1981.22 311.71 1981.22 309.55 1827.22 326.76 1827.22 328.23"/>
			<polygon class="cls-1" points="1851.22 338.57 1950.22 331.81 1950.22 335.8 1851.22 341.67 1851.22 338.57"/>
			<polygon class="cls-1" points="1680.46 652.26 1696.2 683.13 1695.91 234.98 1680.18 235.25 1680.46 652.26"/>
			<polygon class="cls-1" points="1657.08 297.3 1733.38 271.39 1733.37 268.01 1657.08 294.89 1657.08 297.3"/>
			<polygon class="cls-1" points="1662.22 305.79 1721.22 288.9 1721.22 287.6 1662.22 304.8 1662.22 305.79"/>
			<polygon class="cls-1" points="1697.13 366.72 1709.37 367.02 1709.34 317.99 1697.1 320.19 1697.13 366.72"/>
			<polygon class="cls-1" points="1661.22 336.06 1729.22 327.07 1729.22 325.68 1661.22 335.04 1661.22 336.06"/>
			<polygon class="cls-1" points="1672.07 343.57 1716.67 339.72 1716.68 342.33 1672.07 345.71 1672.07 343.57"/>
			<polygon class="cls-1" points="1582.72 580.53 1591.71 601.65 1591.45 264.69 1582.47 264.06 1582.72 580.53"/>
			<polygon class="cls-1" points="1569 310.53 1612.17 293.41 1612.17 290.92 1568.99 308.68 1569 310.53"/>
			<polygon class="cls-1" points="1571.22 317.24 1605.23 305.99 1604.95 305.03 1571.22 316.48 1571.22 317.24"/>
			<polygon class="cls-1" points="1592.16 363.73 1599.02 363.89 1599 327.31 1592.14 328.77 1592.16 363.73"/>
			<polygon class="cls-1" points="1570.22 340.51 1609.54 334.38 1609.28 333.38 1570.22 339.73 1570.22 340.51"/>
			<polygon class="cls-1" points="1577.8 346.21 1603.06 343.56 1603.07 345.5 1577.8 347.85 1577.8 346.21"/>
			<polygon class="cls-1" points="1522.94 536.67 1528.74 552.57 1528.53 282.59 1522.74 281.68 1522.94 536.67"/>
			<polygon class="cls-1" points="1513.92 318.82 1541.67 306.23 1541.67 304.26 1513.92 317.32 1513.92 318.82"/>
			<polygon class="cls-1" points="1516.22 324.42 1537.71 316.07 1537.73 315.33 1516.22 323.8 1516.22 324.42"/>
			<polygon class="cls-1" points="1529 361.94 1533.39 362.04 1533.36 332.87 1528.98 333.95 1529 361.94"/>
			<polygon class="cls-1" points="1515.22 343.11 1540.25 338.57 1540.21 337.76 1515.22 342.48 1515.22 343.11"/>
			<polygon class="cls-1" points="1519.22 347.86 1535.7 345.85 1535.58 347.39 1519.22 349.18 1519.22 347.86"/>
			<polygon class="cls-1" points="1482.6 507.09 1486.66 519.78 1486.49 294.57 1482.44 293.57 1482.6 507.09"/>
			<polygon class="cls-1" points="1475.22 324.5 1495.05 314.63 1494.8 313 1475.22 323.23 1475.22 324.5"/>
			<polygon class="cls-1" points="1477.22 329.14 1492.22 322.46 1492.22 321.82 1477.22 328.62 1477.22 329.14"/>
			<polygon class="cls-1" points="1486.82 360.76 1489.86 360.82 1489.84 336.57 1486.81 337.41 1486.82 360.76"/>
			<polygon class="cls-1" points="1476.22 344.96 1495.22 341.32 1495.22 340.65 1476.22 344.43 1476.22 344.96"/>
			<polygon class="cls-1" points="1480.22 348.98 1491.22 347.37 1491.22 348.65 1480.22 350.08 1480.22 348.98"/>
		</g>
	</g>
	<g id="wires">
		<g id="wires_left">
			<path class="cls-8" d="M938.5,288.31c-6.5,6.49-15,36.79-38.12-2.8,0,0-29.39,60.63-63-9.81,0,0-42.25,86.53-98.54-15.12,0,0-117.47,95.37-194.9-34.16,0,0-322.62,240.18-544-106.3" transform="translate(488.22 25.02)"/>
			<path class="cls-8" d="M938.5,310.31c-6.5,6.49-15,36.79-38.12-2.8,0,0-29.39,60.63-63-9.81,0,0-42.25,86.53-98.54-15.12,0,0-117.47,95.37-194.9-34.16,0,0-322.62,240.18-544-106.3" transform="translate(488.22 25.02)"/>
			<path class="cls-8" d="M938.5,302.31c-6.5,6.49-15,36.79-38.12-2.8,0,0-29.39,60.63-63-9.81,0,0-42.25,86.53-98.54-15.12,0,0-117.47,95.37-194.9-34.16,0,0-322.62,240.18-544-106.3" transform="translate(488.22 25.02)"/>
		</g>
		<g id="wires_right">
			<path class="cls-8" d="M1005,291.31c6.5,6.49,15,36.79,38.12-2.8,0,0,29.39,60.63,63-9.81,0,0,42.25,86.53,98.54-15.12,0,0,117.47,95.37,194.9-34.16,0,0,322.62,240.18,544-106.3" transform="translate(488.22 25.02)"/>
			<path class="cls-8" d="M1005,313.31c6.5,6.49,15,36.79,38.12-2.8,0,0,29.39,60.63,63-9.81,0,0,42.25,86.53,98.54-15.12,0,0,117.47,95.37,194.9-34.16,0,0,322.62,240.18,544-106.3" transform="translate(488.22 25.02)"/>
			<path class="cls-8" d="M1005,305.31c6.5,6.49,15,36.79,38.12-2.8,0,0,29.39,60.63,63-9.81,0,0,42.25,86.53,98.54-15.12,0,0,117.47,95.37,194.9-34.16,0,0,322.62,240.18,544-106.3" transform="translate(488.22 25.02)"/>
		</g>
	</g>
</g>
</svg>