<svg id="addtl_pieces" xmlns="http://www.w3.org/2000/svg" viewBox="0 0 1347.03 798.91">
	<defs>
		<style>.extraPieces-1{opacity:0.65;}.extraPieces-2{fill:aqua;}.extraPieces-3{fill:#0b5f63;stroke:aqua;stroke-miterlimit:10;stroke-width:2px;}</style>
	</defs>
	<title>addtl_dataObjects</title>
		<g id="extraPieces">
			<g id="extraPiecesBase" class="extraPieces-1">
				<polygon class="extraPieces-2" points="552 0 488.54 45.31 504.24 70.17 525.21 39.15 554.24 39.07 552 0"/>
				<polygon class="extraPieces-2" points="620.04 67.1 610.58 71.01 608.81 75.03 555.61 54.95 568.46 47.84 558.07 43.85 554.84 6.17 620.04 67.1"/>
				<path class="extraPieces-2" d="M946.27,544.6c-2,.91-9.52,11.77-9.52,11.77l-28.5-.28v6.85l33,29.31L964.7,592l30.78-25.81-21.72,1.44-14.41-21.38Z" transform="translate(-466.99 -461.09)"/>
				<polygon class="extraPieces-2" points="547.22 103.17 600.44 149.17 604.89 188.89 643.11 176.41 638.01 166.2 693.03 138.06 638.63 130.91 603.73 95.18 613.23 79.68 547.22 103.17"/>
				<path class="extraPieces-2" d="M877.84,613c-2.41,2.07-69.35,21.57-69.35,21.57L802,641.43l21.2,25.88,46.76-9,33.83-5,20.59-14.5,14-38.84-50.69-1.25Z" transform="translate(-466.99 -461.09)"/>
				<path class="extraPieces-2" d="M1189.11,715l-91.53-40.85,22.63-23,0.19-13s38.67-23.33,40.47-24.27,13,5.39,13,5.39l22.84,21.81-29.16,28.16,86.43,43Z" transform="translate(-466.99 -461.09)"/>
				<polygon class="extraPieces-2" points="556.01 69.16 512.37 70.18 542.78 93.19 600.03 79.02 556.01 69.16"/>
				<polyline class="extraPieces-2" points="323.32 188.45 185.07 307.66 186.49 326.17 297.24 327.17 309.06 353.1 406.32 353.17 471.34 283.3 375.76 282.92 326 192.78"/>
				<polygon class="extraPieces-2" points="626.96 232.17 557.35 231.43 519.49 252.97 518.38 271.2 560.83 272.54 633.41 323.91 728 323.91 746.52 302.11 715.45 258.46 626.96 232.17"/>
				<polygon class="extraPieces-2" points="196.31 379.67 101.29 421.09 81.12 447.48 195.88 444.17 196.53 461.87 167.8 502.13 172.37 696.17 327.73 702.07 395.5 613.31 287 382.17 196.31 379.67"/>
				<polygon class="extraPieces-2" points="56.02 507.69 134.39 505.15 149.13 715.43 265.29 717.98 283.33 766.99 0 764.09 56.02 507.69"/>
				<polygon class="extraPieces-2" points="610.21 323.33 557.94 369.94 565.52 536.23 603.5 588.09 686.31 535.83 755 542.04 721.06 467.89 760.58 441.75 705.88 339.17 610.21 323.33"/>
				<polygon class="extraPieces-2" points="777.64 798.91 699.6 688.32 739 680.53 655.82 581.78 722.37 577.05 794.68 647.12 839.74 647.95 1012.17 798.91 777.64 798.91"/>
				<polygon class="extraPieces-2" points="956.03 700.45 1042.34 699.9 983.23 613.37 1134.38 584.24 1257.35 688.48 1347.03 747.42 1327.07 780.91 1037 780.91 956.03 700.45"/>
			</g>
			<g id="extraPiecesObjects">
				<polygon class="extraPieces-3" points="548.27 6.75 490.18 48.23 504.55 70.98 523.75 42.59 550.32 42.51 548.27 6.75"/>
				<polygon class="extraPieces-3" points="621.56 75.17 612.9 78.75 611.28 82.43 562.58 64.06 574.34 57.54 564.83 53.89 561.87 19.39 621.56 75.17"/>
				<path class="extraPieces-3" d="M945.28,549.83c-1.6.73-7.7,9.52-7.7,9.52l-23.05-.23v5.54l26.71,23.71,19-.22,24.9-20.87-17.57,1.16-11.66-17.29Z" transform="translate(-466.99 -461.09)"/>
				<polygon class="extraPieces-3" points="558.17 108.32 602.78 146.76 606.51 179.96 638.54 169.52 634.27 160.99 680.38 137.48 634.79 131.5 605.54 101.64 613.5 88.7 558.17 108.32"/>
				<path class="extraPieces-3" d="M879.28,615.84c-2.12,1.74-61,18.09-61,18.09l-5.72,5.71,18.64,21.69,41.11-7.59,29.74-4.2,18.1-12.15,12.29-32.56-44.56-1Z" transform="translate(-466.99 -461.09)"/>
				<path class="extraPieces-3" d="M1186,714.31l-83.8-37.39,20.71-21.07,0.18-11.91s35.4-21.36,37-22.22,11.88,4.94,11.88,4.94l20.91,20-26.69,25.78,79.13,39.39Z" transform="translate(-466.99 -461.09)"/>
				<polygon class="extraPieces-3" points="551.94 67.06 511.99 68 539.83 89.06 592.24 76.09 551.94 67.06"/>
				<polyline class="extraPieces-3" points="321.36 209.74 207.31 308.07 208.49 323.33 299.84 324.16 309.59 345.55 389.82 345.61 443.46 287.97 364.62 287.66 323.57 213.3"/>
				<polygon class="extraPieces-3" points="624.3 243.87 578.41 243.38 553.45 257.59 552.72 269.6 580.7 270.26 628.55 303.91 690.91 303.91 703.13 289.76 682.64 261.09 624.3 243.87"/>
				<polygon class="extraPieces-3" points="208.34 393.89 117.65 419.25 105.35 435.34 205.74 436.53 218 457.66 194.27 503.67 182.72 671.08 324.95 676.48 369.75 617.82 274.76 390.03 208.34 393.89"/>
				<polygon class="extraPieces-3" points="65.24 536.23 123.81 534.1 135.81 727.17 226.8 729.25 235.12 754.73 23.37 752.29 65.24 536.23"/>
				<polygon class="extraPieces-3" points="613.12 350.75 571.19 388.14 577.27 521.53 607.74 563.14 674.16 521.21 729.26 526.2 702.04 466.72 733.74 445.75 689.86 363.46 613.12 350.75"/>
				<polygon class="extraPieces-3" points="779.75 782.91 722.01 688.48 751.16 681.79 689.62 597.53 738.85 593.48 792.35 653.25 825.68 654.05 953.25 782.91 779.75 782.91"/>
				<polygon class="extraPieces-3" points="979.68 695.41 1049.63 694.82 1001.73 624.62 1124.23 600.98 1223.9 685.44 1296.59 733.49 1280.4 760.91 1045.31 760.91 979.68 695.41"/>
			</g>
		</g>

</svg>