

<svg  id="sky" xmlns="http://www.w3.org/2000/svg" xmlns:xlink="http://www.w3.org/1999/xlink">

	<style>
	.circuits-1,
	.circuits-11,
	.circuits-12,
	.circuits-2,
	.circuits-3,
	.circuits-4,
	.circuits-5,
	.circuits-9{fill:none;}

	.circuits-1,
	.circuits-11,
	.circuits-12,
	.circuits-2,
	.circuits-3,
	.circuits-4,
	.circuits-5,
	.circuits-8,
	.circuits-9{stroke-miterlimit:10;}
	/*.circuits-1{stroke:#f15a24;}
	.circuits-2{stroke:red;}
	.circuits-3{stroke:#f0f;}
	.circuits-4{stroke:#ff0;}
	.circuits-5{stroke:lime;}
	.circuits-9{stroke:#29abe2;}
	.circuits-11{stroke:#93278f;}
	.circuits-12{stroke:blue;}
	.circuits-13{opacity:0.61;}*/
	.circuits-8{
		stroke-width:3px;
		transform-origin: 50% 50%;

	}

	</style>
	
	<g id="theCircuits">
		<g id="circuitSequence01">
			<g id="roadCircuit1Left" data-name="02_left">
				<path id="_01" data-name="01" class="circuits-1" d="M913.17 0.39 926.14 10.67 924.01 13.65 931.66 20.45 947.81 20.45 950.96 18.75 954.33 22.27 970.84 22.27 984.31 22.62 991.52 27.35 1014.05 27.35 1014.61 29.84"/>
				<g id="_02" data-name="02">
					<ellipse class="circuits-1" cx="989.44" cy="39.75" rx="2.08" ry="1.58"/>
					<path id="_02-2" data-name="02" class="circuits-1" d="M921.17 7.22 913.81 16.73 922.9 27.77 942.46 27.77 952.41 23.02 980.03 23.34 987.34 28.44 989.05 38.03"/>
				</g>
				<g id="_03" data-name="03">
					<path class="circuits-1" d="M980.12 32.42 973.58 28.79 949.33 29.3 940.09 35.74"/>
					<ellipse class="circuits-1" cx="939.7" cy="36.83" rx="1.85" ry="1.1"/>
					<ellipse class="circuits-1" cx="981.83" cy="33.34" rx="2.26" ry="1.45"/>
				</g>
				<path id="_04" data-name="04" class="circuits-1" d="M981.83 35.23 985.1 57.47 1024.29 90.52 1035.96 90.52 1043.17 108.81"/>
				<path id="_05" data-name="05" class="circuits-1" d="M1032.39 90.52 L 1039.85 110.21"/>
				<g id="_06" data-name="06">
					<path id="_06-2" data-name="06" class="circuits-1" d="M1025.64,1267.91c-0.22.87,4.54,13.09,4.54,13.09l-4.55,2.92h-4.19" transform="translate(3.28 -1177.38)"/>
					<ellipse class="circuits-1" cx="1022.64" cy="106.76" rx="2.77" ry="1.22"/>
				</g>
				<g id="_07" data-name="07">
					<path class="circuits-1" d="M970.75 28.88 966.63 32.52 970.85 35.74 954.83 51.23 943.37 54.25"/>
					<ellipse class="circuits-1" cx="942.29" cy="54.87" rx="1.66" ry="1.4"/>
				</g>
				<g id="_08" data-name="08">
					<path class="circuits-1" d="M978.17 31.34 979.16 31.89 976.21 34.79 976.21 58.84 984.09 67.24 987.59 66.7 993.4 72.02"/>
					<ellipse class="circuits-1" cx="995.28" cy="73.29" rx="2.21" ry="1.73"/>
				</g>
				<g id="_09" data-name="09">
					<path class="circuits-1" d="M907.91 4.41 911.39 7.22 901.19 15.12 898.17 13.91 891.45 19.94 895.39 22.62 909.3 22.62 917.42 34.79 924.61 35.23 928.08 38.94 937.85 38.94 941.55 43.87 951.43 44.01 945.7 49.62 937.85 49.62"/>
					<ellipse class="circuits-1" cx="935.48" cy="49.62" rx="2.37" ry="1.46"/>
				</g>
			</g>
			<g id="roadCircuit1Right" data-name="02_right">
				<path id="_01-2" data-name="01" class="circuits-2" d="M1031.77 1.59 1026.9 1.59 1050.82 23.73 1045.94 29.49"/>
				<g id="_02-3" data-name="02">
					<path class="circuits-2" d="M1041.97 15.54 1036.64 15.54 1044.17 23.96 1038.86 23.96 1021.14 52.3 1023.14 56.51"/>
					<path class="circuits-2" d="M1020,1237.3a3,3,0,0,0,2.33.91,1.8,1.8,0,0,0,1.45-.78,1.62,1.62,0,0,0,0-1.49c-0.52-1.08-2.35-2.37-3.61-2.09C1018.55,1234.18,1019.19,1236.49,1020,1237.3Z" transform="translate(3.28 -1177.38)"/>
				</g>
				<g id="_03-2" data-name="03">
					<path class="circuits-2" d="M1037.09 27.98 1045.06 34.81 1038.86 34.81 1030.89 47.43 1042.4 67.58"/>
					<path class="circuits-2" d="M1038.28,1246.34a2.91,2.91,0,0,0,.59,2.65,4.16,4.16,0,0,0,2.42,1.36,2.39,2.39,0,0,0,2.22-.49,2.2,2.2,0,0,0,.43-1.82,3.91,3.91,0,0,0-1.38-2.42C1041.17,1244.48,1038.93,1244.26,1038.28,1246.34Z" transform="translate(3.28 -1177.38)"/>
				</g>
				<g id="_04-2" data-name="04">
					<path class="circuits-2" d="M1036.63 27.53 1031.83 27.53 1015.39 49.59 1021.14 62.87 1050.82 82.97 1065.21 82.97"/>
					<path class="circuits-2" d="M1064.9,1257.2a6,6,0,0,0-2.59,0,2,2,0,0,0-1.57,1.84,2,2,0,0,0,1.44,1.7,5.58,5.58,0,0,0,2.35.12,5,5,0,0,0,1.94-.47,1.61,1.61,0,0,0-.14-3,5.34,5.34,0,0,0-1.91-.31" transform="translate(3.28 -1177.38)"/>
				</g>
				<g id="_06-3" data-name="06">
					<path class="circuits-2" d="M1031.83 27.53 1022.43 26.84 1019.37 32.37 1011.62 32.37"/>
					<path class="circuits-2" d="M1007,1208.12a3,3,0,0,0-1.54.16,1.16,1.16,0,0,0-.65,1.33,1.07,1.07,0,0,0,.84.65,3,3,0,0,0,1.08-.08,3,3,0,0,0,1-.34,1.13,1.13,0,0,0,.56-0.94,1.11,1.11,0,0,0-.86-1,3,3,0,0,0-1.34.06" transform="translate(3.28 -1177.38)"/>
				</g>
				<g id="_07-2" data-name="07">
					<path class="circuits-2" d="M1011.69,1206.88c-0.33-.25-5.9.11-5.9,0.11l-13.53,11.85,3.9,15.78" transform="translate(3.28 -1177.38)"/>
					<path class="circuits-2" d="M1012.64,1206.22a2.64,2.64,0,0,0-1.45.12,0.91,0.91,0,0,0-.47,1.22,1.3,1.3,0,0,0,1.17.39,1.86,1.86,0,0,0,1.65-.65,0.95,0.95,0,0,0-1.41-1.22" transform="translate(3.28 -1177.38)"/>
					<path class="circuits-2" d="M997.6,1239.2a2.53,2.53,0,0,0,2.89-2c0.16-1.38-1.22-2.15-2.32-2.59-1.65-.67-4.3-0.65-4.29,1.76C993.89,1238.11,996.15,1239.08,997.6,1239.2Z" transform="translate(3.28 -1177.38)"/>
				</g>
				<g id="_08-2" data-name="08">
					<path class="circuits-2" d="M1015.93,1214.1a6.49,6.49,0,0,0-3.65.18,0.81,0.81,0,0,0-.67.68,0.84,0.84,0,0,0,.83.57,12.75,12.75,0,0,0,2.47.11,2.23,2.23,0,0,0,.93-0.2,0.86,0.86,0,0,0,.49-0.76,1,1,0,0,0-1.14-.77,8.06,8.06,0,0,1-1.51.1" transform="translate(3.28 -1177.38)"/>
					<path class="circuits-2" d="M1015.39 38.27 1010.82 38.27 1006.58 41.87 1012.48 57.23"/>
					<path class="circuits-2" d="M1010.46,1238.52c1.47,0,3.08-1.16,2.22-2.73a4,4,0,0,0-3-1.74C1006.35,1233.92,1007.54,1238.45,1010.46,1238.52Z" transform="translate(3.28 -1177.38)"/>
				</g>
				<g id="_09-2" data-name="09">
					<path class="circuits-2" d="M1001.43 46.76 1007.64 64.92 1049.38 92.05 1058.01 108.99 1028.89 124.38 1034.1 139.76"/>
					<path class="circuits-2" d="M998.46,1221.15a1.35,1.35,0,0,0-1.69.12,1.52,1.52,0,0,0-.29,1.7,1.73,1.73,0,0,0,1.47,1,2,2,0,0,0,1.62-.74,1.28,1.28,0,0,0,.33-1.05,1.44,1.44,0,0,0-.8-0.89,3.53,3.53,0,0,0-1.77-.41" transform="translate(3.28 -1177.38)"/>
					<ellipse class="circuits-2" cx="1034.87" cy="141.87" rx="4.54" ry="2.1"/>
				</g>
				<g id="_10" data-name="10">
					<path class="circuits-2" d="M990.84 45.81 993.3 59.36 1034.87 90.44 1039.41 90.44 1047.26 107.71 1018.38 124.32 1021.14 133.12"/>
					<path class="circuits-2" d="M987.08,1221.42a3.13,3.13,0,0,0-1.5.38,1.08,1.08,0,0,0-.45,1.35,1.06,1.06,0,0,0,.81.47,3.12,3.12,0,0,0,1-.09,3.08,3.08,0,0,0,1.15-.4,1,1,0,0,0,.49-1,1.25,1.25,0,0,0-1.15-.8,2.94,2.94,0,0,0-1.79.37" transform="translate(3.28 -1177.38)"/>
					<path class="circuits-2" d="M1017.85,1313.53a6.67,6.67,0,0,0,1.28.18l0.36,0a1.76,1.76,0,0,0,1.37-.82c1.16-2.14-2.19-2.79-3.51-2.37C1015.1,1311.2,1015.82,1313.11,1017.85,1313.53Z" transform="translate(3.28 -1177.38)"/>
				</g>
			</g>
			<g id="roadCircuit2Left" data-name="03_left">
				<g id="_01-3" data-name="01">
					<path class="circuits-3" d="M853.93 51.39 869.54 54.8 884.92 54.8"/>
					<ellipse class="circuits-3" cx="887.25" cy="54.8" rx="2.33" ry="1.51"/>
				</g>
				<g id="_02-4" data-name="02">
					<path class="circuits-3" d="M871.35,1225.34a0.84,0.84,0,0,1-.2.52,3.09,3.09,0,0,1-2.35.83c-1.41,0-2.55-.61-2.55-1.35s1.14-1.35,2.55-1.35S871.35,1224.59,871.35,1225.34Z" transform="translate(3.28 -1177.38)"/>
					<path class="circuits-3" d="M899.07 48.74 L 874.43 48.48"/>
				</g>
				<g id="_03-3" data-name="03">
					<path class="circuits-3" d="M949.57 58.96 935.18 58.96 918.79 38.13 906.26 38.13 900.4 45.02 900.4 46.82 893.47 55.5 903.31 83.86 923.22 83.86"/>
					<ellipse class="circuits-3" cx="951.9" cy="58.96" rx="2.33" ry="1.46"/>
					<ellipse class="circuits-3" cx="925.99" cy="83.84" rx="2.23" ry="1.42"/>
				</g>
				<g id="_04-3" data-name="04">
					<path class="circuits-3" d="M902.57 42.47 906.72 43.29 906.72 48.48 912.92 48.48 921.52 57.52"/>
					<ellipse class="circuits-3" cx="922.19" cy="58.96" rx="2.52" ry="1.48"/>
				</g>
				<g id="_05-2" data-name="05">
					<path class="circuits-3" d="M935.83 63.72 912.41 63.72 908.12 56.27 912.05 49.05"/>
					<ellipse class="circuits-3" cx="938.47" cy="64.42" rx="2.64" ry="1.66"/>
				</g>
				<g id="_06-4" data-name="06">
					<path class="circuits-3" d="M893.47 55.5 896.84 55.5 905.39 77.3 931.31 77.78"/>
					<ellipse class="circuits-3" cx="934.07" cy="77.99" rx="2.76" ry="1.62"/>
				</g>
				<g id="_07-3" data-name="07">
					<path class="circuits-3" d="M902.57 56.27 L 909.01 69.07"/>
					<ellipse class="circuits-3" cx="901.97" cy="55.04" rx="1.95" ry="1.71"/>
					<ellipse class="circuits-3" cx="910.08" cy="70.67" rx="1.97" ry="1.61"/>
				</g>
				<g id="_08-3" data-name="08">
					<path class="circuits-3" d="M918.87 71.79 942.06 71.79 964.29 53.77"/>
					<ellipse class="circuits-3" cx="916.47" cy="71.79" rx="2.89" ry="1.71"/>
					<ellipse class="circuits-3" cx="966.36" cy="52.15" rx="2.74" ry="2.15"/>
				</g>
			</g>
			<g id="roadCircuit2Right" data-name="03_right part01">
				<g id="_01-5" data-name="01">
					<path class="circuits-5" d="M1091.67 50.85 1082.06 50.85 1103.93 73.04 1103.93 77.03"/>
					<path class="circuits-5" d="M1099.43,1254a2.18,2.18,0,0,0-2.11,1.57,1.84,1.84,0,0,0,.62,1.56,4.69,4.69,0,0,0,1.51.86,5.2,5.2,0,0,0,1.91.47,2.07,2.07,0,0,0,1.73-.81,2.16,2.16,0,0,0-.77-2.8A5.64,5.64,0,0,0,1099.43,1254Z" transform="translate(3.28 -1177.38)"/>
				</g>
				<g id="_02-6" data-name="02">
					<path class="circuits-5" d="M1097.7,1254.62c-0.61-.15-33.19-16.2-33.19-16.2l-5.79-7.1" transform="translate(3.28 -1177.38)"/>
					<path class="circuits-5" d="M1057.45,1228.45a3.89,3.89,0,0,0-1.72.67,1.33,1.33,0,0,0-.4,1.66,2,2,0,0,0,2,.47,3.8,3.8,0,0,0,1.24-.34,1.15,1.15,0,0,0-.22-2.2,3.81,3.81,0,0,0-1.62-.07l0-.4" transform="translate(3.28 -1177.38)"/>
				</g>
				<g id="_03-5" data-name="03">
					<path class="circuits-5" d="M1063.8 56.42 1059.39 57.23 1063.8 61.14 1074.34 67.38"/>
					<path class="circuits-5" d="M1071.43,1244.73a1.37,1.37,0,0,0-.89,1.51,1.39,1.39,0,0,0,.46.7,3.43,3.43,0,0,0,.74.48,3.1,3.1,0,0,0,.85.31,1.18,1.18,0,0,0,1.46-1.16A1.92,1.92,0,0,0,1071.43,1244.73Z" transform="translate(3.28 -1177.38)"/>
				</g>
				<g id="_04-5" data-name="04">
					<path class="circuits-5" d="M1057.57 60.83 L 1075.01 70.04"/>
					<path class="circuits-5" d="M1055.18,1237.79c0,0.63-.92,1.13-2,1.13a2.91,2.91,0,0,1-1.58-.41,0.91,0.91,0,0,1-.47-0.72c0-.63.92-1.13,2-1.13S1055.18,1237.17,1055.18,1237.79Z" transform="translate(3.28 -1177.38)"/>
				</g>
				<g id="_05-4" data-name="05">
					<path class="circuits-5" d="M1052.19,1238.93l-2.66,2s45.37,24.25,45.61,24.5l8.22,9.44-16.08,10.41,8.3,9.74" transform="translate(3.28 -1177.38)"/>
					<ellipse class="circuits-5" cx="1100.9" cy="118.45" rx="2.71" ry="1.61"/>
				</g>
				<g id="_06-6" data-name="06">
					<path class="circuits-5" d="M1118.43,1299.41s-14.16-16.16-14-16.62,7.69-4.77,7.69-4.77l6.31-3.54s-8.62-2.46-9.08-2.46-6-5.85-6-5.85h-37.28l12.13,19.1-25.75,16.44,8.28,16.11" transform="translate(3.28 -1177.38)"/>
					<path class="circuits-5" d="M1120,1299.68a6.24,6.24,0,0,0-3.27,0,2.15,2.15,0,0,0-1.44,2.59c0.41,1,1.66,1.28,2.73,1.34a5.55,5.55,0,0,0,2-.17,2.35,2.35,0,0,0,1.49-1.26,1.79,1.79,0,0,0-2.09-2.43" transform="translate(3.28 -1177.38)"/>
					<path class="circuits-5" d="M1058.15,1319.22a2,2,0,0,0,1.34,1.49,7,7,0,0,0,2.16.74c2.06,0.27,4.52-2.48,2.12-3.76C1062.52,1317,1058.11,1317.26,1058.15,1319.22Z" transform="translate(3.28 -1177.38)"/>
				</g>
				<g id="_07-5" data-name="07">
					<path class="circuits-5" d="M1025,1249.61c0.33,0.11,26.13,16.55,26.13,16.55h15" transform="translate(3.28 -1177.38)"/>
					<path class="circuits-5" d="M1021,1249.32a2.89,2.89,0,0,0,1.46.82,2.14,2.14,0,0,0,2.11-.16c1.2-1.15-.65-2.81-1.72-3.14A1.62,1.62,0,0,0,1021,1249.32Z" transform="translate(3.28 -1177.38)"/>
				</g>
				<g id="_08-5" data-name="08">
					<path class="circuits-5" d="M1058.13 88.78 1070.78 108.63 1042.7 124.49 1046.44 133.62"/>
					<path class="circuits-5" d="M1042.92,1310.76a2.29,2.29,0,0,0-1.49,2.39,2.25,2.25,0,0,0,1.28,1.47,6.62,6.62,0,0,0,2,.49,7.17,7.17,0,0,0,2,.1,2.44,2.44,0,0,0,1.71-1,2.31,2.31,0,0,0-.3-2.69C1046.87,1310.15,1044.55,1310.07,1042.92,1310.76Z" transform="translate(3.28 -1177.38)"/>
				</g>
				<g id="_09-4" data-name="09">
					<path class="circuits-5" d="M1118.56 124.87 1106.64 125.72 1081.49 141.87 1092.99 164.65"/>
					<path class="circuits-5" d="M1091.35,1341.6a7.83,7.83,0,0,0-3.07.6,2.43,2.43,0,0,0-1.45,1.25,2,2,0,0,0,1,2.21,5.68,5.68,0,0,0,2.58.52,6.36,6.36,0,0,0,2.1-.15,2.15,2.15,0,0,0,1.5-1.36,2.34,2.34,0,0,0-1-2.34,4.11,4.11,0,0,0-3.65-.7" transform="translate(3.28 -1177.38)"/>
				</g>
				<g id="_10-3" data-name="10">
					<path class="circuits-5" d="M1069.79 127.32 1066.91 122.55 1090.56 107.88"/>
					<ellipse class="circuits-5" cx="1070.78" cy="128.64" rx="3.09" ry="1.97"/>
				</g>
				<g id="_11-2" data-name="11">
					<path class="circuits-5" d="M1093.39 111.2 1072.17 123.54 1072.17 126.67"/>
					<path class="circuits-5" d="M1085.09 116.83 1088.73 122.06 1077.19 129.96 1073.74 129.18"/>
				</g>
			</g>
			<g id="roadCircuit3Left" data-name="04_left part1">
				<g id="_01-4" data-name="01">
					<path class="circuits-4" d="M767.52 123.62 770.7 126.39 766.29 130.62 783.9 145.7 778.65 150.84 783.9 155.12"/>
					<path class="circuits-4" d="M781,1335.51c0.91,0.13,7.07-.16,5.41-2.15-1.14-1.36-4.45-1.07-5.85-.45C778.78,1333.67,779.12,1335.24,781,1335.51Z" transform="translate(3.28 -1177.38)"/>
				</g>
				<g id="_02-5" data-name="02">
					<path class="circuits-4" d="M783.78 125.35 792.67 116.71 840.44 102.85 852.06 88.8 888.9 88.79 893.46 88.79 929.62 88.97 967.08 57.1 1005.05 89.12 999.28 89.12 999.67 93.38"/>
					<ellipse class="circuits-4" cx="999.67" cy="94.42" rx="3.58" ry="1.04"/>
					<path class="circuits-4" d="M775.64,1305.15a1.48,1.48,0,0,0,1.58.82,8.74,8.74,0,0,0,3-.53C785,1303.7,774.78,1301.33,775.64,1305.15Z" transform="translate(3.28 -1177.38)"/>
				</g>
				<path id="_03-4" data-name="03" class="circuits-4" d="M825.02 149.36 802.68 149.24 788.2 135.76 799.43 124.62 883.49 98.94 890.05 88.73"/>
				<g id="_04-4" data-name="04">
					<path class="circuits-4" d="M807.51 131.38 812.11 125.72 859.94 111.12 868.28 111.12"/>
					<ellipse class="circuits-4" cx="806.98" cy="133.25" rx="4.3" ry="1.87"/>
					<ellipse class="circuits-4" cx="872.24" cy="110.13" rx="3.96" ry="1.99"/>
				</g>
				<g id="_05-3" data-name="05">
					<path class="circuits-4" d="M834.53 123.81 830.98 129.17 837.89 134.31 866.84 134.52"/>
					<ellipse class="circuits-4" cx="836.25" cy="122.88" rx="3.96" ry="1.23"/>
					<ellipse class="circuits-4" cx="870.65" cy="134.2" rx="4" ry="1.57"/>
				</g>
				<g id="_06-5" data-name="06">
					<path class="circuits-4" d="M844.86,1305.34c0.32-.14,9.65-2.84,9.65-2.84H863l5.93,1.77" transform="translate(3.28 -1177.38)"/>
					<ellipse class="circuits-4" cx="845.52" cy="128.61" rx="3.39" ry="1.41"/>
					<ellipse class="circuits-4" cx="874.03" cy="127.88" rx="3.39" ry="1.41"/>
				</g>
				<g id="_07-4" data-name="07">
					<path class="circuits-4" d="M855.18 117.17 859.69 120.92 867.04 121.12 876.65 117.63"/>
					<ellipse class="circuits-4" cx="855.09" cy="115.89" rx="3.53" ry="1.03"/>
					<ellipse class="circuits-4" cx="877.42" cy="116.54" rx="3.53" ry="1.03"/>
				</g>
				<g id="_08-4" data-name="08">
					<path class="circuits-4" d="M832.48 140.24 871.08 140.57 890.59 131.53 906.5 93.26 956.22 93.5 958.78 94.73 958.78 97.62"/>
					<ellipse class="circuits-4" cx="828.4" cy="139.66" rx="3.89" ry="2.04"/>
					<ellipse class="circuits-4" cx="958.19" cy="99.25" rx="3.75" ry="1.71"/>
				</g>
				<g id="_09-3" data-name="09">
					<path class="circuits-4" d="M929.28 89.12 976.18 89.12 979.97 84.32"/>
					<path class="circuits-4" d="M963.04 88.97 L 973.35 77.53"/>
					<path class="circuits-4" d="M937.81 88.99 967.43 61.65 972.45 65.59 948.02 88.97"/>
					<ellipse class="circuits-4" cx="974.54" cy="75.8" rx="2.4" ry="2.18"/>
					<ellipse class="circuits-4" cx="981.56" cy="82.21" rx="2.4" ry="2.18"/>
				</g>
				<g id="_10-2" data-name="10">
					<path class="circuits-4" d="M847.28 152.12 L 866.28 152.12"/>
					<path class="circuits-4" d="M850.28 155.12 L 864.28 155.12"/>
					<path class="circuits-4" d="M889.39 136.92 869.68 144.5 855.09 176.88 861.74 183.71"/>
					<ellipse class="circuits-4" cx="864.58" cy="184.94" rx="3.51" ry="2.06"/>
					<ellipse class="circuits-4" cx="847.14" cy="155.12" rx="3.51" ry="2.06"/>
					<ellipse class="circuits-4" cx="844.16" cy="151.79" rx="3.51" ry="2.06"/>
					<ellipse class="circuits-4" cx="892.31" cy="136.51" rx="3.51" ry="2.06"/>
				</g>
				<g id="_11" data-name="11">
					<path class="circuits-4" d="M908.28 188.12 922.28 188.12 970.78 160.32 970.78 151.62"/>
					<ellipse class="circuits-4" cx="904.51" cy="187.37" rx="3.77" ry="2.13"/>
					<ellipse class="circuits-4" cx="970.77" cy="149.8" rx="4.06" ry="1.72"/>
				</g>
				<g id="_12" data-name="12">
					<path class="circuits-4" d="M864.28 182.77 882.03 145.12 893.28 145.12"/>
					<ellipse class="circuits-4" cx="896.96" cy="144.65" rx="3.45" ry="1.46"/>
				</g>
			</g>
			<g id="dataObject1_base" class="circuits-6">
				<polygon class="circuits-7" points="964.51 56.65 927.53 90.73 906.46 90.12 858.12 193.56 969.28 162.96 969.28 147.62 1024.69 108.92 964.51 56.65"/>
			</g>
			<g id="dataObject1_elements">
				<g id="data_object01">
					<g class="rotate">
						<path class="circuits-8" d="M866.08 182.05L 969.08 160.33L 883.11 146.38Z"/>
						<path class="circuits-8" d="M961.95 152.81L 1021.86 111.99L 947.21 106.54Z"/>
						<path class="circuits-8" d="M889.91 135.01L 958.78 94.73L 907.11 93.94Z"/>
						<path class="circuits-8" d="M932.04 88.42L 1002.01 88.2L 967.52 58.65Z"/>
					</g>
				</g>
			</g>
		</g>
		<g id="circuitSequence02">
			<g id="roadCircuit3Left2" data-name="04_left part2">
				<g id="_01-6" data-name="01">
					<path class="circuits-4" d="M836.53 168.73 830.17 179.44 851.59 199.12 924.28 199.12 990.34 161.12 1016.95 161.32"/>
					<ellipse class="circuits-4" cx="837.82" cy="166.49" rx="4.89" ry="2.13"/>
					<ellipse class="circuits-4" cx="1020.93" cy="160.94" rx="3.98" ry="2.3"/>
				</g>
				<g id="_02-7" data-name="02">
					<path id="_10-4" data-name="10" class="circuits-4" d="M863.39 186.77 865.54 191.67 923.4 191.11 977.78 160.04 977.78 147.62 970.78 144.76 970.78 135.62"/>
					<ellipse class="circuits-4" cx="970.83" cy="133.62" rx="3.57" ry="1.96"/>
				</g>
				<g id="_03-6" data-name="03">
					<path class="circuits-4" d="M750.27 136.82 776.28 164.36 754.28 189.09"/>
					<ellipse class="circuits-4" cx="751.75" cy="191.47" rx="5.16" ry="2.8"/>
				</g>
				<g id="_04-6" data-name="04">
					<path class="circuits-4" d="M743.59 142.46 759.61 162.97 743.61 180.12"/>
					<ellipse class="circuits-4" cx="741.4" cy="182.76" rx="5.2" ry="2.66"/>
				</g>
				<g id="_05-5" data-name="05">
					<path class="circuits-4" d="M734.34 150.79 746.11 163.35 719.82 190.03"/>
					<ellipse class="circuits-4" cx="717.07" cy="192.45" rx="5.46" ry="2.42"/>
				</g>
				<g id="_06-7" data-name="06">
					<path class="circuits-4" d="M773.94 178.28 759.92 195.95 747.17 198.85 726.78 222.43 761.15 275.62"/>
					<ellipse class="circuits-4" cx="776.21" cy="176.28" rx="4.35" ry="2.73"/>
				</g>
				<g id="_07-6" data-name="07">
					<path class="circuits-4" d="M750.34 207.43 739.15 221.1 765.74 265.12 785.28 265.12"/>
					<ellipse class="circuits-4" cx="753.64" cy="204.88" rx="5.08" ry="3.19"/>
					<ellipse class="circuits-4" cx="792" cy="264.76" rx="6.73" ry="3.97"/>
				</g>
				<g id="_08-6" data-name="08">
					<path class="circuits-4" d="M770.35 226.95 761.56 239.56 771.86 254.56 820.06 255.54"/>
					<ellipse class="circuits-4" cx="773.49" cy="224.25" rx="5.46" ry="3.38"/>
					<ellipse class="circuits-4" cx="826.98" cy="255.54" rx="6.92" ry="3.04"/>
				</g>
				<g id="_09-5" data-name="09">
					<path class="circuits-4" d="M687 218.21 719.02 220.17 754.51 281.55 845.52 282.62 866.29 270.68"/>
					<ellipse class="circuits-4" cx="681.16" cy="218.21" rx="5.84" ry="3.63"/>
					<ellipse class="circuits-4" cx="871.78" cy="267.47" rx="6.72" ry="4.73"/>
				</g>
				<g id="_10-5" data-name="10">
					<ellipse class="circuits-4" cx="1060.07" cy="389.15" rx="8.62" ry="9.76"/>
				<path class="circuits-4" d="M1064.33 400.62 1083.51 492.99 1332.8 756.77"/>
				</g>
			</g>
			<g id="roadCircuit4Left" data-name="05_left">
				<g id="_01-7" data-name="01">
					<path class="circuits-9" d="M562.1 296.5 631.41 238.13 636.42 256.84 694.65 257.62"/>
					<g id="a">
						<path class="circuits-9" d="M658.25 295.2 591.93 298.04 590.37 272.24"/>
						<ellipse class="circuits-9" cx="661.76" cy="1472.79" rx="8.16" ry="3.77" transform="translate(-581.55 -730.78) rotate(-26.34)"/>
					</g>
					<g id="b">
						<path class="circuits-9" d="M651.16 277.62 614.77 278.62 612.8 253.8"/>
					</g>
				</g>
				<g id="_02-8" data-name="02">
					<path class="circuits-9" d="M666.28 240.12 707.28 240.12 737.34 306.05 837.73 305.47 866.29 286.12 891.99 269.12 993.28 269.12 1015.93 285.87 1021.4 319.45 1015.74 328.85 1031.04 445.07 1037.96 485.28 1274.41 753.57 524.57 756.54 529.44 734.12 402.28 734.12"/>
					<ellipse class="circuits-9" cx="660.54" cy="238.61" rx="6.75" ry="3.65"/>
				</g>
				<g id="_03-7" data-name="03">
					<ellipse class="circuits-9" cx="869.33" cy="286.57" rx="6.88" ry="4.6"/>
					<path class="circuits-9" d="M840.26 437.41 872.92 412.12 887.28 412.12 948.44 354.98 965.04 332.12 978.28 332.12 1001.4 305.24 979.37 286.12 876.28 286.12"/>
					<ellipse class="circuits-9" cx="832.21" cy="443.67" rx="9.9" ry="10.98"/>
				</g>
				<g id="_04-7" data-name="04">
					<path class="circuits-9" d="M683.78 313.19 771.23 313.62 777.7 331.59 939.67 326.63 934.09 353.31 910.66 377.62 891.65 377.29"/>
					<ellipse id="a-2" data-name="a" class="circuits-9" cx="674.86" cy="1489.82" rx="8.01" ry="3.35" transform="translate(-544.61 -773.79) rotate(-24.01)"/>
					<g id="b-2" data-name="b">
						<path class="circuits-9" d="M704.26 282.62 L 716.25 313.35"/>
						<ellipse class="circuits-9" cx="700.15" cy="1456.92" rx="8.01" ry="3.35" transform="translate(-529.04 -766.34) rotate(-24.01)"/>
					</g>
					<ellipse id="c" class="circuits-9" cx="883.19" cy="377.46" rx="7.94" ry="6.46"/>
				</g>
				<g id="_05-6" data-name="05">
					<path class="circuits-9" d="M584.18 351.74 624.59 332.62 739.54 334.33 792 475.75 859.69 477.2"/>
					<ellipse class="circuits-9" cx="570.23" cy="1534.91" rx="12.33" ry="5.52" transform="translate(-642.05 -739.53) rotate(-27.55)"/>
					<ellipse class="circuits-9" cx="866.52" cy="1652.75" rx="12.57" ry="9" transform="translate(-990.71 620.03) rotate(-66.78)"/>
				</g>
				<g id="_06-8" data-name="06">
					<path class="circuits-9" d="M1157.51 680.27 L 1212.53 753.82"/>
					<ellipse class="circuits-9" cx="1141.74" cy="1841.17" rx="13.51" ry="20.94" transform="translate(-740.32 -403.45) rotate(-28.68)"/>
				</g>
				<g id="_07-7" data-name="07">
					<path class="circuits-9" d="M638.28 717.12 736.28 717.12 950.51 466.42 1163.81 753.57"/>
					<ellipse class="circuits-9" cx="621.52" cy="1892.98" rx="27.98" ry="13.7" transform="translate(-1352.92 474.18) rotate(-64.86)"/>
				</g>
				<g id="_08-7" data-name="08">
					<path class="circuits-9" d="M987.85 345.62 L 992.56 441.52"/>
					<ellipse class="circuits-9" cx="989.07" cy="339.77" rx="6.9" ry="6.16"/>
				</g>
				<g id="_09-6" data-name="09">
					<path class="circuits-9" d="M1000.26,1628.7c0,5.61-3.85,10.16-8.61,10.16a7.38,7.38,0,0,1-1.73-.21c-3.93-.95-6.88-5-6.88-10,0-5.61,3.85-10.16,8.61-10.16S1000.26,1623.09,1000.26,1628.7Z" transform="translate(3.28 -1177.38)"/>
					<path class="circuits-9" d="M1083.4 582.37 1053.65 546 1031.78 541.04 993.92 494.74 993.2 461.27"/>
					<ellipse class="circuits-9" cx="1089.45" cy="1773.67" rx="10.92" ry="16.88" transform="translate(-629.34 -573.03) rotate(-24.26)"/>
				</g>
				<g id="_10-6" data-name="10">
					<path class="circuits-9" d="M966.29 362.25 965.72 418.9 987.85 445.54"/>
					<ellipse class="circuits-9" cx="967.77" cy="355.41" rx="6.44" ry="7.35"/>
				</g>
				<g id="_11-3" data-name="11">
					<ellipse class="circuits-9" cx="938.68" cy="432.69" rx="9.35" ry="11.91"/>
					<ellipse class="circuits-9" cx="679.14" cy="1752.93" rx="18.6" ry="11.67" transform="translate(-1178.41 308.54) rotate(-60.66)"/>
					<path class="circuits-9" d="M932.66 442.55 807.34 582.37 692.59 581.26"/>
				</g>
				<g id="_12-2" data-name="12">
					<path class="circuits-9" d="M716.19,1853.57c4.93-11.29,3.55-22.8-3.09-25.7s-16,3.9-21,15.19a37.34,37.34,0,0,0-1.85,5.25c-2.53,9.41-.67,18,4.94,20.45C701.87,1871.66,711.25,1864.86,716.19,1853.57Z" transform="translate(3.28 -1177.38)"/>
					<path class="circuits-9" d="M487.46 656.44 482.75 701.12 540.28 701.12 577.4 668.38 693.57 670.93"/>
					<path class="circuits-9" d="M494.55,1824.32c7.58-9,10.52-19,6.56-22.35s-13.32,1.26-20.9,10.27a44.57,44.57,0,0,0-5.46,8.07c-3.26,6.28-3.89,11.93-1.1,14.28C477.6,1837.92,487,1833.32,494.55,1824.32Z" transform="translate(3.28 -1177.38)"/>
				</g>
				<path id="_13" data-name="13" class="circuits-9" d="M465.28 476.12 473.48 476.12 437.89 641.12 479.28 641.12"/>
				<g id="_14" data-name="14">
					<ellipse class="circuits-9" cx="559.39" cy="1635.49" rx="15.07" ry="7.01" transform="translate(-914.52 -439.47) rotate(-39.83)"/>
					<path class="circuits-9" d="M551.28 461.12 473.28 461.12 498.52 349 15.75 753.12 398.28 753.12 404.93 734.57"/>
				</g>
				<g id="_15" data-name="15">
					<path class="circuits-9" d="M455.69 667.53 L 475.83 655.77"/>
					<ellipse class="circuits-9" cx="433.03" cy="1861.31" rx="25.64" ry="11.46" transform="translate(-1195.2 -311.16) rotate(-45.52)"/>
				</g>
				<g id="_16" data-name="16">
					<path class="circuits-9" d="M492.83 485.28 471.67 615.15 489.95 628.53"/>
					<ellipse class="circuits-9" cx="493.15" cy="1653.88" rx="15.81" ry="6.73" transform="translate(-952.27 -461.48) rotate(-40.48)"/>
				</g>
				<g id="_17" data-name="17">
					<ellipse class="circuits-9" cx="510.96" cy="1664.3" rx="15.81" ry="6.73" transform="translate(-954.77 -447.42) rotate(-40.48)"/>
					<path class="circuits-9" d="M494.68 625.41 L 507.37 497.81"/>
				</g>
			</g>
			<g id="dataObject2_base">
				<polygon id="dataObject02" class="circuits-10" points="717.79 313.55 960 320.85 956.08 465.08 1164.28 751.62 700.28 751.62 844.16 577.24 717.79 313.55"/>
				<polygon id="dataObject01" class="circuits-10" points="0 753.12 506.15 341.28 410.79 758.62 0 753.12"/>
			</g>
			<g id="dataObject2_elements">
				<path id="dataObject_appearsFirst" class="circuits-8" d="M796.28 463.38L 960.11 320.72L 737.77 315.04Z"/>
				<path id="dataObject_appearsSecond" class="circuits-8" d="M803.96 650.62 L1077.59 650.63 L951.82 474.62Z"/>
				<path id="dataObject_appearsThird" class="circuits-8" d="M155.68 650.62 L417.94 640.88L 494.97 354.45Z"/>
			</g>
		</g>
		<g id="circuitSequence03">
			<g id="roadCircuit3Right" data-name="04_right">
				<g id="_01-8" data-name="01">
						<ellipse class="circuits-11" cx="1191.32" cy="1325.65" rx="1.69" ry="3.93" transform="translate(-318.83 1089.59) rotate(-79.94)"/>
					<path class="circuits-11" d="M1237.8 187.01 1200.34 154.87 1197.47 149.82"/>
					<ellipse class="circuits-11" cx="1237.49" cy="1367.15" rx="2.01" ry="5.16" transform="translate(-454.4 915.63) rotate(-71.03)"/>
				</g>
				<path id="_02-9" data-name="02" class="circuits-11" d="M1260.49 204.14 1230.44 192.11 1190.11 154.58 1193.28 149.82"/>
				<g id="_03-8" data-name="03">
					<ellipse class="circuits-11" cx="1176.19" cy="1333.33" rx="1.6" ry="4.58" transform="translate(-383.94 1002.67) rotate(-77.02)"/>
					<path class="circuits-11" d="M1270.87,1391.63c-0.29.17-55.87-20.29-55.87-20.29l-36.42-36.14" transform="translate(3.28 -1177.38)"/>
				</g>
				<g id="_04-8" data-name="04">
					<path class="circuits-11" d="M1198.24 144.16 1178.13 143.98 1175.09 145.73"/>
					<ellipse class="circuits-11" cx="1172.9" cy="145.68" rx="2.82" ry="1.52"/>
				</g>
				<g id="_05-7" data-name="05">
					<path class="circuits-11" d="M1175.72 148.44 L 1174.27 147.01"/>
					<ellipse class="circuits-11" cx="1174.85" cy="1326.92" rx="1.1" ry="3.04" transform="translate(-409.49 937.24) rotate(-74.87)"/>
				</g>
				<g id="_06-9" data-name="06">
					<ellipse class="circuits-11" cx="1163.34" cy="1329" rx="1.36" ry="3.57" transform="translate(-364.81 1031.58) rotate(-78.68)"/>
					<path class="circuits-11" d="M1167.7 150.42 L 1171.07 146.84"/>
				</g>
				<g id="_07-8" data-name="07">
					<path class="circuits-11" d="M1156.16 149.17 1176.26 171.5 1176.98 177.3"/>
					<ellipse class="circuits-11" cx="1151.55" cy="1325.16" rx="1.4" ry="3.71" transform="translate(-285.29 1151.85) rotate(-83.89)"/>
				</g>
				<g id="_08-8" data-name="08">
					<path class="circuits-11" d="M1178.69 180.81 1184.27 188.1 1207.7 199.62 1219.96 199.08 1224.27 202.16 1250.36 213.05 1255.81 219.59"/>
					<ellipse class="circuits-11" cx="1174.73" cy="1356.68" rx="1.52" ry="4.37" transform="translate(-419.28 997.37) rotate(-76.23)"/>
					<ellipse class="circuits-11" cx="1257.21" cy="1399.08" rx="2.09" ry="5.14" transform="translate(-543.61 753.88) rotate(-64.49)"/>
				</g>
				<g id="_09-7" data-name="09">
					<path class="circuits-11" d="M1312.13 281.68 1262.9 233.31 1259.59 223.58"/>
					<ellipse class="circuits-11" cx="1314.88" cy="1462.69" rx="3.11" ry="7.84" transform="translate(-573.6 823.5) rotate(-63.93)"/>
				</g>
				<g id="_10-7" data-name="10">
					<path class="circuits-11" d="M1309.27 268.57 L 1263.44 224.92"/>
					<ellipse class="circuits-11" cx="1312.27" cy="1449.69" rx="3.28" ry="7.11" transform="translate(-553.34 847.57) rotate(-64.96)"/>
				</g>
				<g id="_11-4" data-name="11">
					<ellipse class="circuits-11" cx="1319.67" cy="1441.54" rx="2.9" ry="6.5" transform="translate(-505.55 954.19) rotate(-68.2)"/>
					<path class="circuits-11" d="M1317.04 260.97 1287.96 234.9 1264.13 224.92"/>
				</g>
				<g id="_12-3" data-name="12">
					<ellipse class="circuits-11" cx="1292.5" cy="1450.03" rx="3.28" ry="7.26" transform="translate(-583.7 763.29) rotate(-62.92)"/>
					<path class="circuits-11" d="M1291.94 288.32 L 1295.04 275.93"/>
				</g>
				<g id="_13-2" data-name="13">
					<ellipse class="circuits-11" cx="1287.75" cy="1468.49" rx="2.87" ry="7.77" transform="translate(-502.61 1064.16) rotate(-72.07)"/>
					<path class="circuits-11" d="M1324.68 329.44 1325.44 319.63 1294.85 295.16"/>
				</g>
				<ellipse class="circuits-11" cx="1325.08" cy="298.55" rx="8.04" ry="3.4"/>
			</g>
			<g id="roadCircuit2Right2" data-name="03_right part02">
				<g id="_01-9" data-name="01">
					<ellipse class="circuits-5" cx="1107.87" cy="1307.24" rx="1.28" ry="3.97" transform="translate(-281.31 1128.51) rotate(-85.37)"/>
					<path class="circuits-5" d="M1093.31 141.85 L 1108.84 130.74"/>
					<ellipse class="circuits-5" cx="1088.65" cy="1320.33" rx="1.5" ry="4.11" transform="translate(-416.56 950.96) rotate(-78.67)"/>
				</g>
				<g id="_02-10" data-name="02">
					<ellipse class="circuits-5" cx="1089.6" cy="1326.36" rx="1.31" ry="4.1" transform="translate(-328.87 1110.8) rotate(-84.68)"/>
					<path class="circuits-5" d="M1228 277.21 1232.13 265.74 1182.37 206.26 1108.04 174.58 1092.76 150.29"/>
				</g>
				<g id="_03-9" data-name="03">
					<ellipse class="circuits-5" cx="1226.07" cy="1458.9" rx="3.87" ry="8.45" transform="translate(-587.5 856.6) rotate(-67.52)"/>
					<path class="circuits-5" d="M1191.02 379.97 L 1226.77 284.92"/>
				</g>
				<g id="_04-9" data-name="04">
					<ellipse class="circuits-5" cx="1187.74" cy="1564.47" rx="5.89" ry="11.14" transform="translate(-773.22 396.56) rotate(-53.07)"/>
					<path class="circuits-5" d="M1469.28 662.12 1397.28 662.12 1217.11 507.28 1176.92 415.3 1187.48 391.8"/>
					<ellipse class="circuits-5" cx="1476.86" cy="1832.4" rx="12.85" ry="29.9" transform="translate(-856.87 377.15) rotate(-44.35)"/>
				</g>
				<g id="_05-8" data-name="05">
					<path class="circuits-5" d="M1124.47 122.92 L 1133.17 123.89"/>
					<ellipse class="circuits-5" cx="1136.6" cy="124.34" rx="3.63" ry="1.39"/>
					<path class="circuits-5" d="M1140.91 131.14 L 1136.6 125.74"/>
					<ellipse class="circuits-5" cx="1143.44" cy="132.04" rx="3.22" ry="1.31"/>
				</g>
				<g id="_06-10" data-name="06">
					<path class="circuits-5" d="M1120.63 151.13 1133.52 138.64 1127.73 130.9 1135.13 125.62"/>
					<ellipse class="circuits-5" cx="1120.72" cy="153.09" rx="4.17" ry="1.82"/>
				</g>
				<g id="_07-9" data-name="07">
					<ellipse class="circuits-5" cx="1125.13" cy="137.11" rx="4.3" ry="1.68"/>
					<path class="circuits-5" d="M1115.72 163.65 1101.44 142.69 1112.33 137.24 1120.82 137.11"/>
					<ellipse class="circuits-5" cx="1117.97" cy="165.47" rx="4.81" ry="2.24"/>
				</g>
				<g id="_08-9" data-name="08">
					<ellipse class="circuits-5" cx="1118.57" cy="1285.24" rx="1.07" ry="3.29" transform="translate(-341.26 980.98) rotate(-79.79)"/>
					<path class="circuits-5" d="M1138.74 178.43 1128.06 161.57 1156.88 134.56 1134.44 112.36 1124.26 108.97"/>
				</g>
				<g id="_09-8" data-name="09">
					<path class="circuits-5" d="M1265.68 260.62 1212.56 203.28 1155.77 180.81 1144.99 166.46 1129.43 160.28"/>
					<ellipse class="circuits-5" cx="1269.22" cy="1441.7" rx="3.7" ry="7.71" transform="translate(-559.75 840.76) rotate(-66.1)"/>
				</g>
				<g id="_10-8" data-name="10">
					<ellipse class="circuits-5" cx="1138.25" cy="1357.69" rx="2.19" ry="4.72" transform="translate(-383.1 1082.77) rotate(-80.65)"/>
					<path class="circuits-5" d="M1251.22 276.64 1254.43 265.93 1199.43 204.8 1145.21 182.14"/>
					<ellipse class="circuits-5" cx="1248.03" cy="1457.5" rx="3.87" ry="8.02" transform="matrix(0.3, -0.96, 0.96, 0.3, -509.82, 1041.91)"/>
				</g>
				<g id="_11-5" data-name="11">
					<path class="circuits-5" d="M1071.94 153.13 1080.14 168.42 1165.3 205.08 1210.31 264.15 1206.08 274.72"/>
					<ellipse class="circuits-5" cx="1071.57" cy="151.01" rx="3.91" ry="2.31"/>
				</g>
				<g id="_12-4" data-name="12">
					<ellipse class="circuits-5" cx="1201.84" cy="1455.58" rx="3.63" ry="7.68" transform="matrix(0.28, -0.96, 0.96, 0.28, -529.42, 1022.87)"/>
					<path class="circuits-5" d="M1204.54 281.68 L 1191.02 313.91"/>
					<ellipse class="circuits-5" cx="1187.03" cy="1496.83" rx="4.98" ry="9.06" transform="translate(-632.7 890.58) rotate(-68.98)"/>
				</g>
				<g id="_13-3" data-name="13">
					<ellipse class="circuits-5" cx="1054.5" cy="149.47" rx="4.2" ry="1.93"/>
					<path class="circuits-5" d="M1053.98 151.4 1060.07 165.47 1147.19 204.8 1188.73 266.64 1177.64 304.43 1149.8 304.56"/>
					<ellipse class="circuits-5" cx="1139" cy="1480.52" rx="3.85" ry="8.32" transform="translate(-720.19 446.24) rotate(-56.82)"/>
				</g>
				<g id="_14-2" data-name="14">
					<path class="circuits-5" d="M1233.19 338.8 L 1250.17 283.81"/>
					<ellipse class="circuits-5" cx="1228.34" cy="1521.19" rx="4.9" ry="10.28" transform="translate(-654.44 859.21) rotate(-66.36)"/>
				</g>
				<g id="_15-2" data-name="15">
					<ellipse class="circuits-5" cx="1226.1" cy="1538.58" rx="4.97" ry="8.88" transform="translate(-613.09 1051.02) rotate(-71.97)"/>
					<path class="circuits-5" d="M1218.77 395.17 L 1227.84 365.91"/>
				</g>
				<g id="_16-2" data-name="16">
					<ellipse class="circuits-5" cx="1217.48" cy="1581.51" rx="7.24" ry="11.44" transform="translate(-764.12 613.08) rotate(-58.42)"/>
					<path class="circuits-5" d="M1225.39 470.72 1205.12 430.18 1214.53 408.06"/>
					<ellipse class="circuits-5" cx="1229.91" cy="1659.57" rx="7.41" ry="13.24" transform="translate(-732.68 -152.02) rotate(-35.58)"/>
				</g>
				<g id="_17-2" data-name="17">
					<ellipse class="circuits-5" cx="1172.27" cy="1511.41" rx="5.58" ry="8.15" transform="translate(-709.38 9.03) rotate(-42.42)"/>
					<path class="circuits-5" d="M1174.41 474.62 1130.1 360.61 1147.28 334.02 1169 333.61"/>
					<ellipse class="circuits-5" cx="1177.06" cy="1663.88" rx="7.56" ry="14.1" transform="translate(-723.55 -240.96) rotate(-33.81)"/>
				</g>
				<g id="_18" data-name="18">
					<ellipse class="circuits-5" cx="1154.23" cy="1466.06" rx="4.06" ry="7.52" transform="translate(-693.24 525.96) rotate(-59.09)"/>
					<path class="circuits-5" d="M1109.17 476.49 1079.56 362.85 1132.43 290.12 1152.28 290.12"/>
					<ellipse class="circuits-5" cx="1111.31" cy="1666.16" rx="8.08" ry="13.02" transform="translate(-636.1 -483.94) rotate(-27.24)"/>
				</g>
				<g id="_19" data-name="19">
					<ellipse class="circuits-5" cx="1108.63" cy="1564.33" rx="7.66" ry="9.89" transform="translate(-716.79 -189.31) rotate(-37.18)"/>
					<path class="circuits-5" d="M1381.73 753.82 1152.28 527.99 1111.9 396.26"/>
				</g>
				<g id="_20" data-name="20">
					<ellipse class="circuits-5" cx="1251.11" cy="1756.89" rx="12.48" ry="20.88" transform="translate(-796.72 -87.5) rotate(-36.53)"/>
					<path class="circuits-5" d="M1437.27 753.57 L 1268.62 596.28"/>
				</g>
			</g>
			<g id="roadCircuit4Right" data-name="05_right">
				<g id="_01-10" data-name="01">
					<path class="circuits-12" d="M1394.2 311.31 1346.55 269.7 1341.44 274.18 1332.8 330.76 1481.76 482.6 1551.89 526.2"/>
					<ellipse class="circuits-12" cx="1566.91" cy="1714.75" rx="7.12" ry="22.08" transform="translate(-723.46 904.47) rotate(-56.67)"/>
				</g>
				<g id="_02-11" data-name="02">
					<ellipse class="circuits-12" cx="1365.36" cy="1502.29" rx="4.04" ry="10.02" transform="translate(-603.5 806.3) rotate(-61.45)"/>
					<path class="circuits-12" d="M1402.78 317.39 1371.05 291.15 1365.78 295.88 1365.78 319.62"/>
				</g>
				<g id="_03-10" data-name="03">
					<path class="circuits-12" d="M1413.2 377.77 1408.27 347.5 1377.49 321.73 1377.42 304.99 1383.33 300.82"/>
					<ellipse class="circuits-12" cx="1409.92" cy="1560.67" rx="5.25" ry="10.94" transform="translate(-626.91 894.66) rotate(-61.98)"/>
				</g>
				<g id="_04-10" data-name="04">
					<path class="circuits-12" d="M1377.43 349.39 L 1404.15 376.87"/>
					<ellipse class="circuits-12" cx="1369.05" cy="1520.37" rx="4.25" ry="9.76" transform="translate(-635.06 738.23) rotate(-59.14)"/>
				</g>
				<g id="_05-9" data-name="05">
					<path class="circuits-12" d="M1395.31 373.72 L 1403.54 378.14"/>
					<ellipse class="circuits-12" cx="1383.36" cy="1546.12" rx="3.46" ry="10.33" transform="translate(-663.04 689.68) rotate(-57.08)"/>
				</g>
				<path id="_06-11" data-name="06" class="circuits-12" d="M1422.12 385.83 1468 405.41 1647 572.62"/>
				<g id="_07-10" data-name="07">
					<path class="circuits-12" d="M1422.86 388.43 1454.29 404.7 1674.21 610.95 1683.6 638.85"/>
					<ellipse class="circuits-12" cx="1680.32" cy="1825.71" rx="7.68" ry="27.19" transform="translate(-788.45 861.95) rotate(-52.31)"/>
				</g>
				<g id="_08-10" data-name="08">
					<path class="circuits-12" d="M1520.43 539.87 L 1662.08 631.7"/>
					<ellipse class="circuits-12" cx="1502.88" cy="1705.07" rx="7.36" ry="19.15" transform="translate(-760 702.09) rotate(-53.01)"/>
				</g>
				<path id="_09-9" data-name="09" class="circuits-12" d="M1432.67 481.75 1438.42 488.32 1490.63 520.46"/>
				<g id="_10-9" data-name="10">
					<path class="circuits-12" d="M1405.94 477.65 1425.91 502.27 1485.27 539.87"/>
					<ellipse class="circuits-12" cx="1497.22" cy="1730.34" rx="8.68" ry="19.9" transform="translate(-782.71 703.73) rotate(-52.91)"/>
				</g>
				<g id="_11-6" data-name="11">
					<ellipse class="circuits-12" cx="1382.89" cy="1669.4" rx="6.58" ry="16.01" transform="translate(-781.58 504.3) rotate(-50.69)"/>
					<path class="circuits-12" d="M1705.38 698.97 1688.62 687.95 1658.41 682.33 1551.89 611.88 1398.55 502.16"/>
					<ellipse class="circuits-12" cx="1727.89" cy="1897.04" rx="9.87" ry="32.74" transform="translate(-834.06 782.6) rotate(-49.08)"/>
				</g>
				<path id="_12-5" data-name="12" class="circuits-12" d="M1338.13 470.47 1367.66 513.97 1705.38 750.62"/>
				<g id="_13-4" data-name="13">
					<path class="circuits-12" d="M1647 750.62 L 1439.81 594.81"/>
					<ellipse class="circuits-12" cx="1418.84" cy="1756.45" rx="8.45" ry="23.47" transform="translate(-828.38 396.14) rotate(-46.42)"/>
				</g>
				<g id="_14-3" data-name="14">
					<path class="circuits-12" d="M1279.16 463.26 L 1334.86 555.66"/>
					<ellipse class="circuits-12" cx="1342.97" cy="1750" rx="10.4" ry="19.39" transform="translate(-797.75 53.63) rotate(-38.89)"/>
				</g>
				<g id="_15-3" data-name="15">
					<path class="circuits-12" d="M1246.82 459.31 L 1264.81 492.41"/>
					<ellipse class="circuits-12" cx="1270.3" cy="1681.49" rx="7.18" ry="14.51" transform="matrix(0.78, -0.62, 0.62, 0.78, -766.64, -23.67)"/>
				</g>
			</g>
			<g id="dataObject3_base">
				<polygon id="dataObject3_base" data-name="dataObject_base" class="circuits-13" points="1254.39 253.07 1184.28 468.58 1521.28 510.32 1254.39 253.07"/>
			</g>
			<g id="dataObject3_elements">
				<path id="dataObject3_elements" class="circuits-8" d="M1208.75 454.65 L 1474.94 487.2 L 1257.76 260.23Z"/>
			</g>
		</g>
	</g>

</svg>