<?xml version="1.0" encoding="utf-8"?>
<!-- Generator: Adobe Illustrator 19.0.0, SVG Export Plug-In . SVG Version: 6.00 Build 0)  -->
<svg version="1.1" id="newRoads" xmlns="http://www.w3.org/2000/svg" xmlns:xlink="http://www.w3.org/1999/xlink" x="0px" y="0px"
	 viewBox="4027 17.6 8649.8 806.3" style="enable-background:new 4027 17.6 8649.8 806.3;" xml:space="preserve">
<style type="text/css">
	.st0{stroke:#00FFFF;stroke-dasharray:279.508;}
	.st1{stroke:#00FFFF;stroke-dasharray:279.498;}
	.st2{stroke:#00FFFF;stroke-dasharray:279.505;}
	.st3{stroke:#00FFFF;stroke-dasharray:279.514;}
	.st4{stroke:#00FFFF;stroke-dasharray:279.494;}
	.st5{stroke:#00FFFF;stroke-dasharray:279.525;}
	.st6{stroke:#00FFFF;stroke-dasharray:197.715;}
	.st7{stroke:#00FFFF;stroke-dasharray:279.497;}
	.st8{stroke:#00FFFF;stroke-dasharray:279.512;}
	.st9{stroke:#00FFFF;stroke-dasharray:279.495;}
	.st10{stroke:#00FFFF;stroke-dasharray:279.515;}
	.st11{stroke:#00FFFF;stroke-dasharray:279.504;}
	.st12{stroke:#00FFFF;stroke-dasharray:279.511;}
	.st13{stroke:#00FFFF;stroke-dasharray:279.506;}
	.st14{stroke:#00FFFF;stroke-dasharray:279.5;}
	.st15{fill:#0B5F63;stroke:#00FFFF;stroke-dasharray:279.511;}
	.st16{fill:#0B5F63;stroke:#00FFFF;stroke-dasharray:279.494;}
</style>
<g id="dataConstellations" transform="matrix(1,0,0,1,1103,107)">
	<path class="st0" d="M4221.6,344.5l-0.1-115.8l57.9,57.9L4221.6,344.5"/>
	<path class="st1" d="M4442.9,252.9l-81.8-82l-0.1,81.9L4442.9,252.9"/>
	<path class="st2" d="M4443.7,253.1l-81.7,82.1l-0.1-81.9L4443.7,253.1"/>
	<path class="st3" d="M4279.9,171.4L4361,254l0.6-81.9L4279.9,171.4"/>
	<path class="st3" d="M4361.5,253.1l-81.6,82.2l81.9-0.4L4361.5,253.1"/>
	<path class="st4" d="M4395.9,402.2l-115.8,0l58,57.9L4395.9,402.2"/>
	<path class="st0" d="M4279.3,402.8l0.1-115.8l-57.9,57.9L4279.3,402.8"/>
	<path class="st5" d="M4279.3,170.5l0.1,115.8l-57.9-57.9L4279.3,170.5"/>
	<path class="st6" d="M4606.1,83l0.5,115.8l57.6-58.2l0,0"/>
	<path class="st7" d="M4606.7,199.6l0.5,115.8l57.6-58.2L4606.7,199.6"/>
	<path class="st8" d="M4607,278.9l-82-81.7l81.9-0.1L4607,278.9"/>
	<path class="st9" d="M4526.4,431.1l80.9-82.8l0.9,81.9L4526.4,431.1"/>
	<path class="st10" d="M4525.4,196.5l0.7,115.8l-58.2-57.6L4525.4,196.5"/>
	<path class="st11" d="M4467.9,256.5l0.5,115.8L4526,314L4467.9,256.5"/>
	<path class="st1" d="M4525.9,314.4l0.7,115.8l-58.2-57.6L4525.9,314.4"/>
	<path class="st10" d="M4663.6,24.4l0.7,115.8l-58.2-57.6L4663.6,24.4"/>
	<path class="st7" d="M4664.8,256.7l-0.5-115.8l-57.6,58.2L4664.8,256.7"/>
	<path class="st7" d="M4607.3,316l0.5,115.8l57.6-58.2L4607.3,316"/>
	<path class="st11" d="M4665.4,373.2l-0.5-115.8l-57.6,58.2L4665.4,373.2"/>
	<path class="st12" d="M4115.5,395l-0.1-115.8l57.9,57.9L4115.5,395"/>
	<path class="st13" d="M4115.4,315.6l-81.6,82.1l81.9-0.3L4115.4,315.6"/>
	<path class="st14" d="M4034,163.8l81.3,82.4l0.5-81.9L4034,163.8"/>
	<path class="st0" d="M4033.2,398.4l0.1-115.8l-57.9,57.9L4033.2,398.4"/>
</g>
<g id="dataObject1_elements">
	<g id="data_object01">
		<g>
			<path class="st15" d="M5079.5,446.3l-0.1-115.8l57.9,57.9L5079.5,446.3"/>
			<path class="st16" d="M5137.2,388.1l0.1-115.8l-57.9,57.9L5137.2,388.1"/>
			<path class="st16" d="M5218.6,386l-0.1-115.8l57.9,57.9L5218.6,386"/>
			<path class="st16" d="M5276.3,328.6l0.1,115.8l-57.9-57.9L5276.3,328.6"/>
		</g>
	</g>
</g>
<g id="dataObject2_elements">
	<path id="dataObject_appearsFirst" class="st15" d="M5217.7,616.1l-0.1-115.8l57.9,57.9L5217.7,616.1"/>
	<path id="dataObject_appearsSecond" class="st15" d="M5392,673.8l-115.8,0l58,57.9L5392,673.8"/>
	<path id="dataObject_appearsThird" class="st15" d="M5275.5,674.4l0.1-115.8l-57.9,57.9L5275.5,674.4"/>
</g>
<g id="dataObject3_elements_1_">
	<path id="dataObject3_elements" class="st15" d="M5275.5,442.1l0.1,115.8l-57.9-57.9L5275.5,442.1"/>
</g>
</svg>
