<svg id="pole_voltage" data-name="pole voltage" xmlns="http://www.w3.org/2000/svg" viewBox="0 0 901.5 771.91"><defs><style>.cls-1{fill:aqua;}</style></defs><title>pole_voltage</title><g id="poles_01"><g id="right"><polygon class="cls-1" points="489.67 447.2 493.94 282.63 499.67 447.15 489.67 447.2"/></g><g id="left"><polygon class="cls-1" points="398.22 445.02 402.48 280.45 408.22 444.97 398.22 445.02"/></g></g><g id="poles_02"><g id="right-2" data-name="right"><polygon class="cls-1" points="515.33 478.52 519.14 252.13 525.33 478.47 515.33 478.52"/></g><g id="left-2" data-name="left"><polygon class="cls-1" points="367.33 475.52 371.14 249.13 377.33 475.47 367.33 475.52"/></g></g><g id="poles_03"><g id="right-3" data-name="right"><polygon class="cls-1" points="572.53 525.49 581.58 221.91 586.53 525.58 572.53 525.49"/></g><g id="left-3" data-name="left"><polygon class="cls-1" points="310.53 516.49 319.58 212.91 324.53 516.58 310.53 516.49"/></g></g><g id="poles_04"><g id="right-4" data-name="right"><polygon class="cls-1" points="680.7 605.91 689.7 144.19 698.7 605.91 680.7 605.91"/></g><g id="left-4" data-name="left"><polygon class="cls-1" points="203.65 589.85 208.5 129.88 221.65 589.68 203.65 589.85"/></g></g><g id="poles_05"><g id="right-5" data-name="right"><polygon class="cls-1" points="871.5 771.91 886.5 17.01 901.5 771.91 871.5 771.91"/></g><g id="left-5" data-name="left"><polygon class="cls-1" points="0 759.77 7.37 0 30 759.47 0 759.77"/></g></g></svg>