<svg id="originals" xmlns="http://www.w3.org/2000/svg" viewBox="0 0 636.31 604.82"><defs><style>.logoStyles-1{fill:none;stroke:#020e26;stroke-linejoin:round;}.logoStyles-2{fill:#003372;}.logoStyles-3{fill:#09e9e1;}.logoStyles-4{fill:#079bd9;}.logoStyles-5{fill:#020e26;}.logoStyles-6{fill:#046ff2;}</style></defs><title>QED logo_simple colours</title>
			<g id="theLogo">
				<g id="qed_path_original" data-name="qed path original">
					<g id="q">
						<polygon class="logoStyles-1" points="59.43 141.96 58.95 374.9 0.5 317.73 1.5 199.89 59.43 141.96"/>
						<polygon class="logoStyles-1" points="315.03 546.39 257.26 604.32 140.62 489.17 140.88 374.6 58.95 374.9 140.58 292.79 140.49 223.36 59.43 141.96 140.97 141.43 198.45 198.2 199.25 546.44 315.03 546.39"/>
					</g>
					<g id="e">
						<polygon class="logoStyles-1" points="266.01 377.78 381.79 377.73 324.19 435.65 207.72 320.5 207.72 203.88 265.4 146.04 265.98 310.79 266.01 377.78"/>
						<polygon class="logoStyles-1" points="346.9 228.79 265.22 146.04 346.99 146.46 428.74 228.44 347.04 310.73 265.89 310.79 346.9 228.79"/>
					</g>
					<polygon class="logoStyles-1" points="635.81 349.37 578.6 406.43 496.8 407.31 438.84 348.45 437.24 230.7 494.62 172.67 494.78 172.67 497.06 406.17 577.71 324.43 577.44 254.87 495.04 172.67 577.2 172.67 576.5 58.54 634.05 0.5 635.81 349.37"/>
				</g>
				<g id="blues_original" data-name="blues original">
					<polygon class="logoStyles-2" points="207.47 320 207.38 204.23 265.32 262.16 207.47 320"/>
					<polygon class="logoStyles-3" points="428.75 228.44 347 146.47 346.95 228.4 428.75 228.44"/>
					<polygon class="logoStyles-2" points="428.71 228.67 347.04 310.73 346.91 228.8 428.71 228.67"/>
					<polygon class="logoStyles-4" points="265.75 146.94 346.92 229.5 347.55 147.57 265.75 146.94"/>
					<polygon class="logoStyles-5" points="347.44 228.6 265.88 310.78 347.81 310.4 347.44 228.6"/>
					<polygon class="logoStyles-5" points="381.79 377.73 266.02 377.78 324.02 435.64 381.79 377.73"/>
					<polygon class="logoStyles-5" points="265.23 378.34 265.32 262.57 207.38 320.5 265.23 378.34"/>
					<polygon class="logoStyles-6" points="265.23 146.03 265.32 261.81 207.38 203.88 265.23 146.03"/>
					<polygon class="logoStyles-4" points="576.59 59.2 577.08 174.98 634.72 116.75 576.59 59.2"/>
					<polygon class="logoStyles-4" points="577.18 175.74 577.67 291.51 635.31 233.28 577.18 175.74"/>
					<polygon class="logoStyles-3" points="577.45 255.08 495.41 173.38 577.34 173.28 577.45 255.08"/>
					<polygon class="logoStyles-2" points="496.81 407.32 577.72 324.51 578.6 406.43 496.81 407.32"/>
					<polygon class="logoStyles-6" points="494.79 172.72 495.46 288.5 437.24 230.86 494.79 172.72"/>
					<polygon class="logoStyles-2" points="438.34 232.69 438.84 348.46 496.48 290.24 438.34 232.69"/>
					<polygon class="logoStyles-5" points="496.39 290.55 497.06 406.32 438.84 348.68 496.39 290.55"/>
					<polygon class="logoStyles-3" points="634.05 0.57 634.72 116.35 576.5 58.71 634.05 0.57"/>
					<polygon class="logoStyles-3" points="635.22 232.88 634.73 117.11 577.09 175.33 635.22 232.88"/>
					<polygon class="logoStyles-5" points="577.77 292.23 578.26 408 635.9 349.78 577.77 292.23"/>
					<polygon class="logoStyles-6" points="635.81 349.37 635.31 233.6 577.67 291.82 635.81 349.37"/>
					<polygon class="logoStyles-4" points="140.71 372.14 140.62 256.36 198.55 314.29 140.71 372.14"/>
					<polygon class="logoStyles-5" points="140.58 292.79 58.96 374.9 140.89 374.59 140.58 292.79"/>
					<polygon class="logoStyles-4" points="59.17 140.96 140.5 223.36 140.97 141.44 59.17 140.96"/>
					<polygon class="logoStyles-5" points="58.34 375.56 58.43 259.79 0.49 317.72 58.34 375.56"/>
					<polygon class="logoStyles-2" points="1.59 315.89 1.5 200.11 59.43 258.05 1.59 315.89"/>
					<polygon class="logoStyles-6" points="59.34 257.73 59.43 141.96 1.5 199.89 59.34 257.73"/>
					<polygon class="logoStyles-3" points="140.71 255.64 140.62 139.87 198.55 197.8 140.71 255.64"/>
					<polygon class="logoStyles-6" points="198.46 198.21 198.55 313.98 140.62 256.05 198.46 198.21"/>
					<polygon class="logoStyles-2" points="140.71 488.67 140.62 372.89 198.55 430.83 140.71 488.67"/>
					<polygon class="logoStyles-5" points="315.03 546.4 199.25 546.45 257.26 604.31 315.03 546.4"/>
					<polygon class="logoStyles-5" points="198.46 547.01 198.55 431.23 140.62 489.17 198.46 547.01"/>
					<polygon class="logoStyles-6" points="198.46 314.7 198.55 430.48 140.62 372.54 198.46 314.7"/>
				</g>
			</g>
</svg>