<svg id="windows_building_07" xmlns="http://www.w3.org/2000/svg" viewBox="0 0 68 196"><title>windows02</title>
<g id="building_07">
	<g id="window8">
		<line x1="39" y1="46" x2="39" y2="121"/>
		<line x1="30" x2="30" y2="196"/>
		<rect x="27" y="3" width="6" height="3"/>
		<rect x="27" y="8" width="6" height="3"/>
		<rect x="27" y="14" width="6" height="3"/>
		<rect x="27" y="19" width="6" height="3"/>
		<rect x="27" y="25" width="6" height="3"/>
		<rect x="27" y="30" width="6" height="3"/>
		<rect x="27" y="36" width="6" height="3"/>
		<rect x="27" y="41" width="6" height="3"/>
		<rect x="27" y="47" width="6" height="3"/>
		<rect x="27" y="52" width="6" height="3"/>
		<rect x="27" y="58" width="6" height="3"/>
		<rect x="27" y="63" width="6" height="3"/>
		<rect x="27" y="69" width="6" height="3"/>
		<rect x="27" y="74" width="6" height="3"/>
		<rect x="27" y="80" width="6" height="3"/>
		<rect x="27" y="85" width="6" height="3"/>
		<rect x="27" y="91" width="6" height="3"/>
		<rect x="27" y="97" width="6" height="2"/>
		<rect x="27" y="102" width="6" height="3"/>
		<rect x="27" y="108" width="6" height="3"/>
		<rect x="27" y="113" width="6" height="3"/>
		<rect x="27" y="119" width="6" height="3"/>
		<rect x="27" y="124" width="6" height="3"/>
		<rect x="27" y="130" width="6" height="3"/>
		<rect x="27" y="135" width="6" height="3"/>
		<rect x="27" y="141" width="6" height="3"/>
		<rect x="27" y="146" width="6" height="3"/>
		<rect x="27" y="152" width="6" height="3"/>
		<rect x="27" y="157" width="6" height="3"/>
		<rect x="27" y="163" width="6" height="3"/>
		<rect x="27" y="168" width="6" height="3"/>
		<rect x="27" y="174" width="6" height="3"/>
		<rect x="27" y="179" width="6" height="3"/>
		<rect x="27" y="185" width="6" height="3"/>
		<rect x="27" y="190" width="6" height="3"/>
		<line x1="39" x2="39" y2="196"/>
		<rect x="36" y="3" width="6" height="3"/>
		<rect x="36" y="8" width="6" height="3"/>
		<rect x="36" y="14" width="6" height="3"/>
		<rect x="36" y="19" width="6" height="3"/>
		<rect x="36" y="25" width="6" height="3"/>
		<rect x="36" y="30" width="6" height="3"/>
		<rect x="36" y="36" width="6" height="3"/>
		<rect x="36" y="41" width="6" height="3"/>
		<rect x="36" y="47" width="6" height="3"/>
		<rect x="36" y="52" width="6" height="3"/>
		<rect x="36" y="58" width="6" height="3"/>
		<rect x="36" y="63" width="6" height="3"/>
		<rect x="36" y="69" width="6" height="3"/>
		<rect x="36" y="74" width="6" height="3"/>
		<rect x="36" y="80" width="6" height="3"/>
		<rect x="36" y="85" width="6" height="3"/>
		<rect x="36" y="91" width="6" height="3"/>
		<rect x="36" y="97" width="6" height="2"/>
		<rect x="36" y="102" width="6" height="3"/>
		<rect x="36" y="108" width="6" height="3"/>
		<rect x="36" y="113" width="6" height="3"/>
		<rect x="36" y="119" width="6" height="3"/>
		<rect x="36" y="124" width="6" height="3"/>
		<rect x="36" y="130" width="6" height="3"/>
		<rect x="36" y="135" width="6" height="3"/>
		<rect x="36" y="141" width="6" height="3"/>
		<rect x="36" y="146" width="6" height="3"/>
		<rect x="36" y="152" width="6" height="3"/>
		<rect x="36" y="157" width="6" height="3"/>
		<rect x="36" y="163" width="6" height="3"/>
		<rect x="36" y="168" width="6" height="3"/>
		<rect x="36" y="174" width="6" height="3"/>
		<rect x="36" y="179" width="6" height="3"/>
		<rect x="36" y="185" width="6" height="3"/>
		<rect x="36" y="190" width="6" height="3"/>
		<line x1="48" x2="48" y2="196"/>
		<rect x="45" y="3" width="6" height="3"/>
		<rect x="45" y="8" width="6" height="3"/>
		<rect x="45" y="14" width="6" height="3"/>
		<rect x="45" y="19" width="6" height="3"/>
		<rect x="45" y="25" width="6" height="3"/>
		<rect x="45" y="30" width="6" height="3"/>
		<rect x="45" y="36" width="6" height="3"/>
		<rect x="45" y="41" width="6" height="3"/>
		<rect x="45" y="47" width="6" height="3"/>
		<rect x="45" y="52" width="6" height="3"/>
		<rect x="45" y="58" width="6" height="3"/>
		<rect x="45" y="63" width="6" height="3"/>
		<rect x="45" y="69" width="6" height="3"/>
		<rect x="45" y="74" width="6" height="3"/>
		<rect x="45" y="80" width="6" height="3"/>
		<rect x="45" y="85" width="6" height="3"/>
		<rect x="45" y="91" width="6" height="3"/>
		<rect x="45" y="97" width="6" height="2"/>
		<rect x="45" y="102" width="6" height="3"/>
		<rect x="45" y="108" width="6" height="3"/>
		<rect x="45" y="113" width="6" height="3"/>
		<rect x="45" y="119" width="6" height="3"/>
		<rect x="45" y="124" width="6" height="3"/>
		<rect x="45" y="130" width="6" height="3"/>
		<rect x="45" y="135" width="6" height="3"/>
		<rect x="45" y="141" width="6" height="3"/>
		<rect x="45" y="146" width="6" height="3"/>
		<rect x="45" y="152" width="6" height="3"/>
		<rect x="45" y="157" width="6" height="3"/>
		<rect x="45" y="163" width="6" height="3"/>
		<rect x="45" y="168" width="6" height="3"/>
		<rect x="45" y="174" width="6" height="3"/>
		<rect x="45" y="179" width="6" height="3"/>
		<rect x="45" y="185" width="6" height="3"/>
		<rect x="45" y="190" width="6" height="3"/>
		<line x1="57" y1="16" x2="57" y2="117"/>
		<rect x="54" y="18" width="6" height="3"/>
		<rect x="54" y="24" width="6" height="2"/>
		<rect x="54" y="29" width="6" height="3"/>
		<rect x="54" y="35" width="6" height="2"/>
		<rect x="54" y="40" width="6" height="3"/>
		<rect x="54" y="45" width="6" height="3"/>
		<rect x="54" y="51" width="6" height="3"/>
		<rect x="54" y="56" width="6" height="3"/>
		<rect x="54" y="62" width="6" height="3"/>
		<rect x="54" y="67" width="6" height="3"/>
		<rect x="54" y="73" width="6" height="3"/>
		<rect x="54" y="78" width="6" height="3"/>
		<rect x="54" y="84" width="6" height="3"/>
		<rect x="54" y="89" width="6" height="3"/>
		<rect x="54" y="95" width="6" height="3"/>
		<rect x="54" y="100" width="6" height="3"/>
		<rect x="54" y="106" width="6" height="3"/>
		<rect x="54" y="111" width="6" height="3"/>
		<rect x="17" y="30" width="7" height="3"/>
		<rect x="17" y="36" width="7" height="3"/>
		<rect x="17" y="42" width="7" height="3"/>
		<rect x="17" y="47" width="7" height="3"/>
		<rect x="17" y="53" width="7" height="3"/>
		<rect x="17" y="59" width="7" height="3"/>
		<rect x="17" y="65" width="7" height="3"/>
		<rect x="17" y="71" width="7" height="3"/>
		<rect x="8" y="30" width="7" height="3"/>
		<rect x="8" y="36" width="7" height="3"/>
		<rect x="8" y="42" width="7" height="3"/>
		<rect x="8" y="48" width="7" height="3"/>
		<rect x="8" y="53" width="7" height="4"/>
		<rect x="8" y="59" width="7" height="3"/>
		<rect x="8" y="65" width="7" height="3"/>
		<rect y="30" width="7" height="3"/>
		<rect y="36" width="7" height="3"/>
		<rect y="42" width="7" height="3"/>
		<rect y="47" width="7" height="3"/>
		<rect y="53" width="7" height="3"/>
		<rect y="59" width="7" height="3"/>
		<rect x="18" y="3" width="7" height="2"/>
		<rect x="18" y="8" width="7" height="3"/>
		<rect x="18" y="13" width="7" height="3"/>
		<rect x="18" y="19" width="7" height="3"/>
		<rect x="18" y="24" width="7" height="3"/>
		<rect x="61" y="27" width="7" height="3"/>
		<rect x="61" y="33" width="7" height="3"/>
		<rect x="61" y="38" width="7" height="3"/>
		<rect x="61" y="44" width="7" height="3"/>
		<rect x="61" y="49" width="7" height="3"/>
		<rect x="61" y="55" width="7" height="3"/>
		<rect x="61" y="61" width="7" height="3"/>
		<rect x="61" y="66" width="7" height="3"/>
		<rect x="61" y="72" width="7" height="3"/>
		<rect x="61" y="77" width="7" height="3"/>
		<rect x="61" y="83" width="7" height="3"/>
		<rect x="61" y="89" width="7" height="3"/>
		<rect x="61" y="94" width="7" height="3"/>
		<rect x="61" y="100" width="7" height="3"/>
		<rect x="61" y="106" width="7" height="2"/>
		<rect x="61" y="111" width="7" height="3"/>
	</g>
</g>
</svg>