<svg id="_02_right" data-name="02_right" xmlns="http://www.w3.org/2000/svg" viewBox="0 0 137.58 168.23">
	<defs>
		<style>.roadDataBranch1{fill:none;stroke:aqua;stroke-miterlimit:10;}</style>
	</defs>
	<title>data_road02</title>
			<g id="roadBranch1">
				<path id="_01" data-name="01" class="roadDataBranch1" d="M43.95 0.5 39.08 0.5 63 22.64 58.13 28.4"/>
				<g id="_02" data-name="02">
					<path class="roadDataBranch1" d="M54.15 14.45 48.83 14.45 56.35 22.86 51.04 22.86 33.33 51.21 35.32 55.41"/>
					<path class="roadDataBranch1" d="M1020,1237.3a3,3,0,0,0,2.33.91,1.8,1.8,0,0,0,1.45-.78,1.62,1.62,0,0,0,0-1.49c-0.52-1.08-2.35-2.37-3.61-2.09C1018.55,1234.18,1019.19,1236.49,1020,1237.3Z" transform="translate(-984.54 -1178.48)"/>
				</g>
				<g id="_03" data-name="03">
					<path class="roadDataBranch1" d="M49.27 26.88 57.24 33.71 51.04 33.71 43.07 46.34 54.58 66.49"/>
					<path class="roadDataBranch1" d="M1038.28,1246.34a2.91,2.91,0,0,0,.59,2.65,4.16,4.16,0,0,0,2.42,1.36,2.39,2.39,0,0,0,2.22-.49,2.2,2.2,0,0,0,.43-1.82,3.91,3.91,0,0,0-1.38-2.42C1041.17,1244.48,1038.93,1244.26,1038.28,1246.34Z" transform="translate(-984.54 -1178.48)"/>
				</g>
				<g id="_04" data-name="04">
					<path class="roadDataBranch1" d="M48.81 26.44 44.01 26.44 27.57 48.49 33.33 61.78 63 81.88 77.39 81.88"/>
					<path class="roadDataBranch1" d="M1064.9,1257.2a6,6,0,0,0-2.59,0,2,2,0,0,0-1.57,1.84,2,2,0,0,0,1.44,1.7,5.58,5.58,0,0,0,2.35.12,5,5,0,0,0,1.94-.47,1.61,1.61,0,0,0-.14-3,5.34,5.34,0,0,0-1.91-.31" transform="translate(-984.54 -1178.48)"/>
				</g>
				<g id="_06" data-name="06">
					<path class="roadDataBranch1" d="M44.01 26.44 34.62 25.74 31.55 31.28 23.8 31.28"/>
					<path class="roadDataBranch1" d="M1007,1208.12a3,3,0,0,0-1.54.16,1.16,1.16,0,0,0-.65,1.33,1.07,1.07,0,0,0,.84.65,3,3,0,0,0,1.08-.08,3,3,0,0,0,1-.34,1.13,1.13,0,0,0,.56-0.94,1.11,1.11,0,0,0-.86-1,3,3,0,0,0-1.34.06" transform="translate(-984.54 -1178.48)"/>
				</g>
				<g id="_07" data-name="07">
					<path class="roadDataBranch1" d="M1011.69,1206.88c-0.33-.25-5.9.11-5.9,0.11l-13.53,11.85,3.9,15.78" transform="translate(-984.54 -1178.48)"/>
					<path class="roadDataBranch1" d="M1012.64,1206.22a2.64,2.64,0,0,0-1.45.12,0.91,0.91,0,0,0-.47,1.22,1.3,1.3,0,0,0,1.17.39,1.86,1.86,0,0,0,1.65-.65,0.95,0.95,0,0,0-1.41-1.22" transform="translate(-984.54 -1178.48)"/>
					<path class="roadDataBranch1" d="M997.6,1239.2a2.53,2.53,0,0,0,2.89-2c0.16-1.38-1.22-2.15-2.32-2.59-1.65-.67-4.3-0.65-4.29,1.76C993.89,1238.11,996.15,1239.08,997.6,1239.2Z" transform="translate(-984.54 -1178.48)"/>
				</g>
				<g id="_08" data-name="08">
					<path class="roadDataBranch1" d="M1015.93,1214.1a6.49,6.49,0,0,0-3.65.18,0.81,0.81,0,0,0-.67.68,0.84,0.84,0,0,0,.83.57,12.75,12.75,0,0,0,2.47.11,2.23,2.23,0,0,0,.93-0.2,0.86,0.86,0,0,0,.49-0.76,1,1,0,0,0-1.14-.77,8.06,8.06,0,0,1-1.51.1" transform="translate(-984.54 -1178.48)"/>
					<path class="roadDataBranch1" d="M27.57 37.18 23 37.18 18.77 40.77 24.66 56.13"/>
					<path class="roadDataBranch1" d="M1010.46,1238.52c1.47,0,3.08-1.16,2.22-2.73a4,4,0,0,0-3-1.74C1006.35,1233.92,1007.54,1238.45,1010.46,1238.52Z" transform="translate(-984.54 -1178.48)"/>
				</g>
				<g id="_09" data-name="09">
					<path class="roadDataBranch1" d="M13.61 45.67 19.82 63.83 61.56 90.95 70.19 107.89 41.08 123.28 46.28 138.67"/>
					<path class="roadDataBranch1" d="M998.46,1221.15a1.35,1.35,0,0,0-1.69.12,1.52,1.52,0,0,0-.29,1.7,1.73,1.73,0,0,0,1.47,1,2,2,0,0,0,1.62-.74,1.28,1.28,0,0,0,.33-1.05,1.44,1.44,0,0,0-.8-0.89,3.53,3.53,0,0,0-1.77-.41" transform="translate(-984.54 -1178.48)"/>
					<ellipse class="roadDataBranch1" cx="47.05" cy="140.78" rx="4.54" ry="2.1"/>
				</g>
				<g id="_10" data-name="10">
					<path class="roadDataBranch1" d="M3.02 44.72 5.48 58.27 47.05 89.35 51.59 89.35 59.44 106.62 30.56 123.23 33.33 132.03"/>
					<path class="roadDataBranch1" d="M987.08,1221.42a3.13,3.13,0,0,0-1.5.38,1.08,1.08,0,0,0-.45,1.35,1.06,1.06,0,0,0,.81.47,3.12,3.12,0,0,0,1-.09,3.08,3.08,0,0,0,1.15-.4,1,1,0,0,0,.49-1,1.25,1.25,0,0,0-1.15-.8,2.94,2.94,0,0,0-1.79.37" transform="translate(-984.54 -1178.48)"/>
					<path class="roadDataBranch1" d="M1017.85,1313.53a6.67,6.67,0,0,0,1.28.18l0.36,0a1.76,1.76,0,0,0,1.37-.82c1.16-2.14-2.19-2.79-3.51-2.37C1015.1,1311.2,1015.82,1313.11,1017.85,1313.53Z" transform="translate(-984.54 -1178.48)"/>
				</g>
				<g id="_01-2" data-name="01">
					<path class="roadDataBranch1" d="M103.85 49.76 94.24 49.76 116.11 71.94 116.11 75.94"/>
					<path class="roadDataBranch1" d="M1099.43,1254a2.18,2.18,0,0,0-2.11,1.57,1.84,1.84,0,0,0,.62,1.56,4.69,4.69,0,0,0,1.51.86,5.2,5.2,0,0,0,1.91.47,2.07,2.07,0,0,0,1.73-.81,2.16,2.16,0,0,0-.77-2.8A5.64,5.64,0,0,0,1099.43,1254Z" transform="translate(-984.54 -1178.48)"/>
				</g>
				<g id="_02-2" data-name="02">
					<path class="roadDataBranch1" d="M1097.7,1254.62c-0.61-.15-33.19-16.2-33.19-16.2l-5.79-7.1" transform="translate(-984.54 -1178.48)"/>
					<path class="roadDataBranch1" d="M1057.45,1228.45a3.89,3.89,0,0,0-1.72.67,1.33,1.33,0,0,0-.4,1.66,2,2,0,0,0,2,.47,3.8,3.8,0,0,0,1.24-.34,1.15,1.15,0,0,0-.22-2.2,3.81,3.81,0,0,0-1.62-.07l0-.4" transform="translate(-984.54 -1178.48)"/>
				</g>
				<g id="_03-2" data-name="03">
					<path class="roadDataBranch1" d="M75.98 55.33 71.58 56.13 75.98 60.05 86.52 66.29"/>
					<path class="roadDataBranch1" d="M1071.43,1244.73a1.37,1.37,0,0,0-.89,1.51,1.39,1.39,0,0,0,.46.7,3.43,3.43,0,0,0,.74.48,3.1,3.1,0,0,0,.85.31,1.18,1.18,0,0,0,1.46-1.16A1.92,1.92,0,0,0,1071.43,1244.73Z" transform="translate(-984.54 -1178.48)"/>
				</g>
				<g id="_04-2" data-name="04">
					<line class="roadDataBranch1" x1="69.75" y1="59.74" x2="87.19" y2="68.95"/>
					<path class="roadDataBranch1" d="M1055.18,1237.79c0,0.63-.92,1.13-2,1.13a2.91,2.91,0,0,1-1.58-.41,0.91,0.91,0,0,1-.47-0.72c0-.63.92-1.13,2-1.13S1055.18,1237.17,1055.18,1237.79Z" transform="translate(-984.54 -1178.48)"/>
				</g>
				<g id="_05" data-name="05">
					<path class="roadDataBranch1" d="M1052.19,1238.93l-2.66,2s45.37,24.25,45.61,24.5l8.22,9.44-16.08,10.41,8.3,9.74" transform="translate(-984.54 -1178.48)"/>
					<ellipse class="roadDataBranch1" cx="113.09" cy="117.35" rx="2.71" ry="1.61"/>
				</g>
				<g id="_06-2" data-name="06">
					<path class="roadDataBranch1" d="M1118.43,1299.41s-14.16-16.16-14-16.62,7.69-4.77,7.69-4.77l6.31-3.54s-8.62-2.46-9.08-2.46-6-5.85-6-5.85h-37.28l12.13,19.1-25.75,16.44,8.28,16.11" transform="translate(-984.54 -1178.48)"/>
					<path class="roadDataBranch1" d="M1120,1299.68a6.24,6.24,0,0,0-3.27,0,2.15,2.15,0,0,0-1.44,2.59c0.41,1,1.66,1.28,2.73,1.34a5.55,5.55,0,0,0,2-.17,2.35,2.35,0,0,0,1.49-1.26,1.79,1.79,0,0,0-2.09-2.43" transform="translate(-984.54 -1178.48)"/>
					<path class="roadDataBranch1" d="M1058.15,1319.22a2,2,0,0,0,1.34,1.49,7,7,0,0,0,2.16.74c2.06,0.27,4.52-2.48,2.12-3.76C1062.52,1317,1058.11,1317.26,1058.15,1319.22Z" transform="translate(-984.54 -1178.48)"/>
				</g>
				<g id="_07-2" data-name="07">
					<path class="roadDataBranch1" d="M1025,1249.61c0.33,0.11,26.13,16.55,26.13,16.55h15" transform="translate(-984.54 -1178.48)"/>
					<path class="roadDataBranch1" d="M1021,1249.32a2.89,2.89,0,0,0,1.46.82,2.14,2.14,0,0,0,2.11-.16c1.2-1.15-.65-2.81-1.72-3.14A1.62,1.62,0,0,0,1021,1249.32Z" transform="translate(-984.54 -1178.48)"/>
				</g>
				<g id="_08-2" data-name="08">
					<path class="roadDataBranch1" d="M70.31 87.69 82.96 107.53 54.89 123.39 58.62 132.53"/>
					<path class="roadDataBranch1" d="M1042.92,1310.76a2.29,2.29,0,0,0-1.49,2.39,2.25,2.25,0,0,0,1.28,1.47,6.62,6.62,0,0,0,2,.49,7.17,7.17,0,0,0,2,.1,2.44,2.44,0,0,0,1.71-1,2.31,2.31,0,0,0-.3-2.69C1046.87,1310.15,1044.55,1310.07,1042.92,1310.76Z" transform="translate(-984.54 -1178.48)"/>
				</g>
				<g id="_09-2" data-name="09">
					<path class="roadDataBranch1" d="M130.74 123.78 118.82 124.63 93.67 140.78 105.18 163.56"/>
					<path class="roadDataBranch1" d="M1091.35,1341.6a7.83,7.83,0,0,0-3.07.6,2.43,2.43,0,0,0-1.45,1.25,2,2,0,0,0,1,2.21,5.68,5.68,0,0,0,2.58.52,6.36,6.36,0,0,0,2.1-.15,2.15,2.15,0,0,0,1.5-1.36,2.34,2.34,0,0,0-1-2.34,4.11,4.11,0,0,0-3.65-.7" transform="translate(-984.54 -1178.48)"/>
				</g>
				<g id="_10-2" data-name="10">
					<path class="roadDataBranch1" d="M81.97 126.23 79.09 121.46 102.74 106.79"/>
					<ellipse class="roadDataBranch1" cx="82.96" cy="127.55" rx="3.09" ry="1.97"/>
				</g>
				<g id="_11" data-name="11">
					<path class="roadDataBranch1" d="M105.57 110.11 84.36 122.45 84.36 125.58"/>
					<path class="roadDataBranch1" d="M97.27 115.74 100.91 120.97 89.37 128.87 85.92 128.09"/>
				</g>
			</g>
</svg>