<svg id="data_constellations" xmlns="http://www.w3.org/2000/svg" viewBox="0 0 1277.08 969.69"><defs><style>.data-constellations1,.data-constellations13{font-size:14px;}.data-constellations1,.data-constellations12{fill:aqua;font-family:Myriad Pro;}.data-constellations2{letter-spacing:24px;}.data-constellations3{letter-spacing:14px;}.data-constellations4{letter-spacing:11px;}.data-constellations5{letter-spacing:25px;}.data-constellations6{letter-spacing:1px;}.data-constellations7{white-space:pre;}.data-constellations8{letter-spacing:-1px;}.data-constellations9{letter-spacing:10px;}.data-constellations10{letter-spacing:20px;}.data-constellations11{letter-spacing:23px;}.data-constellations12{font-size:18px;}.data-constellations14{letter-spacing:30px;}.data-constellations15{letter-spacing:6px;}.data-constellations16{letter-spacing:19px;}.data-constellations17{letter-spacing:-2px;}.data-constellations18{letter-spacing:7px;}.data-constellations19{letter-spacing:12px;}.data-constellations20{letter-spacing:17px;}.data-constellations21{letter-spacing:21px;}.data-constellations22{letter-spacing:18px;}.data-constellations23{letter-spacing:8px;}.data-constellations24{letter-spacing:26px;}.data-constellations25{letter-spacing:13px;}.data-constellations26{letter-spacing:4px;}.data-constellations27{letter-spacing:16px;}.data-constellations28{letter-spacing:5px;}.data-constellations29{letter-spacing:9px;}.data-constellations30{letter-spacing:15px;}.data-constellations31{letter-spacing:29px;}</style></defs><title>data_constellations</title>
			<g id="dataConstellations">
				<text class="data-constellations1" transform="translate(0 82.84)">
					<tspan x="7.1" y="0">erseus</tspan>
					<tspan class="data-constellations2" x="44.5" y="0">	</tspan>
					<tspan x="0" y="16.8">P</tspan>
					<tspan x="7.1" y="16.8">erseus</tspan>
					<tspan class="data-constellations2" x="44.5" y="16.8">	</tspan>
					<tspan x="0" y="33.6">P</tspan>
					<tspan x="7.1" y="33.6">er</tspan>
					<tspan class="data-constellations3" x="18.69" y="33.6">	</tspan>
					<tspan x="0" y="50.4">615</tspan>
					<tspan class="data-constellations4" x="21.54" y="50.4">	</tspan>
					<tspan x="0" y="67.2">152</tspan>
					<tspan class="data-constellations4" x="21.54" y="67.2">	</tspan>
					<tspan x="0" y="84">7</tspan>
					<tspan class="data-constellations5" x="7.18" y="84">	</tspan>
					<tspan x="0" y="100.8">0.247</tspan>
					<tspan class="data-constellations6" x="31.62" y="100.8">	</tspan>
					<tspan class="data-constellations7" x="36" y="100.8"> 03 20</tspan>
					<tspan class="data-constellations8" x="70.66" y="100.8">	</tspan>
					<tspan x="72" y="100.8">+42</tspan>
					<tspan class="data-constellations9" x="94.71" y="100.8">	</tspan>
					<tspan x="0" y="117.6">eal</tspan>
					<tspan x="17.07" y="117.6">y</tspan>
					<tspan x="23.11" y="117.6">. Jan</tspan>
					<tspan class="data-constellations10" x="48.68" y="117.6">	</tspan>
					<tspan x="0" y="134.4">A</tspan>
					<tspan x="8.53" y="134.4">lgenib</tspan>
					<tspan class="data-constellations11" x="45.68" y="134.4">	</tspan>
					<tspan x="0" y="151.2">1.8</tspan>
				</text>
				<text class="data-constellations12" transform="translate(565.13 36.35)">C
					<tspan x="10.31" y="0">amelopa</tspan>
					<tspan x="76.07" y="0">r</tspan>
					<tspan x="81.77" y="0">dalis</tspan>
					<tspan class="data-constellations11" x="116.19" y="0">	</tspan>
					<tspan class="data-constellations13">
						<tspan x="0" y="16.8">Gi</tspan>
					<tspan x="12.32" y="16.8">r</tspan>
					<tspan x="16.83" y="16.8">a</tspan>
					<tspan x="23.58" y="16.8">ff</tspan>
					<tspan x="31.56" y="16.8">e</tspan>
					<tspan class="data-constellations14" x="38.57" y="16.8">	</tspan>
					<tspan x="0" y="33.6">C</tspan>
					<tspan x="8.02" y="33.6">am</tspan>
					<tspan class="data-constellations15" x="26.45" y="33.6">	</tspan>
					<tspan x="0" y="50.4">757</tspan>
					<tspan class="data-constellations4" x="21.54" y="50.4">	</tspan>
					<tspan x="0" y="67.2">142</tspan>
					<tspan class="data-constellations4" x="21.54" y="67.2">	</tspan>
					<tspan x="0" y="84">0</tspan>
					<tspan class="data-constellations5" x="7.18" y="84">	</tspan>
					<tspan x="0" y="100.8">0.188</tspan>
					<tspan class="data-constellations6" x="31.62" y="100.8">	</tspan>
					<tspan x="36" y="100.8">05 40</tspan>
					<tspan class="data-constellations6" x="67.69" y="100.8">	</tspan>
					<tspan x="72" y="100.8">+70</tspan>
					<tspan class="data-constellations9" x="94.71" y="100.8">	</tspan>
					<tspan x="0" y="117.6">mi</tspan>
					<tspan x="14.95" y="117.6">d</tspan>
					<tspan x="22.71" y="117.6">. </tspan>
					<tspan x="28.57" y="117.6">F</tspan>
					<tspan x="34.96" y="117.6">eb</tspan>
					<tspan class="data-constellations16" x="49.94" y="117.6">	</tspan>
					<tspan x="0" y="134.4">(</tspan>
					<tspan x="3.82" y="134.4">A</tspan>
					<tspan x="12.35" y="134.4">lpha </tspan>
					<tspan x="41.1" y="134.4">C</tspan>
					<tspan x="49.13" y="134.4">am)</tspan>
					<tspan class="data-constellations17" x="71.53" y="134.4">	</tspan>
					<tspan x="72" y="134.4">4.3</tspan></tspan>
				</text>
				<text class="data-constellations1" transform="translate(353.96 375)">C
					<tspan x="8.02" y="0">assiopeia</tspan>
					<tspan class="data-constellations18" x="61.82" y="0">	</tspan>
					<tspan x="0" y="16.8">C</tspan>
					<tspan x="8.02" y="16.8">assiopeia</tspan>
					<tspan class="data-constellations18" x="61.82" y="16.8">	</tspan>
					<tspan x="0" y="33.6">C</tspan>
					<tspan x="8.02" y="33.6">as</tspan>
					<tspan class="data-constellations19" x="20.31" y="33.6">	</tspan>
					<tspan x="0" y="50.4">598</tspan>
					<tspan class="data-constellations4" x="21.54" y="50.4">	</tspan>
					<tspan x="0" y="67.2">145</tspan>
					<tspan class="data-constellations4" x="21.54" y="67.2">	</tspan>
					<tspan x="0" y="84">6</tspan>
					<tspan class="data-constellations5" x="7.18" y="84">	</tspan>
					<tspan x="0" y="100.8">0.242</tspan>
					<tspan class="data-constellations6" x="31.62" y="100.8">	</tspan>
					<tspan x="36" y="100.8">01 00</tspan>
					<tspan class="data-constellations6" x="67.69" y="100.8">	</tspan>
					<tspan x="72" y="100.8">+60</tspan>
					<tspan class="data-constellations9" x="94.71" y="100.8">	</tspan>
					<tspan x="0" y="117.6">eal</tspan>
					<tspan x="17.07" y="117.6">y</tspan>
					<tspan x="23.11" y="117.6">. </tspan>
					<tspan x="28.98" y="117.6">D</tspan>
					<tspan x="38.36" y="117.6">ec</tspan>
					<tspan class="data-constellations20" x="51.64" y="117.6">	</tspan>
					<tspan x="0" y="134.4">S</tspan>
					<tspan x="6.99" y="134.4">chedar</tspan>
					<tspan class="data-constellations21" x="47.26" y="134.4">	</tspan>
					<tspan x="0" y="151.2">2.2</tspan>
				</text>
				<text class="data-constellations1" transform="translate(538.96 556.83)">C
					<tspan x="7.97" y="0">epheus</tspan>
					<tspan class="data-constellations22" x="50.99" y="0">	</tspan>
					<tspan x="0" y="16.8">C</tspan>
					<tspan x="7.97" y="16.8">epheus</tspan>
					<tspan class="data-constellations22" x="50.99" y="16.8">	</tspan>
					<tspan x="0" y="33.6">C</tspan>
					<tspan x="7.97" y="33.6">ep</tspan>
					<tspan class="data-constellations9" x="22.95" y="33.6">	</tspan>
					<tspan x="0" y="50.4">588</tspan>
					<tspan class="data-constellations4" x="21.54" y="50.4">	</tspan>
					<tspan x="0" y="67.2">140</tspan>
					<tspan class="data-constellations4" x="21.54" y="67.2">	</tspan>
					<tspan x="0" y="84">5</tspan>
					<tspan class="data-constellations5" x="7.18" y="84">	</tspan>
					<tspan x="0" y="100.8">0.238</tspan>
					<tspan class="data-constellations6" x="31.62" y="100.8">	</tspan>
					<tspan x="36" y="100.8">22 00</tspan>
					<tspan class="data-constellations6" x="67.69" y="100.8">	</tspan>
					<tspan x="72" y="100.8">+70</tspan>
					<tspan class="data-constellations9" x="94.71" y="100.8">	</tspan>
					<tspan x="0" y="117.6">mi</tspan>
					<tspan x="14.95" y="117.6">d</tspan>
					<tspan x="22.71" y="117.6">. </tspan>
					<tspan x="28.57" y="117.6">O</tspan>
					<tspan x="38.27" y="117.6">c</tspan>
					<tspan x="44.73" y="117.6">t</tspan>
					<tspan class="data-constellations16" x="49.36" y="117.6">	</tspan>
					<tspan x="0" y="134.4">A</tspan>
					<tspan x="8.53" y="134.4">lde</tspan>
					<tspan x="26.74" y="134.4">r</tspan>
					<tspan x="31.25" y="134.4">amin</tspan>
					<tspan class="data-constellations23" x="60.72" y="134.4">	</tspan>
					<tspan x="0" y="151.2">2.4</tspan>
				</text>
				<text class="data-constellations1" transform="translate(190.64 831.79)">La
					<tspan x="13.36" y="0">c</tspan>
					<tspan x="19.54" y="0">e</tspan>
					<tspan x="26.56" y="0">r</tspan>
					<tspan x="31.47" y="0">ta</tspan>
					<tspan class="data-constellations24" x="42.85" y="0">	</tspan>
					<tspan x="0" y="16.8">Liza</tspan>
					<tspan x="22.62" y="16.8">r</tspan>
					<tspan x="27.06" y="16.8">d</tspan>
					<tspan class="data-constellations8" x="34.96" y="16.8">	</tspan>
					<tspan x="36" y="16.8">Lac</tspan>
					<tspan class="data-constellations25" x="55.63" y="16.8">	</tspan>
					<tspan x="0" y="33.6">201</tspan>
					<tspan class="data-constellations4" x="21.54" y="33.6">	</tspan>
					<tspan x="0" y="50.4">62</tspan>
					<tspan class="data-constellations22" x="14.36" y="50.4">	</tspan>
					<tspan x="0" y="67.2">0</tspan>
					<tspan class="data-constellations5" x="7.18" y="67.2">	</tspan>
					<tspan x="0" y="84">0.308</tspan>
					<tspan class="data-constellations6" x="31.62" y="84">	</tspan>
					<tspan x="36" y="84">22 25</tspan>
					<tspan class="data-constellations6" x="67.69" y="84">	</tspan>
					<tspan x="72" y="84">+43</tspan>
					<tspan class="data-constellations9" x="94.71" y="84">	</tspan>
					<tspan x="0" y="100.8">en</tspan>
					<tspan x="14.78" y="100.8">d</tspan>
					<tspan x="22.54" y="100.8">. </tspan>
					<tspan x="28.41" y="100.8">O</tspan>
					<tspan x="38.11" y="100.8">c</tspan>
					<tspan x="44.56" y="100.8">t</tspan>
					<tspan class="data-constellations16" x="49.19" y="100.8">	</tspan>
					<tspan x="0" y="117.6">(</tspan>
					<tspan x="3.82" y="117.6">A</tspan>
					<tspan x="12.35" y="117.6">lpha Lac)</tspan>
					<tspan class="data-constellations26" x="64.71" y="117.6">	</tspan>
					<tspan x="0" y="134.4">3.8</tspan>
				</text>
				<text class="data-constellations1" transform="translate(1027.13 450.47)">D
					<tspan x="9.32" y="0">r</tspan>
					<tspan x="13.83" y="0">a</tspan>
					<tspan x="20.58" y="0">c</tspan>
					<tspan x="26.77" y="0">o</tspan>
					<tspan class="data-constellations8" x="34.45" y="0">	</tspan>
					<tspan x="36" y="0">D</tspan>
					<tspan x="45.32" y="0">r</tspan>
					<tspan x="49.83" y="0">agon</tspan>
					<tspan class="data-constellations5" x="79.86" y="0">	</tspan>
					<tspan x="0" y="16.8">D</tspan>
					<tspan x="9.32" y="16.8">r</tspan>
					<tspan x="13.83" y="16.8">a</tspan>
					<tspan class="data-constellations19" x="20.58" y="16.8">	</tspan>
					<tspan x="0" y="33.6">494</tspan>
					<tspan class="data-constellations4" x="21.54" y="33.6">	</tspan>
					<tspan x="36" y="33.6">210</tspan>
					<tspan class="data-constellations4" x="57.54" y="33.6">	</tspan>
					<tspan x="72" y="33.6">6</tspan>
					<tspan class="data-constellations5" x="79.18" y="33.6">	</tspan>
					<tspan x="0" y="50.4">0.425</tspan>
					<tspan class="data-constellations6" x="31.62" y="50.4">	</tspan>
					<tspan x="36" y="50.4">17 00</tspan>
					<tspan class="data-constellations6" x="67.69" y="50.4">	</tspan>
					<tspan x="72" y="50.4">+60</tspan>
					<tspan class="data-constellations9" x="94.71" y="50.4">	</tspan>
					<tspan x="0" y="67.2">eal</tspan>
					<tspan x="17.07" y="67.2">y</tspan>
					<tspan x="23.11" y="67.2">. </tspan>
					<tspan x="28.98" y="67.2">A</tspan>
					<tspan x="37.38" y="67.2">ug</tspan>
					<tspan class="data-constellations27" x="52.92" y="67.2">	</tspan>
					<tspan x="0" y="84">T</tspan>
					<tspan x="6.86" y="84">huban</tspan>
					<tspan class="data-constellations2" x="44.83" y="84">	</tspan>
					<tspan x="0" y="100.8">3.7</tspan>
				</text>
				<text class="data-constellations1" transform="translate(737.96 413.12)">Ursa 
					<tspan x="28.9" y="0">M</tspan>
					<tspan x="40.32" y="0">inor</tspan>
					<tspan class="data-constellations28" x="63.63" y="0">	</tspan>
					<tspan x="0" y="16.8">Little </tspan>
					<tspan x="32.44" y="16.8">B</tspan>
					<tspan x="40.08" y="16.8">ear</tspan>
					<tspan class="data-constellations9" x="58.42" y="16.8">	</tspan>
					<tspan x="0" y="33.6">U</tspan>
					<tspan x="9.06" y="33.6">M</tspan>
					<tspan x="20.48" y="33.6">i</tspan>
					<tspan class="data-constellations29" x="23.76" y="33.6">	</tspan>
					<tspan x="0" y="50.4">256</tspan>
					<tspan class="data-constellations4" x="21.54" y="50.4">	</tspan>
					<tspan x="0" y="67.2">39</tspan>
					<tspan class="data-constellations22" x="14.36" y="67.2">	</tspan>
					<tspan x="0" y="84">3</tspan>
					<tspan class="data-constellations5" x="7.18" y="84">	</tspan>
					<tspan x="0" y="100.8">0.152</tspan>
					<tspan class="data-constellations6" x="31.62" y="100.8">	</tspan>
					<tspan x="36" y="100.8">15 40</tspan>
					<tspan class="data-constellations6" x="67.69" y="100.8">	</tspan>
					<tspan x="72" y="100.8">+78</tspan>
					<tspan class="data-constellations9" x="94.71" y="100.8">	</tspan>
					<tspan x="0" y="117.6">mi</tspan>
					<tspan x="14.95" y="117.6">d</tspan>
					<tspan x="22.71" y="117.6">. Jul</tspan>
					<tspan class="data-constellations2" x="44.77" y="117.6">	</tspan>
					<tspan x="0" y="134.4">P</tspan>
					<tspan x="7.1" y="134.4">ola</tspan>
					<tspan x="24.84" y="134.4">r</tspan>
					<tspan x="29.47" y="134.4">is</tspan>
					<tspan class="data-constellations14" x="38.29" y="134.4">	</tspan>
					<tspan x="0" y="151.2">2.0</tspan>
				</text>
				<text class="data-constellations1" transform="translate(1169.08 11.72)">Ursa 
					<tspan x="28.9" y="0">M</tspan>
					<tspan x="40.24" y="0">ajor</tspan>
					<tspan class="data-constellations15" x="62.65" y="0">	</tspan>
					<tspan x="0" y="16.8">Big </tspan>
					<tspan x="21.66" y="16.8">B</tspan>
					<tspan x="29.3" y="16.8">ear</tspan>
					<tspan class="data-constellations21" x="47.64" y="16.8">	</tspan>
					<tspan x="0" y="33.6">U</tspan>
					<tspan x="9.06" y="33.6">M</tspan>
					<tspan x="20.4" y="33.6">a</tspan>
					<tspan class="data-constellations28" x="27.15" y="33.6">	</tspan>
					<tspan x="0" y="50.4">1280</tspan>
					<tspan class="data-constellations26" x="28.73" y="50.4">	</tspan>
					<tspan x="36" y="50.4">199</tspan>
					<tspan class="data-constellations4" x="57.54" y="50.4">	</tspan>
					<tspan x="72" y="50.4">14</tspan>
					<tspan class="data-constellations22" x="86.36" y="50.4">	</tspan>
					<tspan x="0" y="67.2">0.155</tspan>
					<tspan class="data-constellations6" x="31.62" y="67.2">	</tspan>
					<tspan x="36" y="67.2">11 00</tspan>
					<tspan class="data-constellations6" x="67.69" y="67.2">	</tspan>
					<tspan x="72" y="67.2">+58</tspan>
					<tspan class="data-constellations9" x="94.71" y="67.2">	</tspan>
					<tspan x="0" y="84">eal</tspan>
					<tspan x="17.07" y="84">y</tspan>
					<tspan x="23.11" y="84">. </tspan>
					<tspan x="28.98" y="84">M</tspan>
					<tspan x="40.32" y="84">a</tspan>
					<tspan x="46.95" y="84">y</tspan>
					<tspan class="data-constellations30" x="53.55" y="84">	</tspan>
					<tspan x="0" y="100.8">D</tspan>
					<tspan x="9.37" y="100.8">ubhe</tspan>
					<tspan class="data-constellations31" x="39.83" y="100.8">	</tspan>
					<tspan x="0" y="117.6">1.8</tspan>
				</text>
			</g>
</svg>