<svg id="_02_left" xmlns="http://www.w3.org/2000/svg" viewBox="0 0 176.9 109.82"><defs><style>.roadDataBranch{fill:none;stroke:aqua;stroke-miterlimit:10;}</style></defs><title>circuit_road02</title
				<path id="_01" class="roadDataBranch" d="M47.11 0.39 60.01 10.62 57.89 13.58 65.5 20.34 81.57 20.34 84.7 18.66 88.05 22.16 104.47 22.16 117.88 22.51 125.05 27.21 147.46 27.21 148.02 29.69"/>
				<g id="roadBranch2">
					<ellipse class="roadDataBranch" cx="122.98" cy="39.54" rx="2.06" ry="1.57"/>
					<path id="_02-2" class="roadDataBranch" d="M55.07 7.18 47.74 16.64 56.79 27.62 76.24 27.62 86.15 22.9 113.62 23.22 120.89 28.3 122.6 37.83"/>
					<path class="roadDataBranch" d="M113.71 32.26 107.2 28.64 83.08 29.15 73.89 35.55"/>
					<ellipse class="roadDataBranch" cx="73.5" cy="36.64" rx="1.84" ry="1.09"/>
					<ellipse class="roadDataBranch" cx="115.41" cy="33.17" rx="2.25" ry="1.45"/>
					<path id="_04" class="roadDataBranch" d="M115.41 35.05 118.67 57.17 157.65 90.06 169.26 90.06 176.44 108.24"/>
					<path id="_05" class="roadDataBranch" d="M165.7 90.05 L 173.13 109.65"/>
					<path id="_06-2" class="roadDataBranch" d="M1025.33,1267.56c-0.22.86,4.52,13,4.52,13l-4.53,2.91h-4.17" transform="translate(-863.07 -1177.5)"/>
					<ellipse class="roadDataBranch" cx="156.01" cy="106.2" rx="2.76" ry="1.22"/>
					<path class="roadDataBranch" d="M104.39 28.73 100.29 32.35 104.48 35.55 88.56 50.97 77.15 53.97"/>
					<ellipse class="roadDataBranch" cx="76.07" cy="54.58" rx="1.65" ry="1.4"/>
					<path class="roadDataBranch" d="M111.78 31.18 112.75 31.72 109.81 34.61 109.81 58.53 117.66 66.89 121.14 66.36 126.92 71.65"/>
					<ellipse class="roadDataBranch" cx="128.79" cy="72.92" rx="2.19" ry="1.72"/>
					<path class="roadDataBranch" d="M41.88 4.39 45.34 7.18 35.19 15.04 32.19 13.84 25.5 19.84 29.42 22.51 43.26 22.51 51.33 34.61 58.48 35.05 61.94 38.74 71.66 38.74 75.34 43.65 85.17 43.79 79.47 49.36 71.66 49.36"/>
					<ellipse class="roadDataBranch" cx="69.3" cy="49.36" rx="2.35" ry="1.46"/>
					<path class="roadDataBranch" d="M0.49 39.29 3.92 55.24 18.93 55.24"/>
					<ellipse class="roadDataBranch" cx="21.2" cy="55.24" rx="2.27" ry="1.45"/>
					<path class="roadDataBranch" d="M872,1226.19a0.8,0.8,0,0,1-.19.5,3,3,0,0,1-2.29.8c-1.37,0-2.48-.58-2.48-1.3s1.11-1.3,2.48-1.3S872,1225.47,872,1226.19Z" transform="translate(-863.07 -1177.5)"/>
					<line class="roadDataBranch" d="M32.72 49.44 L8.69,49.18"/>
					<path class="roadDataBranch" d="M81.99 59.21 67.95 59.21 51.96 39.29 39.74 39.29 34.02 45.88 34.02 47.6 27.26 55.91 36.86 83.03 56.28 83.03"/>
					<ellipse class="roadDataBranch" cx="84.26" cy="59.21" rx="2.27" ry="1.4"/>
					<ellipse class="roadDataBranch" cx="58.98" cy="83.02" rx="2.18" ry="1.35"/>
					<path class="roadDataBranch" d="M36.15 43.43 40.19 44.23 40.19 49.18 46.24 49.18 54.63 57.84"/>
					<ellipse class="roadDataBranch" cx="55.28" cy="59.21" rx="2.46" ry="1.42"/>
					<path class="roadDataBranch" d="M68.58 63.77 45.74 63.77 41.55 56.64 45.39 49.74"/>
					<ellipse class="roadDataBranch" cx="71.16" cy="64.44" rx="2.58" ry="1.58"/>
					<path class="roadDataBranch" d="M27.26 55.91 30.55 55.91 38.89 76.77 64.17 77.22"/>
					<ellipse class="roadDataBranch" cx="66.87" cy="77.43" rx="2.7" ry="1.55"/>
					<line class="roadDataBranch" x1="36.15" y1="56.64" x2="42.43" y2="68.88"/>
					<ellipse class="roadDataBranch" cx="35.56" cy="55.47" rx="1.9" ry="1.64"/>
					<ellipse class="roadDataBranch" cx="43.47" cy="70.42" rx="1.92" ry="1.54"/>
					<path class="roadDataBranch" d="M52.04 71.49 74.66 71.49 96.35 54.24"/>
					<ellipse class="roadDataBranch" cx="49.7" cy="71.49" rx="2.82" ry="1.63"/>
					<ellipse class="roadDataBranch" cx="98.37" cy="52.7" rx="2.67" ry="2.06"/>
				</g>
</svg>