<svg id="windows_new02" xmlns="http://www.w3.org/2000/svg" viewBox="0 0 529.17 240.3"><defs>
	<style>.window6-7{fill:none;}</style></defs><title>windows_02</title>

		<g id="window6">
			<rect class="window6-7" x="504.17" y="58.2" width="25" height="4"/>
			<rect class="window6-7" x="504.17" y="65.2" width="25" height="5"/>
			<rect class="window6-7" x="504.17" y="72.2" width="25" height="6"/>
			<rect class="window6-7" x="504.17" y="81.2" width="25" height="5"/>
			<rect class="window6-7" x="504.17" y="89.2" width="25" height="6"/>
			<rect class="window6-7" x="504.17" y="97.2" width="25" height="6"/>
			<rect class="window6-7" x="504.17" y="105.2" width="25" height="5"/>
			<rect class="window6-7" x="504.17" y="112.2" width="25" height="6"/>
			<rect class="window6-7" x="504.17" y="120.2" width="25" height="6"/>
			<rect class="window6-7" x="504.17" y="129.2" width="25" height="5"/>
			<rect class="window6-7" x="504.17" y="137.2" width="25" height="5"/>
			<rect class="window6-7" x="504.17" y="144.2" width="25" height="6"/>
			<rect class="window6-7" x="504.17" y="152.2" width="25" height="6"/>
			<rect class="window6-7" x="504.17" y="161.2" width="25" height="4"/>
			<rect class="window6-7" x="504.17" y="168.2" width="25" height="5"/>
			<rect class="window6-7" x="504.17" y="175.2" width="25" height="6"/>
			<rect class="window6-7" x="504.17" y="184.2" width="25" height="5"/>
			<rect class="window6-7" x="504.17" y="192.2" width="25" height="6"/>
			<rect class="window6-7" x="504.17" y="200.2" width="25" height="6"/>
			<rect class="window6-7" x="504.17" y="208.2" width="25" height="5"/>
			<rect class="window6-7" x="504.17" y="215.2" width="25" height="6"/>
			<rect class="window6-7" x="504.17" y="224.2" width="25" height="5"/>
			<rect class="window6-7" x="504.17" y="232.2" width="25" height="5"/>
		</g>
		<g id="window7">
			<path class="window6-7" d="M105.83,905.49l16.73-19.69,1.61,2.51,1.57,2.51L108.67,910l-1.41-2.25Z" transform="translate(-105.83 -885.8)"/>
			<path class="window6-7" d="M109.79,911.77L127,892.84l1.53,2.54,1.51,2.56-17.5,18.44-1.37-2.32Z" transform="translate(-105.83 -885.8)"/>
			<path class="window6-7" d="M113.62,918.26L131.24,900l1.48,2.61,1.46,2.63L116.26,923,115,920.6Z" transform="translate(-105.83 -885.8)"/>
			<path class="window6-7" d="M117.29,924.86l18-17.48,1.42,2.69,1.4,2.72-18.37,16.86-1.24-2.4Z" transform="translate(-105.83 -885.8)"/>
			<path class="window6-7" d="M120.76,931.58L139.26,915s0.69,1.38,1.36,2.79,1.34,2.83,1.34,2.83l-18.88,15.81s-0.55-1.22-1.15-2.43S120.76,931.58,120.76,931.58Z" transform="translate(-105.83 -885.8)"/>
			<path class="window6-7" d="M124,938.37l19-15.46,1.29,2.92,1.26,3-19.47,14.45-1-2.44Z" transform="translate(-105.83 -885.8)"/>
			<path class="window6-7" d="M126.87,945.22l19.66-14,0.38,1,0.81,2.14c0.3,0.77.58,1.57,0.79,2.18l0.35,1-20.18,12.57-0.26-.76c-0.16-.46-0.37-1.06-0.61-1.67L127.18,946Z" transform="translate(-105.83 -885.8)"/>
			<path class="window6-7" d="M129.32,952l20.41-11.89,0.33,1c0.2,0.61.46,1.46,0.7,2.33l0.68,2.37,0.29,1.12-21,9.78-0.18-.72-0.47-1.63c-0.16-.59-0.34-1.19-0.5-1.64Z" transform="translate(-105.83 -885.8)"/>
			<path class="window6-7" d="M131.16,958.6l21.28-8.72,0.25,1.17c0.14,0.72.37,1.61,0.53,2.62l0.46,2.71,0.17,1.29-21.9,5.21-0.08-.62-0.25-1.46c-0.07-.52-0.23-1.1-0.31-1.51Z" transform="translate(-105.83 -885.8)"/>
			<path class="window6-7" d="M132.12,964.44l22.1-3.37,0.1,1.38,0.09,1.42c0,0.49,0,.83,0,1.26l0.09,3.29-22.23,1.1-0.08-2.93c0-.34,0-0.79,0-1l0-.57Z" transform="translate(-105.83 -885.8)"/>
			<polygon class="window6-7" points="26.55 86.07 48.78 85.25 48.88 91.6 26.64 92.17 26.55 86.07"/>
			<polygon class="window6-7" points="26.68 94.61 48.92 94.14 48.97 100.44 26.73 100.78 26.68 94.61"/>
			<polygon class="window6-7" points="26.75 103.25 48.99 102.95 49.03 109.22 26.79 109.43 26.75 103.25"/>
			<polygon class="window6-7" points="26.8 111.91 49.04 111.73 49.07 117.99 26.82 118.11 26.8 111.91"/>
			<polygon class="window6-7" points="26.83 120.57 49.07 120.49 49.08 126.72 26.84 126.8 26.83 120.57"/>
			<polygon class="window6-7" points="26.84 129.28 49.09 129.25 49.09 135.49 26.84 135.49 26.84 129.28"/>
			<polygon class="window6-7" points="26.84 137.97 49.09 137.99 49.08 144.24 26.84 144.19 26.84 137.97"/>
			<polygon class="window6-7" points="26.83 146.66 49.08 146.73 49.07 152.96 26.82 152.89 26.83 146.66"/>
			<polygon class="window6-7" points="26.82 155.38 49.06 155.47 49.04 161.71 26.8 161.6 26.82 155.38"/>
			<polygon class="window6-7" points="26.79 164.08 49.04 164.21 49.02 170.44 26.77 170.31 26.79 164.08"/>
			<polygon class="window6-7" points="26.76 172.78 49.01 172.94 48.98 179.17 26.74 179.01 26.76 172.78"/>
			<polygon class="window6-7" points="26.73 181.5 48.97 181.68 48.94 187.91 26.7 187.72 26.73 181.5"/>
			<polygon class="window6-7" points="26.69 190.21 48.93 190.41 48.9 196.64 26.66 196.44 26.69 190.21"/>
			<polygon class="window6-7" points="26.64 198.91 48.89 199.14 48.85 205.37 26.61 205.14 26.64 198.91"/>
			<polygon class="window6-7" points="26.59 207.63 48.84 207.87 48.8 214.1 26.56 213.86 26.59 207.63"/>
			<polygon class="window6-7" points="26.54 216.34 48.78 216.6 48.74 222.84 26.5 222.57 26.54 216.34"/>
			<polygon class="window6-7" points="26.48 225.06 48.73 225.33 48.68 231.56 26.44 231.28 26.48 225.06"/>
			<polygon class="window6-7" points="26.42 233.77 48.66 234.06 48.62 240.3 26.38 239.99 26.42 233.77"/>
		</g>
</svg>